<svg width="67" height="67" viewBox="0 0 67 67" fill="none" xmlns="http://www.w3.org/2000/svg">
<path d="M23.4492 16.75C25.3022 16.75 26.7992 15.253 26.7992 13.4C26.7992 11.547 25.3022 10.05 23.4492 10.05H16.7492C11.2008 10.05 6.69922 14.5516 6.69922 20.1V46.9C6.69922 52.4484 11.2008 56.95 16.7492 56.95H23.4492C25.3022 56.95 26.7992 55.453 26.7992 53.6C26.7992 51.747 25.3022 50.25 23.4492 50.25H16.7492C14.8962 50.25 13.3992 48.753 13.3992 46.9V20.1C13.3992 18.247 14.8962 16.75 16.7492 16.75H23.4492ZM59.3152 35.8659C60.6237 34.5573 60.6237 32.4322 59.3152 31.1236L45.9152 17.7236C44.6066 16.415 42.4814 16.415 41.1728 17.7236C39.8642 19.0322 39.8642 21.1573 41.1728 22.4659L48.8569 30.15H26.7992C24.9462 30.15 23.4492 31.647 23.4492 33.5C23.4492 35.353 24.9462 36.85 26.7992 36.85H48.8569L41.1728 44.5341C39.8642 45.8427 39.8642 47.9678 41.1728 49.2764C42.4814 50.585 44.6066 50.585 45.9152 49.2764L59.3152 35.8764V35.8659Z" fill="#767676"/>
</svg>
