<svg width="24" height="24" viewBox="0 0 24 24" fill="none" xmlns="http://www.w3.org/2000/svg">
<g clip-path="url(#clip0_1288_59)">
<path d="M7.5 4.5C7.5 3.30653 7.97411 2.16193 8.81802 1.31802C9.66193 0.474106 10.8065 0 12 0C13.1935 0 14.3381 0.474106 15.182 1.31802C16.0259 2.16193 16.5 3.30653 16.5 4.5C16.5 5.69347 16.0259 6.83807 15.182 7.68198C14.3381 8.52589 13.1935 9 12 9C10.8065 9 9.66193 8.52589 8.81802 7.68198C7.97411 6.83807 7.5 5.69347 7.5 4.5ZM11.25 11.625V24L8.98125 22.8656C8.00156 22.3781 6.94219 22.0688 5.85 21.9609L1.35 21.5109C0.585938 21.4312 0 20.7891 0 20.0156V10.5C0 9.67031 0.670312 9 1.5 9H2.92031C5.90156 9 8.80781 9.91875 11.25 11.625ZM12.75 24V11.625C15.1922 9.91875 18.0984 9 21.0797 9H22.5C23.3297 9 24 9.67031 24 10.5V20.0156C24 20.7844 23.4141 21.4312 22.65 21.5062L18.15 21.9562C17.0625 22.0641 15.9984 22.3734 15.0187 22.8609L12.75 24Z" fill="#FCB315"/>
</g>
<defs>
<clipPath id="clip0_1288_59">
<rect width="24" height="24" fill="white"/>
</clipPath>
</defs>
</svg>
