<svg xmlns="http://www.w3.org/2000/svg" viewBox="0 0 640 640">
  <path fill="currentColor" d="M192 64c-35 0-64 29-64 64v384c0 35 29 64 64 64h256c35 0 64-29 64-64V128c0-35-29-64-64-64zm112 352h32c18 0 32 14 32 32v80h-96v-80c0-18 14-32 32-32m-80-240q1-15 16-16h32q15 1 16 16v32q-1 15-16 16h-32q-15-1-16-16zm144-16h32q15 1 16 16v32q-1 15-16 16h-32q-15-1-16-16v-32q1-15 16-16M224 304q1-15 16-16h32q15 1 16 16v32q-1 15-16 16h-32q-15-1-16-16zm144-16h32q15 1 16 16v32q-1 15-16 16h-32q-15-1-16-16v-32q1-15 16-16"/>
</svg>
