<svg width="24" height="21" viewBox="0 0 24 21" fill="none" xmlns="http://www.w3.org/2000/svg">
<g clip-path="url(#clip0_1294_791)">
<path d="M0 2.625C0 1.17715 1.19583 0 2.66667 0H9.33333V5.25C9.33333 5.97598 9.92917 6.5625 10.6667 6.5625H16V11.8125H9C8.44583 11.8125 8 12.2514 8 12.7969C8 13.3424 8.44583 13.7812 9 13.7812H16V18.375C16 19.8229 14.8042 21 13.3333 21H2.66667C1.19583 21 0 19.8229 0 18.375V2.625ZM16 13.7812V11.8125H20.5875L18.9625 10.2129C18.5708 9.82734 18.5708 9.20391 18.9625 8.82246C19.3542 8.44102 19.9875 8.43691 20.375 8.82246L23.7083 12.1037C24.1 12.4893 24.1 13.1127 23.7083 13.4941L20.375 16.7754C19.9833 17.1609 19.35 17.1609 18.9625 16.7754C18.575 16.3898 18.5708 15.7664 18.9625 15.385L20.5875 13.7854L16 13.7812ZM16 5.25H10.6667V0L16 5.25Z" fill="currentColor"/>
</g>
<defs>
<clipPath id="clip0_1294_791">
<rect width="24" height="21" fill="white"/>
</clipPath>
</defs>
</svg>
