<svg width="46" height="46" viewBox="0 0 46 46" fill="none" xmlns="http://www.w3.org/2000/svg">
<g clip-path="url(#clip0_1401_1552)">
<path d="M11.5 5.75C11.5 2.57852 14.0785 0 17.25 0H31.625V11.5C31.625 13.0902 32.9098 14.375 34.5 14.375H46V40.25C46 43.4215 43.4215 46 40.25 46H17.25C14.0785 46 11.5 43.4215 11.5 40.25V30.1875H27.1418L23.6379 33.6914C22.7934 34.5359 22.7934 35.9016 23.6379 36.7371C24.4824 37.5727 25.848 37.5816 26.6836 36.7371L33.8711 29.5496C34.7156 28.7051 34.7156 27.3395 33.8711 26.5039L26.6836 19.3164C25.8391 18.4719 24.4734 18.4719 23.6379 19.3164C22.8023 20.1609 22.7934 21.5266 23.6379 22.3621L27.1418 25.866L11.5 25.875V5.75ZM11.5 25.875V30.1875H2.15625C0.961328 30.1875 0 29.2262 0 28.0312C0 26.8363 0.961328 25.875 2.15625 25.875H11.5ZM46 11.5H34.5V0L46 11.5Z" fill="#E9E6E6"/>
</g>
<defs>
<clipPath id="clip0_1401_1552">
<rect width="46" height="46" fill="white"/>
</clipPath>
</defs>
</svg>
