<svg xmlns="http://www.w3.org/2000/svg" viewBox="0 0 640 640">
  <path fill="currentColor" d="M416 275c12-4 25 2 30 13l19 38q15 2 30 8l35-23c10-7 24-6 33 3l19 19c9 9 11 23 4 34l-24 34 8 30 38 19q18 10 14 30l-7 27c-3 12-15 20-27 19l-42-3q-10 13-22 22l3 42q-1 21-20 28l-26 7c-12 3-25-3-31-14l-18-38q-17-2-30-8l-35 23c-11 7-25 6-33-3l-20-19c-9-9-10-23-3-33l23-35-8-30-37-19q-18-10-14-30l7-27q6-19 27-19l42 3q9-13 22-22l-3-42q0-21 20-27zm32 129c-24 0-44 20-43 44a44 44 0 1 0 43-44M225 19l26 7q19 6 20 27l-3 42q13 9 22 22l42-3c12-1 24 7 27 19l7 27q4 20-14 30l-37 19-8 30 23 35c7 10 5 24-3 33l-20 19q-15 14-33 3l-35-23q-14 6-30 8l-18 38c-6 11-19 17-31 14l-26-7q-19-7-20-28l3-42q-12-9-22-22l-42 3c-12 1-24-7-27-19l-7-27q-4-19 14-30l37-19 8-30-23-34c-7-11-5-25 3-34l20-19q15-13 33-3l35 23q14-6 30-8l18-38c6-11 19-17 31-13m-33 129a44 44 0 1 0 0 88 44 44 0 0 0 0-88"/>
</svg>
