<svg width="24" height="24" viewBox="0 0 24 24" fill="none" xmlns="http://www.w3.org/2000/svg">
<path d="M23.9918 12.3538C23.9918 13.1184 23.3668 13.7174 22.6585 13.7174H21.3251L21.3543 20.5228C21.3543 20.6374 21.346 20.7521 21.3335 20.8668V21.555C21.3335 22.4938 20.5876 23.2542 19.6668 23.2542H19.0001C18.9543 23.2542 18.9085 23.2542 18.8626 23.25C18.8043 23.2542 18.746 23.2542 18.6876 23.2542L17.3335 23.25H16.3335C15.4126 23.25 14.6668 22.4896 14.6668 21.5508V20.5312V17.8125C14.6668 17.0606 14.071 16.4531 13.3335 16.4531H10.6668C9.9293 16.4531 9.33347 17.0606 9.33347 17.8125V20.5312V21.5508C9.33347 22.4896 8.58764 23.25 7.6668 23.25H6.6668H5.33764C5.27514 23.25 5.21264 23.2458 5.15014 23.2415C5.10014 23.2458 5.05014 23.25 5.00014 23.25H4.33347C3.41264 23.25 2.6668 22.4896 2.6668 21.5508V16.793C2.6668 16.7547 2.6668 16.7123 2.67097 16.674V13.7131H1.33764C0.587636 13.7131 0.00430298 13.1184 0.00430298 12.3495C0.00430298 11.9672 0.129303 11.6273 0.42097 11.33L11.1001 1.83984C11.3918 1.54248 11.7251 1.5 12.0168 1.5C12.3085 1.5 12.6418 1.58496 12.8918 1.79736L23.5335 11.3342C23.8668 11.6316 24.0335 11.9714 23.9918 12.3538Z" fill="currentColor"/>
</svg>
