<svg xmlns="http://www.w3.org/2000/svg" fill="none" viewBox="0 0 554 399">
  <g clip-path="url(#a)">
    <path fill="#ccc" d="M553.2 396H.8a.8.8 0 0 1-.6-1.4l.6-.3h552.4l.6.3a.8.8 0 0 1-.6 1.3"/>
    <path fill="#ccc" d="M498.5 256.7h-325a5 5 0 0 0-5.2 5.2 5 5 0 0 0 5.2 5.2h9.2v124.1a5 5 0 0 0 5.2 5.2 5 5 0 0 0 5.2-5.2v-124h285v124a5 5 0 0 0 5.2 5.2 5 5 0 0 0 5.2-5.2V269.8l1.5-2.7h8.5a5 5 0 0 0 5.2-5.2 5 5 0 0 0-5.2-5.2"/>
    <path fill="#3f3d56" d="M353.7 259.4h-98.5a7 7 0 0 1-7.2-7.1v-54a7 7 0 0 1 7.2-7.2h98.5a7 7 0 0 1 7.2 7.1v54a7 7 0 0 1-7.2 7.2"/>
    <path fill="#fff" d="M353.7 196.6h-98.5a2 2 0 0 0-1.6 1.6v54a2 2 0 0 0 1.6 1.7h98.5a2 2 0 0 0 1.6-1.6v-54a2 2 0 0 0-1.6-1.7"/>
    <path fill="#2f2e41" d="M312.9 234.8s-11.8-2.7-18.3 2.3 8.2 16.3 8.2 16.3z"/>
    <path fill="#a0616a" d="M305 229.7a11.1 11.1 0 1 0 0-22.2 11.1 11.1 0 0 0 0 22.2"/>
    <path fill="#2f2e41" d="M296.4 203a8 8 0 0 1 7.3-3.8q2.3.3 4.5 1.2l7.2 2.9c2 .7 4 1.6 4.8 3.4s.2 3.7-.4 5.5l-2.7 8.5q-.4-3-1.6-5.6-1.1-2.8-3.7-4.3c-2-1-4.1-1-6.2-.9-3 .2-6.3.6-8.4 2.7a9 9 0 0 0-2.3 4.3q-.4 2.4-.4 4.9a40 40 0 0 1-3.1-6.7q-1-2.6-1.2-5.3 0-3 1.8-5.1a5 5 0 0 1 5-1.6z"/>
    <path fill="#1a1851" d="M331.6 244.5a2 2 0 0 0-1.7-1.5l-16.6-9.3a2 2 0 0 0-2.9.7l-4.5 7.4-6.8-6.9h-.2a2 2 0 0 0-2.7-.3l-13.6 9.5a3 3 0 0 0-2.5 2.7l-.4 7.1h54.5z"/>
    <path fill="#3f3d56" d="M362 252.8h-10.5a1 1 0 0 0-1.1-1H347a1 1 0 0 0-1.2 1h-3.3a1 1 0 0 0-1-1h-3.4a1 1 0 0 0-1.1 1h-3.3a1 1 0 0 0-1.1-1h-3.3a1 1 0 0 0-1.2 1H325a1 1 0 0 0-1-1h-3.4a1 1 0 0 0-1.1 1h-3.3a1 1 0 0 0-1.1-1h-3.3a1 1 0 0 0-1.2 1h-3.3a1 1 0 0 0-1-1h-3.4a1 1 0 0 0-1.1 1h-3.3a1 1 0 0 0-1.1-1H294a1 1 0 0 0-1.2 1h-3.3a1 1 0 0 0-1-1H285a1 1 0 0 0-1.1 1h-3.3a1 1 0 0 0-1.1-1h-3.3a1 1 0 0 0-1.2 1h-3.3a1 1 0 0 0-1-1h-3.4a1 1 0 0 0-1.1 1H263a1 1 0 0 0-1.1-1h-3.3a1 1 0 0 0-1.2 1H247a3.3 3.3 0 0 0-2.3 5.7q1 1 2.3 1h115a3.3 3.3 0 0 0 2.4-5.7q-1-1-2.3-1"/>
    <path fill="#f2f2f2" d="M229.8 233.6v22h-55.2a11 11 0 0 1-11.4-11 11 11 0 0 1 11.4-11z"/>
    <path fill="#1a1851" d="M231.2 255.4a1 1 0 0 1-.9.9h-56.7a11.6 11.6 0 0 1-11.6-11.6 11.6 11.6 0 0 1 11.6-11.6h56.7a1 1 0 0 1 .9.9 1 1 0 0 1-.9.8h-56.7a10 10 0 0 0-9.9 9.9 10 10 0 0 0 10 9.9h56.6a1 1 0 0 1 .9.8"/>
    <path fill="#ccc" d="M229.8 238.7h-59.4v-.3H230v.2m-.2 4.1h-59.4v-.2l.1-.1h59.3l.2.2zm0 4.1h-59.4v-.3H230v.3m-.2 4.1h-59.4v-.3h59.5v.2"/>
    <path fill="#f2f2f2" d="M219.4 210.5v22h-55.2a11 11 0 0 1-11.4-11 11 11 0 0 1 11.4-11z"/>
    <path fill="#3f3d56" d="M220.8 232.3a1 1 0 0 1-.9.8h-56.7a11.6 11.6 0 0 1-11.6-11.6 11.6 11.6 0 0 1 11.6-11.5H220a.8.8 0 0 1 .6 1.4q-.2.3-.6.3h-56.7a10 10 0 0 0-9.9 9.8 10 10 0 0 0 10 10H220a1 1 0 0 1 .9.8"/>
    <path fill="#ccc" d="M219.4 215.5H160v-.3h59.6v.3m-.2 4.1H160v-.3h59.5v.2m-.1 4.2h-59.3l-.1-.1v-.2h59.4zm0 4h-59.3l-.2-.1v-.1l.1-.1h59.4zm64.2 106v-19.2a3 3 0 0 0-3.2-3.2h-72.8a3 3 0 0 0-3.2 3.2v19.2zm0 7.2h-79.2v24.7h79.2zm-79.2 31.9v19.1a3 3 0 0 0 3.2 3.2h72.8a3 3 0 0 0 3.2-3.2v-19.1z"/>
    <path fill="#fff" d="M243.6 325.7a2.4 2.4 0 1 0 0-4.8 2.4 2.4 0 0 0 0 4.8m0 31.9a2.4 2.4 0 1 0 0-4.8 2.4 2.4 0 0 0 0 4.8m.1 31.3a2.4 2.4 0 1 0 0-4.8 2.4 2.4 0 0 0 0 4.8"/>
    <path fill="#f2f2f2" d="M274.7 289.5v22h-55.2a11 11 0 0 1-11.5-11 11 11 0 0 1 11.5-11z"/>
    <path fill="#3f3d56" d="M276 311.3a1 1 0 0 1-.8.8h-56.7a11.7 11.7 0 0 1-11.7-11.5 11.5 11.5 0 0 1 11.7-11.6h56.7a1 1 0 0 1 .8.8 1 1 0 0 1-.8.9h-56.7a10 10 0 0 0-10 9.9 10 10 0 0 0 10 9.8h56.7a1 1 0 0 1 .8.9"/>
    <path fill="#ccc" d="M274.7 294.6h-59.4l-.1-.2v-.1h59.5zm0 4h-59.5v-.3h59.5zm0 4.1h-59.4l-.1-.1v-.2h59.5l.1.1zm0 4h-59.5v-.3h59.5l.1.2z"/>
    <path fill="#e6e6e6" d="M200.2 146V6a6 6 0 0 1 6-6h111.1a6 6 0 0 1 6 6v140a6 6 0 0 1-6 6h-111a6 6 0 0 1-6-6m6-144.7a4.7 4.7 0 0 0-4.6 4.7v140a4.7 4.7 0 0 0 4.7 4.8h111a4.7 4.7 0 0 0 4.7-4.7V6a4.7 4.7 0 0 0-4.7-4.7z"/>
    <path fill="#1a1851" d="M268 64.3V35.6a3 3 0 0 1 3-3h24.5a3 3 0 0 1 3 3v28.7a3 3 0 0 1-3 3H271a3 3 0 0 1-3-3"/>
    <path fill="#ccc" d="M220.5 77.7V48.9a3 3 0 0 1 3-3H248a3 3 0 0 1 3 3v28.8a3 3 0 0 1-3 3h-24.5a3 3 0 0 1-3-3"/>
    <path fill="#fcb315" d="M258.6 118.4V89.6a3 3 0 0 1 3-3h24.5a3 3 0 0 1 3 3v28.8a3 3 0 0 1-3 3h-24.4a3 3 0 0 1-3-3"/>
    <path fill="#3f3d56" d="M404.7 249.9h-25.1l-.7.1-6.3 3.2a1.2 1.2 0 0 0 0 2.1l6.3 3.2.7.1h25.1a1.3 1.3 0 0 0 1.4-1.2v-6.3a1.3 1.3 0 0 0-1.4-1.2"/>
    <path fill="#1a1851" d="M406.1 251v6.4a1.3 1.3 0 0 1-1.4 1.3h-5v-8.8h5a1.3 1.3 0 0 1 1.4 1.2"/>
    <path fill="#ffb8b8" d="M404.6 202.5a8.8 8.8 0 0 1 12.1 6.6l35.2 17.4 8.1-5.4 10.2 11.7-12.5 10a9 9 0 0 1-10.6.4l-35.7-24.6a8 8 0 0 1-4.5.6 9 9 0 0 1-7.7-8.2 9 9 0 0 1 5.4-8.5"/>
    <path fill="#3f3d56" d="M477.8 309.5h-38.4c0 1.1-39.6 2-39.6 2q-1 .7-1.7 1.6a10 10 0 0 0-2.3 6.4v1.6a10 10 0 0 0 10 10h72a10 10 0 0 0 10-10v-1.6a10 10 0 0 0-10-10"/>
    <path fill="#3f3d56" d="M436 397.7h10.4v-67H436z"/>
    <path fill="#3f3d56" d="M406.4 397.4c0 1 15.8.4 35.2.4s35.2.7 35.2-.4-15.7-10-35.2-10c-19.4 0-35.2 8.9-35.2 10"/>
    <path fill="#ffb8b8" d="M415.8 389.5H406l-4.7-25.4h14.5z"/>
    <path fill="#2f2e41" d="M418.3 399h-31.7v-.4a12 12 0 0 1 12.4-12.3h19.3zm-17.2-25.2L381.5 330a16 16 0 0 1 7.1-20.6l42.4-22.6 19.4-1.7 17.9-1.6.1.2c.2.3 4 7 1.4 14.2q-3 8.3-15.2 12.7a595 595 0 0 1-50.5 15.6 3 3 0 0 0-1 2v1.2l18.3 40.7a3.6 3.6 0 0 1-3 4.8l-13.7 1a4 4 0 0 1-2.3-.6q-.9-.6-1.3-1.5"/>
    <path fill="#ffb8b8" d="M420.6 389.5h-9.8l-4.7-25.4h14.5z"/>
    <path fill="#2f2e41" d="M423 399h-31.6v-.4a12.3 12.3 0 0 1 12.4-12.3H423zm-16.3-22.8-19.6-43.8a16 16 0 0 1 7.1-20.6l42.4-22.6 19.4-1.7 18-1.5.1.2c.2.3 4 6.9 1.4 14.2q-3 8.3-15.2 12.7a594 594 0 0 1-50.5 15.6 3 3 0 0 0-1 2v1.2l18.3 40.7a3.6 3.6 0 0 1-1.5 4.3q-.7.4-1.6.5l-13.6 1a4 4 0 0 1-3.6-2.1"/>
    <path fill="#ccc" d="M397 242.5q-12.5-16.5-19.3-35.8a3.4 3.4 0 0 1 1.6-4.2l28.1-15a3.4 3.4 0 0 1 4.3.8q.5.6.7 1.4a82 82 0 0 0 18 33.4 3.4 3.4 0 0 1-1 5.3l-28 15a3.5 3.5 0 0 1-4.4-.9"/>
    <path fill="#fff" d="M398.9 241a1 1 0 0 0 1.3.4l28.1-15a1 1 0 0 0 .5-.8 1 1 0 0 0-.2-.9 84 84 0 0 1-18.7-34.8 1 1 0 0 0-.9-.4l-.4.1-28.2 15a1 1 0 0 0-.5 1.3 131 131 0 0 0 19 35.2"/>
    <path fill="#1a1851" d="m490.4 238.5-22 8.4-5.4-15a9 9 0 0 1 10.1-11.7 9 9 0 0 1 5.3 3.2z"/>
    <path fill="#1a1851" d="M434.4 297.6a4 4 0 0 1-1.7-2.9c-2.8-26.2-.8-46.8 6-62.8a20 20 0 0 1 13.3-11.3l17.8-1v.1a21 21 0 0 1 11.5 22c-5.8 15-10.6 30.8-6.9 43.4a4 4 0 0 1-1.4 4.4l-1.5.6-33.9 8a4 4 0 0 1-3.2-.5"/>
    <path fill="#ffb8b8" d="M463.9 213a19.6 19.6 0 1 0 0-39.2 19.6 19.6 0 0 0 0 39.2"/>
    <path fill="#ccc" d="m409.3 209-15.3 6.7a2.4 2.4 0 0 1-3.2-1.2l-.4-.9a2.4 2.4 0 0 1 1.2-3.1l15.4-6.8a2.4 2.4 0 0 1 3.1 1.2l.4.9a2.4 2.4 0 0 1-1.2 3.1m5.6 10.4-15.3 6.8a2.4 2.4 0 0 1-3.2-1.3l-.4-.8a2.4 2.4 0 0 1 1.3-3.2l15.3-6.7a2.4 2.4 0 0 1 3.1 1.2l.4.9a2.4 2.4 0 0 1-1.2 3.1"/>
    <path fill="#ffb8b8" d="m426.7 259.9-34.2-27a8.8 8.8 0 1 1 1.4-16 9 9 0 0 1 4.6 7l34 19.5 8.4-4.9 9.4 12.3-13.1 9.3a9 9 0 0 1-10.5-.2"/>
    <path fill="#1a1851" d="M454.5 254.6 435 241.4l9.1-13a9 9 0 0 1 16 7.7z"/>
    <path fill="#2f2e41" d="M456.6 190.5c-5 3.4-11.6 7-16.8 3.3a9 9 0 0 1-3-10.8c2.4-7 9.2-10.1 15.7-12.5 8.4-3 17.6-5.6 26.3-3.3s16.4 10.6 14.9 19.4c-1.3 7.1-8 13-7 20.2s9 11 16.2 12.2c7.1 1.3 15.1 1.7 20.3 6.9 6.6 6.5 5 18.2-1.3 25.1a46 46 0 0 1-24.5 12.2c-12 2.8-25 4.3-36.3-.4-11.4-4.7-20.2-17.3-17-29 1.5-5 4.8-9.3 8-13.4a37 37 0 0 0 7.5-13.5c1-4.2.3-9-2.5-12.2a4 4 0 0 1-.5-4.1z"/>
    <path fill="#e6e6e6" d="M87.3 285.8a31 31 0 0 1-30.2-5.4c-10.6-8.8-13.9-23.4-16.6-36.9l-8-40L49.3 215c12 8.3 24.3 16.8 32.6 28.8s12 28.2 5.2 41.1"/>
    <path fill="#f2f2f2" d="M85.9 334.1c1.7-12.3 3.4-24.7 2.2-37.1-1-11-4.4-21.8-11.3-30.7a51 51 0 0 0-13-11.8c-1.4-.8-2.6 1.3-1.3 2a49 49 0 0 1 19.2 23.2A77 77 0 0 1 86 313q-.9 10.2-2.3 20.4a1 1 0 0 0 .8 1.4 1.2 1.2 0 0 0 1.5-.8"/>
    <path fill="#e6e6e6" d="M69.6 312.4a23 23 0 0 1-20 10.3c-10.2-.5-18.7-7.6-26.3-14.3L.8 288.6l14.9-.7c10.7-.5 21.7-1 32 2.3 10.2 3.3 19.6 11.2 21.4 21.8"/>
    <path fill="#f2f2f2" d="M90.7 341.2c-8.2-14.4-17.6-30.4-34.5-35.5q-7.1-2.1-14.5-1.4c-1.5 0-1.1 2.5.4 2.3 8.2-.7 16.4 1.5 23.1 6.1a60 60 0 0 1 16 17.1q3.9 6 7.3 12.3c.7 1.4 3 .4 2.2-1"/>
    <path fill="#f2f2f2" d="M103.7 356.3A17 17 0 0 0 93 341.7v-8.3H79v8.6a17 17 0 0 0-10 14.3l-3.3 38H107z"/>
  </g>
  <defs>
    <clipPath id="a">
      <path fill="#fff" d="M0 0h554v399H0z"/>
    </clipPath>
  </defs>
</svg>
