<svg width="554" height="399" viewBox="0 0 554 399" fill="none" xmlns="http://www.w3.org/2000/svg">
<g clip-path="url(#clip0_130_10)">
<path d="M553.199 395.94H0.800578C0.588252 395.94 0.384621 395.856 0.234483 395.706C0.0843458 395.557 0 395.354 0 395.142C0 394.93 0.0843458 394.727 0.234483 394.577C0.384621 394.428 0.588252 394.344 0.800578 394.344H553.199C553.412 394.344 553.615 394.428 553.766 394.577C553.916 394.727 554 394.93 554 395.142C554 395.354 553.916 395.557 553.766 395.706C553.615 395.856 553.412 395.94 553.199 395.94Z" fill="#CCCCCC"/>
<path d="M498.523 256.733H173.489C172.109 256.733 170.785 257.28 169.809 258.253C168.833 259.226 168.285 260.545 168.285 261.921C168.285 263.297 168.833 264.617 169.809 265.59C170.785 266.563 172.109 267.11 173.489 267.11H182.695V391.229C182.695 392.605 183.244 393.925 184.22 394.898C185.195 395.871 186.519 396.418 187.899 396.418C189.279 396.418 190.603 395.871 191.579 394.898C192.555 393.925 193.103 392.605 193.103 391.229L193.182 267.11H478.109V391.229C478.109 392.605 478.657 393.925 479.633 394.898C480.609 395.871 481.932 396.418 483.312 396.418C484.693 396.418 486.016 395.871 486.992 394.898C487.968 393.925 488.516 392.605 488.516 391.229V269.845L490.03 267.11H498.523C499.904 267.11 501.227 266.563 502.203 265.59C503.179 264.617 503.727 263.297 503.727 261.921C503.727 260.545 503.179 259.226 502.203 258.253C501.227 257.28 499.904 256.733 498.523 256.733Z" fill="#CCCCCC"/>
<path d="M353.691 259.448H255.234C253.328 259.446 251.5 258.69 250.152 257.346C248.804 256.002 248.046 254.18 248.043 252.279V198.234C248.046 196.333 248.804 194.511 250.152 193.167C251.5 191.823 253.328 191.067 255.234 191.065H353.691C355.597 191.067 357.425 191.823 358.773 193.167C360.121 194.511 360.879 196.333 360.881 198.234V252.279C360.879 254.18 360.121 256.002 358.773 257.346C357.425 258.69 355.597 259.446 353.691 259.448Z" fill="#3F3D56"/>
<path d="M353.69 196.582H255.235C254.795 196.583 254.374 196.758 254.064 197.067C253.753 197.377 253.579 197.797 253.578 198.235V252.28C253.579 252.718 253.753 253.138 254.064 253.448C254.375 253.757 254.795 253.932 255.235 253.933H353.69C354.129 253.932 354.55 253.757 354.861 253.448C355.171 253.138 355.346 252.718 355.347 252.28V198.235C355.346 197.797 355.171 197.377 354.861 197.067C354.55 196.758 354.129 196.583 353.69 196.582Z" fill="white"/>
<path d="M312.859 234.846C312.859 234.846 301.073 232.139 294.591 237.103C288.108 242.067 302.841 253.35 302.841 253.35L312.859 234.846Z" fill="#2F2E41"/>
<path d="M305.04 229.73C311.18 229.73 316.157 224.767 316.157 218.645C316.157 212.524 311.18 207.561 305.04 207.561C298.899 207.561 293.922 212.524 293.922 218.645C293.922 224.767 298.899 229.73 305.04 229.73Z" fill="#A0616A"/>
<path d="M296.443 203.085C297.184 201.831 298.259 200.805 299.548 200.121C300.837 199.437 302.291 199.121 303.749 199.209C305.274 199.4 306.762 199.815 308.165 200.442L315.433 203.268C317.313 204 319.373 204.896 320.189 206.737C320.946 208.445 320.381 210.418 319.809 212.197L317.09 220.653C316.789 218.739 316.272 216.865 315.549 215.067C314.815 213.257 313.487 211.748 311.783 210.786C309.895 209.82 307.67 209.84 305.551 209.942C302.549 210.086 299.286 210.467 297.153 212.577C296.021 213.776 295.254 215.271 294.94 216.887C294.631 218.495 294.476 220.128 294.476 221.765C293.245 219.656 292.208 217.44 291.378 215.144C290.695 213.435 290.306 211.623 290.227 209.784C290.156 207.93 290.773 206.115 291.96 204.686C292.563 203.988 293.349 203.472 294.23 203.195C295.112 202.918 296.053 202.893 296.948 203.121L296.443 203.085Z" fill="#2F2E41"/>
<path d="M331.586 244.458C331.481 244.084 331.268 243.748 330.974 243.494C330.679 243.24 330.315 243.078 329.929 243.029C329.903 243.012 329.876 242.996 329.849 242.981L313.252 233.708C312.778 233.443 312.22 233.371 311.693 233.506C311.167 233.641 310.714 233.973 310.427 234.433L305.888 241.76L299.051 234.944L298.942 234.835C298.591 234.485 298.128 234.27 297.633 234.227C297.139 234.184 296.645 234.316 296.239 234.6L282.599 244.123C282.575 244.123 282.55 244.131 282.527 244.131C281.874 244.239 281.278 244.567 280.837 245.059C280.395 245.551 280.136 246.178 280.101 246.837L279.748 253.933H334.22L331.586 244.458Z" fill="#1A1851"/>
<path d="M361.988 252.831H351.478C351.478 252.538 351.362 252.257 351.154 252.051C350.947 251.844 350.665 251.728 350.372 251.728H347.053C346.76 251.728 346.478 251.844 346.271 252.051C346.063 252.257 345.947 252.538 345.947 252.831H342.628C342.628 252.538 342.512 252.257 342.304 252.051C342.097 251.844 341.815 251.728 341.522 251.728H338.203C337.91 251.728 337.628 251.844 337.421 252.051C337.213 252.257 337.097 252.538 337.097 252.831H333.778C333.778 252.538 333.661 252.257 333.454 252.051C333.247 251.844 332.965 251.728 332.672 251.728H329.353C329.06 251.728 328.778 251.844 328.571 252.051C328.363 252.257 328.247 252.538 328.247 252.831H324.928C324.928 252.538 324.811 252.257 324.604 252.051C324.397 251.844 324.115 251.728 323.822 251.728H320.503C320.21 251.728 319.928 251.844 319.721 252.051C319.513 252.257 319.397 252.538 319.397 252.831H316.078C316.078 252.538 315.961 252.257 315.754 252.051C315.547 251.844 315.265 251.728 314.972 251.728H311.653C311.36 251.728 311.078 251.844 310.871 252.051C310.663 252.257 310.547 252.538 310.547 252.831H307.228C307.228 252.538 307.111 252.257 306.904 252.051C306.696 251.844 306.415 251.728 306.122 251.728H302.803C302.51 251.728 302.228 251.844 302.021 252.051C301.813 252.257 301.697 252.538 301.697 252.831H298.378C298.378 252.538 298.261 252.257 298.054 252.051C297.846 251.844 297.565 251.728 297.272 251.728H293.953C293.66 251.728 293.378 251.844 293.171 252.051C292.963 252.257 292.847 252.538 292.847 252.831H289.528C289.528 252.538 289.411 252.257 289.204 252.051C288.996 251.844 288.715 251.728 288.422 251.728H285.103C284.81 251.728 284.528 251.844 284.321 252.051C284.113 252.257 283.997 252.538 283.997 252.831H280.678C280.678 252.538 280.561 252.257 280.354 252.051C280.146 251.844 279.865 251.728 279.572 251.728H276.253C275.959 251.728 275.678 251.844 275.471 252.051C275.263 252.257 275.147 252.538 275.147 252.831H271.828C271.828 252.538 271.711 252.257 271.504 252.051C271.296 251.844 271.015 251.728 270.722 251.728H267.403C267.109 251.728 266.828 251.844 266.621 252.051C266.413 252.257 266.297 252.538 266.297 252.831H262.978C262.978 252.538 262.861 252.257 262.654 252.051C262.446 251.844 262.165 251.728 261.872 251.728H258.553C258.259 251.728 257.978 251.844 257.771 252.051C257.563 252.257 257.447 252.538 257.447 252.831H246.937C246.058 252.832 245.215 253.181 244.594 253.802C243.972 254.422 243.624 255.263 243.624 256.139C243.624 257.016 243.972 257.857 244.594 258.477C245.215 259.098 246.058 259.447 246.937 259.448H361.988C362.868 259.448 363.712 259.1 364.334 258.479C364.957 257.859 365.306 257.017 365.306 256.139C365.306 255.262 364.957 254.42 364.334 253.8C363.712 253.179 362.868 252.831 361.988 252.831Z" fill="#3F3D56"/>
<path d="M229.829 233.615V255.586H174.62C173.14 255.637 171.666 255.391 170.284 254.862C168.902 254.333 167.642 253.532 166.577 252.507C165.512 251.482 164.666 250.253 164.087 248.895C163.509 247.537 163.211 246.076 163.211 244.6C163.211 243.125 163.509 241.664 164.087 240.306C164.666 238.947 165.512 237.719 166.577 236.694C167.642 235.669 168.902 234.868 170.284 234.339C171.666 233.81 173.14 233.564 174.62 233.615H229.829Z" fill="#F2F2F2"/>
<path d="M231.185 255.417C231.185 255.641 231.096 255.856 230.937 256.014C230.778 256.173 230.563 256.262 230.338 256.262H173.636C170.557 256.262 167.603 255.042 165.426 252.871C163.248 250.7 162.025 247.755 162.025 244.685C162.025 241.614 163.248 238.67 165.426 236.499C167.603 234.328 170.557 233.108 173.636 233.108H230.338C230.563 233.108 230.778 233.197 230.937 233.355C231.096 233.514 231.185 233.729 231.185 233.953C231.185 234.177 231.096 234.392 230.937 234.55C230.778 234.709 230.563 234.798 230.338 234.798H173.636C171.008 234.8 168.488 235.843 166.63 237.697C164.772 239.551 163.729 242.064 163.729 244.685C163.729 247.305 164.772 249.819 166.63 251.673C168.488 253.527 171.008 254.569 173.636 254.572H230.338C230.563 254.572 230.778 254.661 230.937 254.819C231.096 254.978 231.185 255.193 231.185 255.417Z" fill="#1A1851"/>
<path d="M229.829 238.685H170.5C170.478 238.685 170.456 238.681 170.435 238.673C170.414 238.664 170.395 238.652 170.38 238.636C170.364 238.62 170.351 238.602 170.342 238.581C170.334 238.56 170.329 238.538 170.329 238.516C170.329 238.494 170.334 238.472 170.342 238.451C170.351 238.431 170.364 238.412 170.38 238.396C170.395 238.38 170.414 238.368 170.435 238.36C170.456 238.351 170.478 238.347 170.5 238.347H229.829C229.874 238.347 229.917 238.365 229.948 238.397C229.98 238.429 229.998 238.471 229.998 238.516C229.998 238.561 229.98 238.604 229.948 238.635C229.917 238.667 229.874 238.685 229.829 238.685Z" fill="#CCCCCC"/>
<path d="M229.829 242.741H170.5C170.478 242.741 170.456 242.737 170.435 242.729C170.414 242.72 170.395 242.708 170.38 242.692C170.364 242.676 170.351 242.658 170.342 242.637C170.334 242.617 170.329 242.595 170.329 242.572C170.329 242.55 170.334 242.528 170.342 242.507C170.351 242.487 170.364 242.468 170.38 242.452C170.395 242.437 170.414 242.424 170.435 242.416C170.456 242.407 170.478 242.403 170.5 242.403H229.829C229.874 242.404 229.917 242.421 229.948 242.453C229.98 242.485 229.998 242.528 229.998 242.572C229.998 242.617 229.98 242.66 229.948 242.691C229.917 242.723 229.874 242.741 229.829 242.741Z" fill="#CCCCCC"/>
<path d="M229.829 246.797H170.5C170.478 246.798 170.456 246.793 170.435 246.785C170.414 246.776 170.395 246.764 170.38 246.748C170.364 246.733 170.351 246.714 170.342 246.693C170.334 246.673 170.329 246.651 170.329 246.628C170.329 246.606 170.334 246.584 170.342 246.563C170.351 246.543 170.364 246.524 170.38 246.508C170.395 246.493 170.414 246.48 170.435 246.472C170.456 246.464 170.478 246.459 170.5 246.459H229.829C229.874 246.46 229.917 246.478 229.948 246.509C229.98 246.541 229.998 246.584 229.998 246.628C229.998 246.673 229.98 246.716 229.948 246.748C229.917 246.779 229.874 246.797 229.829 246.797Z" fill="#CCCCCC"/>
<path d="M229.829 250.854H170.5C170.478 250.854 170.456 250.85 170.435 250.841C170.414 250.833 170.395 250.82 170.38 250.805C170.364 250.789 170.351 250.77 170.342 250.75C170.334 250.729 170.329 250.707 170.329 250.685C170.329 250.662 170.334 250.64 170.342 250.62C170.351 250.599 170.364 250.58 170.38 250.565C170.395 250.549 170.414 250.537 170.435 250.528C170.456 250.52 170.478 250.515 170.5 250.516H229.829C229.874 250.516 229.917 250.534 229.948 250.566C229.98 250.597 229.998 250.64 229.998 250.685C229.998 250.729 229.98 250.772 229.948 250.804C229.917 250.835 229.874 250.853 229.829 250.854Z" fill="#CCCCCC"/>
<path d="M219.422 210.467V232.438H164.212C162.733 232.489 161.258 232.243 159.877 231.714C158.495 231.185 157.234 230.384 156.17 229.359C155.105 228.334 154.258 227.106 153.68 225.747C153.102 224.389 152.804 222.928 152.804 221.453C152.804 219.977 153.102 218.516 153.68 217.158C154.258 215.8 155.105 214.571 156.17 213.546C157.234 212.521 158.495 211.72 159.877 211.191C161.258 210.662 162.733 210.416 164.212 210.467H219.422Z" fill="#F2F2F2"/>
<path d="M220.778 232.269C220.778 232.493 220.688 232.708 220.53 232.867C220.371 233.025 220.155 233.114 219.93 233.114H163.229C161.704 233.114 160.194 232.815 158.785 232.233C157.376 231.651 156.096 230.798 155.018 229.723C153.94 228.648 153.085 227.372 152.501 225.967C151.918 224.563 151.617 223.057 151.617 221.537C151.617 220.017 151.918 218.511 152.501 217.107C153.085 215.702 153.94 214.426 155.018 213.351C156.096 212.276 157.376 211.423 158.785 210.841C160.194 210.26 161.704 209.96 163.229 209.96H219.93C220.155 209.96 220.371 210.049 220.53 210.208C220.689 210.366 220.778 210.581 220.778 210.805C220.778 211.029 220.689 211.244 220.53 211.403C220.371 211.561 220.155 211.65 219.93 211.65H163.229C160.6 211.653 158.08 212.695 156.223 214.549C154.365 216.403 153.321 218.917 153.321 221.537C153.321 224.158 154.365 226.671 156.223 228.525C158.08 230.379 160.6 231.422 163.229 231.424H219.93C220.155 231.424 220.371 231.513 220.529 231.672C220.688 231.83 220.778 232.045 220.778 232.269Z" fill="#3F3D56"/>
<path d="M219.422 215.537H160.093C160.07 215.538 160.048 215.533 160.027 215.525C160.007 215.516 159.988 215.504 159.972 215.488C159.956 215.473 159.944 215.454 159.935 215.433C159.926 215.413 159.922 215.391 159.922 215.368C159.922 215.346 159.926 215.324 159.935 215.303C159.944 215.283 159.956 215.264 159.972 215.248C159.988 215.233 160.007 215.22 160.027 215.212C160.048 215.203 160.07 215.199 160.093 215.199H219.422C219.466 215.2 219.509 215.218 219.541 215.249C219.572 215.281 219.59 215.324 219.59 215.368C219.59 215.413 219.572 215.456 219.541 215.487C219.509 215.519 219.466 215.537 219.422 215.537Z" fill="#CCCCCC"/>
<path d="M219.422 219.594H160.093C160.07 219.594 160.048 219.589 160.027 219.581C160.007 219.573 159.988 219.56 159.972 219.544C159.956 219.529 159.944 219.51 159.935 219.49C159.926 219.469 159.922 219.447 159.922 219.425C159.922 219.402 159.926 219.38 159.935 219.36C159.944 219.339 159.956 219.32 159.972 219.305C159.988 219.289 160.007 219.277 160.027 219.268C160.048 219.26 160.07 219.255 160.093 219.256H219.422C219.466 219.256 219.509 219.274 219.541 219.305C219.572 219.337 219.59 219.38 219.59 219.425C219.59 219.469 219.572 219.512 219.541 219.544C219.509 219.575 219.466 219.593 219.422 219.594Z" fill="#CCCCCC"/>
<path d="M219.422 223.65H160.093C160.07 223.65 160.048 223.646 160.027 223.637C160.007 223.629 159.988 223.616 159.972 223.601C159.956 223.585 159.944 223.566 159.935 223.546C159.926 223.525 159.922 223.503 159.922 223.481C159.922 223.458 159.926 223.436 159.935 223.416C159.944 223.395 159.956 223.377 159.972 223.361C159.988 223.345 160.007 223.333 160.027 223.324C160.048 223.316 160.07 223.312 160.093 223.312H219.422C219.466 223.312 219.509 223.33 219.541 223.362C219.572 223.393 219.59 223.436 219.59 223.481C219.59 223.525 219.572 223.568 219.541 223.6C219.509 223.631 219.466 223.649 219.422 223.65Z" fill="#CCCCCC"/>
<path d="M219.422 227.706H160.093C160.07 227.706 160.048 227.702 160.027 227.693C160.007 227.685 159.988 227.673 159.972 227.657C159.956 227.641 159.944 227.622 159.935 227.602C159.926 227.581 159.922 227.559 159.922 227.537C159.922 227.515 159.926 227.493 159.935 227.472C159.944 227.451 159.956 227.433 159.972 227.417C159.988 227.401 160.007 227.389 160.027 227.38C160.048 227.372 160.07 227.368 160.093 227.368H219.422C219.466 227.368 219.509 227.386 219.541 227.418C219.572 227.449 219.59 227.492 219.59 227.537C219.59 227.582 219.572 227.624 219.541 227.656C219.509 227.688 219.466 227.706 219.422 227.706Z" fill="#CCCCCC"/>
<path d="M283.647 333.681V314.524C283.647 313.677 283.31 312.865 282.709 312.266C282.109 311.668 281.294 311.331 280.445 311.331H207.592C206.743 311.331 205.929 311.668 205.328 312.266C204.728 312.865 204.39 313.677 204.39 314.524V333.681H283.647Z" fill="#CCCCCC"/>
<path d="M283.647 340.864H204.39V365.608H283.647V340.864Z" fill="#CCCCCC"/>
<path d="M204.39 372.792V391.949C204.39 392.796 204.728 393.608 205.328 394.207C205.929 394.805 206.743 395.142 207.592 395.142H280.445C281.294 395.142 282.109 394.805 282.709 394.207C283.31 393.608 283.647 392.796 283.647 391.949V372.792H204.39Z" fill="#CCCCCC"/>
<path d="M243.618 325.699C244.945 325.699 246.02 324.627 246.02 323.304C246.02 321.982 244.945 320.91 243.618 320.91C242.292 320.91 241.217 321.982 241.217 323.304C241.217 324.627 242.292 325.699 243.618 325.699Z" fill="white"/>
<path d="M243.618 357.627C244.945 357.627 246.02 356.554 246.02 355.232C246.02 353.909 244.945 352.837 243.618 352.837C242.292 352.837 241.217 353.909 241.217 355.232C241.217 356.554 242.292 357.627 243.618 357.627Z" fill="white"/>
<path d="M243.747 388.878C245.074 388.878 246.149 387.806 246.149 386.484C246.149 385.161 245.074 384.089 243.747 384.089C242.421 384.089 241.345 385.161 241.345 386.484C241.345 387.806 242.421 388.878 243.747 388.878Z" fill="white"/>
<path d="M274.662 289.489V311.46H219.452C217.973 311.511 216.498 311.265 215.117 310.736C213.735 310.207 212.474 309.406 211.409 308.381C210.345 307.356 209.498 306.127 208.92 304.769C208.342 303.41 208.044 301.95 208.044 300.474C208.044 298.999 208.342 297.538 208.92 296.18C209.498 294.821 210.345 293.593 211.409 292.568C212.474 291.542 213.735 290.741 215.117 290.213C216.498 289.684 217.973 289.437 219.452 289.489H274.662Z" fill="#F2F2F2"/>
<path d="M276.018 311.291C276.018 311.515 275.928 311.73 275.769 311.888C275.61 312.046 275.395 312.135 275.17 312.136H218.469C216.943 312.137 215.432 311.838 214.022 311.257C212.612 310.676 211.331 309.823 210.252 308.748C209.172 307.673 208.316 306.396 207.732 304.991C207.148 303.586 206.847 302.08 206.847 300.559C206.847 299.037 207.148 297.531 207.732 296.126C208.316 294.721 209.172 293.444 210.252 292.369C211.331 291.294 212.612 290.441 214.022 289.86C215.432 289.279 216.943 288.98 218.469 288.982H275.17C275.395 288.982 275.61 289.071 275.769 289.229C275.928 289.388 276.018 289.602 276.018 289.827C276.018 290.051 275.928 290.266 275.769 290.424C275.61 290.583 275.395 290.672 275.17 290.672H218.469C215.84 290.674 213.32 291.717 211.462 293.571C209.605 295.424 208.561 297.938 208.561 300.559C208.561 303.179 209.605 305.693 211.462 307.547C213.32 309.4 215.84 310.443 218.469 310.445H275.17C275.395 310.446 275.61 310.535 275.769 310.693C275.928 310.852 276.018 311.066 276.018 311.291Z" fill="#3F3D56"/>
<path d="M274.662 294.559H215.333C215.31 294.559 215.288 294.555 215.267 294.546C215.247 294.538 215.228 294.525 215.212 294.51C215.196 294.494 215.183 294.475 215.175 294.455C215.166 294.434 215.162 294.412 215.162 294.39C215.162 294.368 215.166 294.345 215.175 294.325C215.183 294.304 215.196 294.286 215.212 294.27C215.228 294.254 215.247 294.242 215.267 294.233C215.288 294.225 215.31 294.221 215.333 294.221H274.662C274.706 294.221 274.749 294.239 274.781 294.271C274.812 294.302 274.83 294.345 274.83 294.39C274.83 294.434 274.812 294.477 274.781 294.509C274.749 294.541 274.706 294.559 274.662 294.559Z" fill="#CCCCCC"/>
<path d="M274.662 298.615H215.333C215.31 298.615 215.288 298.611 215.267 298.603C215.247 298.594 215.228 298.582 215.212 298.566C215.196 298.55 215.183 298.532 215.175 298.511C215.166 298.49 215.162 298.468 215.162 298.446C215.162 298.424 215.166 298.402 215.175 298.381C215.183 298.361 215.196 298.342 215.212 298.326C215.228 298.31 215.247 298.298 215.267 298.29C215.288 298.281 215.31 298.277 215.333 298.277H274.662C274.706 298.277 274.749 298.295 274.781 298.327C274.812 298.359 274.83 298.401 274.83 298.446C274.83 298.491 274.812 298.534 274.781 298.565C274.749 298.597 274.706 298.615 274.662 298.615Z" fill="#CCCCCC"/>
<path d="M274.662 302.671H215.333C215.31 302.671 215.288 302.667 215.267 302.659C215.247 302.65 215.228 302.638 215.212 302.622C215.196 302.606 215.183 302.588 215.175 302.567C215.166 302.547 215.162 302.525 215.162 302.502C215.162 302.48 215.166 302.458 215.175 302.437C215.183 302.417 215.196 302.398 215.212 302.382C215.228 302.367 215.247 302.354 215.267 302.346C215.288 302.337 215.31 302.333 215.333 302.333H274.662C274.706 302.334 274.749 302.351 274.781 302.383C274.812 302.415 274.83 302.458 274.83 302.502C274.83 302.547 274.812 302.59 274.781 302.621C274.749 302.653 274.706 302.671 274.662 302.671Z" fill="#CCCCCC"/>
<path d="M274.662 306.727H215.333C215.31 306.728 215.288 306.723 215.267 306.715C215.247 306.706 215.228 306.694 215.212 306.678C215.196 306.663 215.183 306.644 215.175 306.623C215.166 306.603 215.162 306.581 215.162 306.558C215.162 306.536 215.166 306.514 215.175 306.493C215.183 306.473 215.196 306.454 215.212 306.438C215.228 306.423 215.247 306.41 215.267 306.402C215.288 306.393 215.31 306.389 215.333 306.389H274.662C274.706 306.39 274.749 306.408 274.781 306.439C274.812 306.471 274.83 306.514 274.83 306.558C274.83 306.603 274.812 306.646 274.781 306.677C274.749 306.709 274.706 306.727 274.662 306.727Z" fill="#CCCCCC"/>
<path d="M200.233 146.087V6.00359C200.235 4.41189 200.87 2.88591 201.999 1.76041C203.127 0.634917 204.658 0.0018105 206.254 0H317.317C318.914 0.00182104 320.444 0.634932 321.573 1.76043C322.702 2.88592 323.337 4.4119 323.339 6.00359V146.087C323.337 147.679 322.702 149.205 321.573 150.33C320.444 151.456 318.914 152.089 317.317 152.091H206.254C204.658 152.089 203.127 151.456 201.999 150.33C200.87 149.205 200.235 147.679 200.233 146.087ZM206.254 1.33413C205.013 1.33552 203.822 1.82792 202.944 2.70332C202.066 3.57871 201.572 4.7656 201.571 6.00359V146.087C201.572 147.325 202.066 148.512 202.944 149.387C203.822 150.263 205.013 150.755 206.254 150.757H317.317C318.559 150.755 319.75 150.263 320.628 149.387C321.506 148.512 321.999 147.325 322.001 146.087V6.00359C321.999 4.7656 321.506 3.57871 320.628 2.70332C319.75 1.82793 318.559 1.33552 317.317 1.33413H206.254Z" fill="#E6E6E6"/>
<path d="M268.014 64.3328V35.5693C268.015 34.7734 268.332 34.0104 268.897 33.4477C269.461 32.8849 270.226 32.5684 271.025 32.5675H295.472C296.27 32.5684 297.035 32.8849 297.6 33.4477C298.164 34.0104 298.482 34.7734 298.483 35.5693V64.3328C298.482 65.1287 298.164 65.8917 297.6 66.4544C297.035 67.0172 296.27 67.3338 295.472 67.3346H271.025C270.226 67.3338 269.461 67.0172 268.897 66.4544C268.332 65.8917 268.015 65.1287 268.014 64.3328Z" fill="#1A1851"/>
<path d="M220.511 77.6741V48.9106C220.512 48.1147 220.829 47.3517 221.394 46.789C221.958 46.2262 222.724 45.9097 223.522 45.9088H247.969C248.767 45.9097 249.533 46.2262 250.097 46.789C250.661 47.3517 250.979 48.1147 250.98 48.9106V77.6742C250.979 78.47 250.661 79.233 250.097 79.7958C249.533 80.3585 248.767 80.6751 247.969 80.676H223.522C222.724 80.6751 221.958 80.3585 221.394 79.7958C220.829 79.233 220.512 78.47 220.511 77.6741Z" fill="#CCCCCC"/>
<path d="M258.647 118.365V89.6015C258.648 88.8056 258.966 88.0426 259.53 87.4799C260.094 86.9171 260.86 86.6006 261.658 86.5997H286.105C286.903 86.6006 287.669 86.9171 288.233 87.4799C288.798 88.0426 289.115 88.8056 289.116 89.6015V118.365C289.115 119.161 288.798 119.924 288.233 120.487C287.669 121.049 286.903 121.366 286.105 121.367H261.658C260.86 121.366 260.094 121.049 259.53 120.487C258.966 119.924 258.648 119.161 258.647 118.365Z" fill="#FCB315"/>
<path d="M404.743 249.87H379.588C379.35 249.87 379.114 249.924 378.9 250.03L372.551 253.198C372.342 253.287 372.164 253.435 372.039 253.624C371.914 253.812 371.847 254.034 371.847 254.26C371.847 254.486 371.914 254.708 372.039 254.897C372.164 255.085 372.342 255.233 372.551 255.322L378.9 258.491C379.114 258.596 379.35 258.65 379.588 258.65H404.743C405.089 258.67 405.43 258.553 405.691 258.325C405.951 258.096 406.111 257.774 406.136 257.429V251.091C406.111 250.746 405.951 250.424 405.691 250.196C405.43 249.967 405.089 249.85 404.743 249.87Z" fill="#3F3D56"/>
<path d="M406.136 251.091V257.429C406.111 257.774 405.951 258.096 405.691 258.325C405.43 258.553 405.089 258.67 404.743 258.65H399.731V249.87H404.743C405.089 249.85 405.43 249.967 405.691 250.196C405.951 250.424 406.111 250.746 406.136 251.091Z" fill="#1A1851"/>
<path d="M404.553 202.457C405.693 201.967 406.923 201.722 408.164 201.739C409.405 201.756 410.628 202.034 411.753 202.555C412.879 203.076 413.881 203.828 414.695 204.763C415.508 205.697 416.115 206.792 416.474 207.976C416.586 208.352 416.672 208.734 416.731 209.122L451.906 226.513L460.047 221.134L470.176 232.76L457.746 242.825C456.251 244.026 454.408 244.715 452.49 244.788C450.571 244.862 448.68 244.317 447.097 243.235L411.408 218.628C411.143 218.74 410.871 218.839 410.596 218.923C409.408 219.281 408.157 219.385 406.926 219.228C405.695 219.071 404.512 218.656 403.453 218.011C402.394 217.366 401.483 216.505 400.781 215.484C400.079 214.464 399.601 213.307 399.379 212.09C399.313 211.737 399.27 211.38 399.249 211.021C399.15 209.224 399.605 207.44 400.554 205.909C401.502 204.378 402.898 203.173 404.553 202.457Z" fill="#FFB8B8"/>
<path d="M477.818 309.534H439.382C439.382 310.636 399.77 311.53 399.77 311.53C399.148 311.996 398.581 312.532 398.081 313.126C396.576 314.915 395.754 317.177 395.759 319.512V321.108C395.76 323.754 396.814 326.291 398.691 328.162C400.567 330.033 403.112 331.084 405.766 331.085H477.818C480.471 331.083 483.015 330.031 484.892 328.161C486.768 326.29 487.823 323.753 487.825 321.108V319.512C487.822 316.866 486.766 314.331 484.89 312.46C483.014 310.59 480.471 309.538 477.818 309.534Z" fill="#3F3D56"/>
<path d="M436.009 397.738H446.416V330.689H436.009V397.738Z" fill="#3F3D56"/>
<path d="M406.387 397.373C406.387 398.494 422.158 397.807 441.613 397.807C461.067 397.807 476.838 398.494 476.838 397.373C476.838 396.252 461.067 387.361 441.613 387.361C422.158 387.361 406.387 396.252 406.387 397.373Z" fill="#3F3D56"/>
<path d="M415.783 389.514L405.968 389.514L401.299 364.133L415.784 364.134L415.783 389.514Z" fill="#FFB8B8"/>
<path d="M418.286 399L386.639 398.999V398.6C386.639 396.987 386.957 395.39 387.576 393.9C388.195 392.41 389.103 391.056 390.246 389.915C391.39 388.775 392.748 387.87 394.243 387.253C395.737 386.636 397.339 386.318 398.957 386.318H398.957L418.286 386.319L418.286 399Z" fill="#2F2E41"/>
<path d="M401.103 373.776L381.536 330.028C379.902 326.341 379.722 322.176 381.03 318.362C382.338 314.548 385.04 311.365 388.596 309.447L431.037 286.756L450.404 285.114L468.269 283.495L468.398 283.713C468.563 283.99 472.404 290.605 469.807 297.858C467.838 303.36 462.715 307.657 454.581 310.631C435.596 317.571 413.664 323.503 405.116 325.731C404.739 325.827 404.386 326.002 404.08 326.244C403.775 326.486 403.525 326.79 403.346 327.136C403.167 327.477 403.06 327.852 403.033 328.236C403.006 328.621 403.059 329.007 403.189 329.37L421.367 370.089C421.557 370.606 421.626 371.159 421.567 371.706C421.509 372.253 421.325 372.779 421.03 373.244C420.736 373.709 420.338 374.1 419.868 374.388C419.397 374.675 418.867 374.851 418.318 374.902L404.735 375.888C404.619 375.899 404.504 375.904 404.39 375.904C403.695 375.904 403.014 375.703 402.431 375.325C401.847 374.947 401.386 374.409 401.103 373.776Z" fill="#2F2E41"/>
<path d="M420.586 389.514L410.772 389.514L406.102 364.133L420.588 364.134L420.586 389.514Z" fill="#FFB8B8"/>
<path d="M423.089 399L391.442 398.999V398.6C391.442 396.987 391.761 395.39 392.38 393.9C392.999 392.41 393.906 391.056 395.05 389.915C396.194 388.775 397.552 387.87 399.046 387.253C400.541 386.636 402.142 386.318 403.76 386.318H403.761L423.09 386.319L423.089 399Z" fill="#2F2E41"/>
<path d="M406.707 376.17L387.14 332.423C385.506 328.736 385.326 324.57 386.634 320.756C387.943 316.942 390.644 313.76 394.2 311.842L436.642 289.151L456.008 287.509L473.873 285.89L474.002 286.107C474.167 286.385 478.008 292.999 475.411 300.253C473.442 305.754 468.319 310.052 460.185 313.025C441.2 319.966 419.268 325.898 410.72 328.126C410.343 328.222 409.99 328.397 409.685 328.639C409.379 328.881 409.129 329.185 408.95 329.53C408.771 329.872 408.664 330.246 408.637 330.631C408.61 331.015 408.663 331.401 408.793 331.764L426.971 372.484C427.161 373 427.23 373.553 427.171 374.1C427.113 374.647 426.929 375.174 426.635 375.639C426.34 376.104 425.942 376.495 425.472 376.782C425.001 377.07 424.471 377.246 423.922 377.297L410.339 378.283C410.223 378.294 410.109 378.299 409.994 378.299C409.299 378.299 408.618 378.098 408.035 377.72C407.451 377.342 406.99 376.804 406.707 376.17Z" fill="#2F2E41"/>
<path d="M396.954 242.528C388.732 231.623 382.232 219.528 377.68 206.663C377.416 205.894 377.435 205.056 377.733 204.299C378.031 203.542 378.588 202.915 379.307 202.529L407.443 187.498C407.898 187.253 408.404 187.114 408.92 187.093C409.437 187.073 409.952 187.17 410.426 187.377C410.908 187.586 411.336 187.902 411.678 188.301C412.019 188.7 412.265 189.171 412.396 189.679C415.671 202.076 421.827 213.531 430.366 223.116C430.717 223.506 430.975 223.971 431.119 224.476C431.263 224.98 431.29 225.51 431.197 226.027C431.108 226.535 430.904 227.016 430.6 227.433C430.296 227.851 429.901 228.194 429.444 228.436L401.308 243.467C400.588 243.85 399.755 243.965 398.958 243.793C398.161 243.621 397.451 243.173 396.954 242.528Z" fill="#CCCCCC"/>
<path d="M398.874 241.089C399.026 241.277 399.238 241.407 399.475 241.456C399.712 241.505 399.959 241.47 400.173 241.356L428.31 226.325C428.446 226.254 428.565 226.152 428.655 226.028C428.746 225.904 428.806 225.76 428.832 225.609C428.861 225.449 428.853 225.284 428.808 225.128C428.763 224.972 428.682 224.828 428.572 224.709C419.781 214.841 413.444 203.049 410.073 190.286C410.034 190.129 409.959 189.982 409.854 189.858C409.748 189.734 409.616 189.636 409.466 189.572C409.325 189.509 409.172 189.48 409.017 189.486C408.863 189.492 408.712 189.534 408.577 189.609L380.441 204.64C380.228 204.755 380.062 204.94 379.971 205.164C379.881 205.388 379.871 205.637 379.945 205.867C384.415 218.502 390.799 230.38 398.874 241.089Z" fill="white"/>
<path d="M490.428 238.518L468.393 246.867L463.013 231.967C462.298 229.988 462.308 227.822 463.041 225.85C463.774 223.878 465.182 222.228 467.017 221.192C468.873 220.143 471.044 219.791 473.138 220.198C475.232 220.606 477.111 221.746 478.435 223.414L490.428 238.518Z" fill="#1A1851"/>
<path d="M434.38 297.553C433.916 297.225 433.527 296.804 433.24 296.315C432.952 295.827 432.772 295.283 432.712 294.72C429.889 268.451 431.855 247.894 438.721 231.874C439.93 229.111 441.752 226.657 444.049 224.697C446.346 222.736 449.059 221.32 451.984 220.556L469.796 219.659L469.889 219.704C473.908 221.667 477.186 224.869 479.237 228.835C481.287 232.802 482.001 237.322 481.272 241.725C475.543 256.781 470.746 272.458 474.404 285.104C474.558 285.632 474.603 286.187 474.536 286.733C474.469 287.279 474.293 287.807 474.017 288.283C473.75 288.744 473.39 289.145 472.961 289.462C472.532 289.779 472.043 290.005 471.523 290.126L437.595 298.173C437.046 298.303 436.475 298.315 435.92 298.208C435.366 298.101 434.841 297.878 434.38 297.553Z" fill="#1A1851"/>
<path d="M463.852 213.026C474.711 213.026 483.515 204.249 483.515 193.422C483.515 182.594 474.711 173.817 463.852 173.817C452.992 173.817 444.189 182.594 444.189 193.422C444.189 204.249 452.992 213.026 463.852 213.026Z" fill="#FFB8B8"/>
<path d="M409.29 208.949L393.966 215.693C393.383 215.949 392.722 215.964 392.129 215.735C391.535 215.505 391.057 215.05 390.799 214.47L390.42 213.614C390.163 213.033 390.148 212.374 390.379 211.782C390.609 211.19 391.065 210.713 391.647 210.456L406.971 203.712C407.554 203.456 408.215 203.441 408.809 203.67C409.402 203.9 409.881 204.355 410.138 204.935L410.518 205.791C410.774 206.372 410.789 207.031 410.559 207.623C410.329 208.215 409.872 208.692 409.29 208.949Z" fill="#CCCCCC"/>
<path d="M414.894 219.325L399.57 226.07C398.987 226.326 398.326 226.34 397.733 226.111C397.139 225.882 396.661 225.427 396.403 224.846L396.024 223.99C395.767 223.409 395.752 222.75 395.983 222.158C396.213 221.566 396.669 221.09 397.251 220.833L412.575 214.088C413.158 213.832 413.819 213.818 414.413 214.047C415.006 214.276 415.485 214.731 415.742 215.312L416.122 216.168C416.378 216.749 416.393 217.408 416.163 218C415.933 218.592 415.476 219.068 414.894 219.325Z" fill="#CCCCCC"/>
<path d="M426.712 259.856L392.548 232.984C392.276 233.079 391.999 233.16 391.718 233.228C390.513 233.509 389.261 233.534 388.045 233.301C386.828 233.069 385.675 232.584 384.659 231.877C383.636 231.171 382.777 230.255 382.138 229.19C381.499 228.125 381.096 226.937 380.955 225.705C380.726 223.734 381.172 221.745 382.219 220.058C383.267 218.372 384.855 217.088 386.727 216.415C387.895 215.997 389.138 215.83 390.375 215.925C391.613 216.02 392.816 216.374 393.906 216.965C394.997 217.555 395.949 218.369 396.703 219.352C397.456 220.336 397.992 221.467 398.276 222.671C398.364 223.053 398.425 223.44 398.459 223.83L432.469 243.392L440.932 238.534L450.308 250.771L437.167 260.11C435.629 261.194 433.781 261.755 431.897 261.709C430.014 261.663 428.196 261.013 426.712 259.856Z" fill="#FFB8B8"/>
<path d="M454.477 254.583L434.984 241.367L444.145 228.43C445.361 226.713 447.148 225.479 449.188 224.947C451.229 224.416 453.392 224.62 455.296 225.525C457.222 226.44 458.756 228.012 459.621 229.956C460.487 231.9 460.626 234.089 460.015 236.127L454.477 254.583Z" fill="#1A1851"/>
<path d="M456.643 190.502C451.589 193.95 444.953 197.495 439.791 193.823C436.402 191.411 435.334 186.946 436.709 183.027C439.18 175.98 445.971 172.878 452.465 170.5C460.906 167.408 470.098 164.949 478.812 167.163C487.527 169.377 495.229 177.789 493.656 186.617C492.391 193.717 485.674 199.624 486.627 206.771C487.587 213.965 495.701 217.751 502.864 219.037C510.028 220.323 518.044 220.736 523.192 225.866C529.759 232.41 528.119 244.107 521.939 251.017C515.76 257.926 506.435 261.058 497.399 263.187C485.426 266.008 472.477 267.491 461.107 262.809C449.736 258.127 440.888 245.525 444.182 233.707C445.573 228.715 448.85 224.496 452.018 220.389C455.186 216.282 458.393 211.988 459.601 206.949C460.608 202.75 459.863 197.874 457.07 194.724C456.562 194.173 456.242 193.475 456.157 192.732C456.071 191.988 456.225 191.236 456.594 190.585L456.643 190.502Z" fill="#2F2E41"/>
<path d="M87.3208 285.753C82.254 287.529 76.8139 287.974 71.5247 287.045C66.2354 286.116 61.2753 283.844 57.1221 280.449C46.5448 271.598 43.2286 257.016 40.5302 243.513C37.8698 230.2 35.2095 216.887 32.5491 203.575L49.2584 215.046C61.2748 223.295 73.5619 231.809 81.882 243.758C90.2022 255.707 93.8339 272.018 87.1489 284.947" fill="#E6E6E6"/>
<path d="M85.8925 334.107C87.5837 321.825 89.3227 309.385 88.1364 296.971C87.0828 285.946 83.7093 275.178 76.8412 266.349C73.1956 261.671 68.7596 257.663 63.7326 254.505C62.4218 253.68 61.2153 255.752 62.5204 256.573C71.2185 262.054 77.9461 270.147 81.7334 279.686C85.9163 290.294 86.588 301.857 85.8672 313.125C85.4313 319.939 84.5075 326.709 83.5765 333.47C83.5031 333.776 83.5489 334.098 83.7046 334.372C83.8603 334.645 84.1143 334.849 84.4152 334.943C84.7223 335.026 85.0496 334.984 85.3261 334.827C85.6027 334.671 85.8062 334.412 85.8925 334.107Z" fill="#F2F2F2"/>
<path d="M69.603 312.373C67.43 315.666 64.443 318.345 60.9298 320.153C57.4166 321.961 53.4957 322.836 49.5448 322.695C39.3909 322.214 30.9258 315.149 23.3057 308.441L0.766785 288.6L15.6838 287.888C26.4112 287.376 37.4154 286.899 47.6329 290.197C57.8505 293.495 67.2736 301.433 69.1419 311.978" fill="#E6E6E6"/>
<path d="M90.6719 341.167C82.5319 326.807 73.0901 310.847 56.2193 305.746C51.5284 304.332 46.6096 303.826 41.728 304.254C40.1894 304.386 40.5736 306.751 42.1094 306.619C50.2921 305.941 58.459 308.096 65.2352 312.719C71.7559 317.144 76.8329 323.296 81.13 329.82C83.7622 333.816 86.1199 337.982 88.478 342.142C89.2316 343.472 91.4344 342.512 90.6719 341.167Z" fill="#F2F2F2"/>
<path d="M103.715 356.283C103.44 353.114 102.299 350.081 100.416 347.515C98.5325 344.948 95.9787 342.946 93.0328 341.726V333.424H79.0668V341.988C76.2659 343.267 73.8555 345.265 72.0811 347.776C70.3068 350.287 69.2321 353.222 68.9666 356.283L65.6826 394.344H106.999L103.715 356.283Z" fill="#F2F2F2"/>
</g>
<defs>
<clipPath id="clip0_130_10">
<rect width="554" height="399" fill="white"/>
</clipPath>
</defs>
</svg>
