<svg width="24" height="25" viewBox="0 0 24 25" fill="none" xmlns="http://www.w3.org/2000/svg">
<path d="M13.7146 3.57146C13.7146 2.62325 12.9485 1.85718 12.0003 1.85718C11.0521 1.85718 10.286 2.62325 10.286 3.57146V11.2857H2.57171C1.62349 11.2857 0.857422 12.0518 0.857422 13C0.857422 13.9482 1.62349 14.7143 2.57171 14.7143H10.286V22.4286C10.286 23.3768 11.0521 24.1429 12.0003 24.1429C12.9485 24.1429 13.7146 23.3768 13.7146 22.4286V14.7143H21.4288C22.3771 14.7143 23.1431 13.9482 23.1431 13C23.1431 12.0518 22.3771 11.2857 21.4288 11.2857H13.7146V3.57146Z" fill="white"/>
</svg>
