<svg xmlns="http://www.w3.org/2000/svg" width="186" height="96" fill="none" viewBox="0 0 186 96"><path fill="#fcb315" d="M41.2 35.9v39.3H28.6v-2q-2.1 1.5-4.7 2.3a18 18 0 0 1-13.3-1.2q-3.2-2-5.2-5.7a20 20 0 0 1-1.8-8.8V35.9h12.6v22.2q0 3 1.4 5 1.5 1.8 4.5 1.8T27 63t1.7-5V36h12.6"/><path fill="#1a1851" d="M47.8 49.4q0-6 1.8-10.7 1.9-4.8 5.4-8.4a24 24 0 0 1 8.3-5.6q4.8-2 10.6-2.1 6-.2 12.6 1.8v12.9a25 25 0 0 0-9-2.5q-4.4-.3-8 1.2-3.7 1.5-5.8 5-2.1 3.2-2.1 8.4 0 5.1 2.1 8.5 2.1 3.3 5.8 4.8 3.5 1.5 8 1.2t9-2.4v12.8q-6.7 2-12.6 1.9T63.3 74a24 24 0 0 1-13.7-13.9 30 30 0 0 1-1.8-10.7m42.5 25.8 8-25.8 8-26h18.3l16 51.8h-13.5l-2.9-9.8h-17.5l-3 9.8H90.4m19.8-21.1h10.8L115.5 36l-2.8 9zm35.5 21.1V23.4h19q6 0 10.3 2.4a17 17 0 0 1 9.3 15.7q0 5.3-2.5 9.3a16 16 0 0 1-6.6 6.3 20 20 0 0 1-9.4 2.2H159v16h-13.4m19-39.8H159v12.2h6.4q2.3 0 3.8-1.7t1.5-4.3q0-2.7-1.6-4.4a6 6 0 0 0-4.5-1.8"/></svg>