<svg width="186" height="96" viewBox="0 0 186 96" fill="none" xmlns="http://www.w3.org/2000/svg">
<path d="M41.2138 35.8954C41.2138 42.3899 41.2138 48.9606 41.2138 55.6074C41.2138 62.2034 41.2138 68.7487 41.2138 75.2432C39.171 75.2432 37.0771 75.2432 34.9322 75.2432C32.7872 75.2432 30.6678 75.2432 28.5739 75.2432C28.5739 74.8881 28.5739 74.5583 28.5739 74.2538C28.5739 73.9494 28.5739 73.6196 28.5739 73.2644C27.195 74.2285 25.6374 74.9642 23.901 75.4716C22.2157 76.0297 20.3771 76.3088 18.3854 76.3088C15.4744 76.3088 12.8954 75.6492 10.6483 74.3299C8.45225 73.0107 6.71587 71.108 5.43911 68.6218C4.21343 66.1356 3.60059 63.1928 3.60059 59.7933C3.60059 55.8357 3.60059 51.8527 3.60059 47.8443C3.60059 43.836 3.60059 39.853 3.60059 35.8954C5.69446 35.8954 7.81388 35.8954 9.95883 35.8954C12.1038 35.8954 14.1977 35.8954 16.2405 35.8954C16.2405 39.5485 16.2405 43.2525 16.2405 47.0071C16.2405 50.7618 16.2405 54.4657 16.2405 58.1189C16.2405 60.1485 16.7001 61.7975 17.6194 63.0659C18.5897 64.2837 20.0963 64.8925 22.1391 64.8925C24.1819 64.8925 25.7651 64.309 26.8886 63.1421C28.0121 61.9751 28.5739 60.3007 28.5739 58.1189C28.5739 54.4657 28.5739 50.7618 28.5739 47.0071C28.5739 43.2525 28.5739 39.5485 28.5739 35.8954C30.6678 35.8954 32.7872 35.8954 34.9322 35.8954C37.0771 35.8954 39.171 35.8954 41.2138 35.8954Z" fill="#FCB315"/>
<path d="M47.7842 49.3665C47.7842 45.4596 48.397 41.9079 49.6227 38.7113C50.8995 35.4641 52.6869 32.6481 54.9851 30.2633C57.2832 27.8786 60.041 26.0267 63.2585 24.7075C66.4759 23.3882 70.0253 22.6779 73.9066 22.5764C77.839 22.4749 82.0268 23.0838 86.4699 24.403C86.4699 26.534 86.4699 28.6904 86.4699 30.8722C86.4699 33.0032 86.4699 35.1343 86.4699 37.2653C83.4567 35.8446 80.4691 35.0328 77.507 34.8298C74.545 34.6269 71.8638 35.0328 69.4635 36.0476C67.0632 37.0623 65.1481 38.686 63.7181 40.9185C62.2881 43.1003 61.5731 45.9162 61.5731 49.3665C61.5731 52.8167 62.2881 55.6581 63.7181 57.8906C65.1481 60.0724 67.0632 61.6706 69.4635 62.6854C71.8638 63.7002 74.545 64.1061 77.507 63.9031C80.4691 63.7002 83.4567 62.8884 86.4699 61.4677C86.4699 63.5987 86.4699 65.7551 86.4699 67.9369C86.4699 70.0679 86.4699 72.1989 86.4699 74.3299C82.0268 75.6492 77.839 76.258 73.9066 76.1565C70.0253 76.0551 66.4759 75.3447 63.2585 74.0255C60.041 72.7063 57.2832 70.8543 54.9851 68.4696C52.6869 66.0849 50.8995 63.2943 49.6227 60.0977C48.397 56.8505 47.7842 53.2734 47.7842 49.3665ZM90.2955 75.2432C92.9511 66.7191 95.6068 58.0935 98.2624 49.3665C100.969 40.6394 103.65 32.0138 106.306 23.4897C109.319 23.4897 112.358 23.4897 115.422 23.4897C118.537 23.4897 121.602 23.4897 124.615 23.4897C127.27 32.0138 129.926 40.6394 132.582 49.3665C135.288 58.0935 137.97 66.7191 140.625 75.2432C138.429 75.2432 136.182 75.2432 133.884 75.2432C131.637 75.2432 129.39 75.2432 127.143 75.2432C126.632 73.6196 126.147 71.996 125.687 70.3723C125.228 68.6979 124.742 67.0489 124.232 65.4253C121.321 65.4253 118.384 65.4253 115.422 65.4253C112.511 65.4253 109.6 65.4253 106.689 65.4253C106.178 67.0489 105.693 68.6979 105.234 70.3723C104.774 71.996 104.289 73.6196 103.778 75.2432C101.582 75.2432 99.3349 75.2432 97.0367 75.2432C94.7897 75.2432 92.5426 75.2432 90.2955 75.2432ZM110.06 54.0852C111.847 54.0852 113.635 54.0852 115.422 54.0852C117.261 54.0852 119.074 54.0852 120.861 54.0852C119.993 51.0916 119.099 48.0726 118.18 45.0283C117.261 41.984 116.367 38.965 115.499 35.9715C114.63 38.965 113.711 41.984 112.741 45.0283C111.822 48.0726 110.928 51.0916 110.06 54.0852ZM145.622 75.2432C145.622 66.7191 145.622 58.0935 145.622 49.3665C145.622 40.6394 145.622 32.0138 145.622 23.4897C148.788 23.4897 151.955 23.4897 155.121 23.4897C158.338 23.4897 161.505 23.4897 164.62 23.4897C168.552 23.4897 171.974 24.2508 174.885 25.773C177.796 27.2444 180.069 29.3247 181.703 32.0138C183.337 34.703 184.154 37.8488 184.154 41.4512C184.154 45.0029 183.337 48.1234 181.703 50.8125C180.12 53.5017 177.924 55.582 175.115 57.0534C172.357 58.5248 169.216 59.2605 165.693 59.2605C164.569 59.2605 163.445 59.2605 162.322 59.2605C161.249 59.2605 160.151 59.2605 159.028 59.2605C159.028 61.899 159.028 64.5627 159.028 67.2519C159.028 69.941 159.028 72.6048 159.028 75.2432C156.832 75.2432 154.61 75.2432 152.363 75.2432C150.116 75.2432 147.869 75.2432 145.622 75.2432ZM164.62 35.4387C163.701 35.4387 162.756 35.4387 161.786 35.4387C160.866 35.4387 159.947 35.4387 159.028 35.4387C159.028 37.4682 159.028 39.5232 159.028 41.6035C159.028 43.633 159.028 45.6626 159.028 47.6921C160.049 47.6921 161.096 47.6921 162.169 47.6921C163.292 47.6921 164.365 47.6921 165.386 47.6921C166.969 47.6921 168.246 47.1086 169.216 45.9416C170.238 44.7746 170.748 43.3286 170.748 41.6035C170.748 39.8276 170.212 38.3562 169.14 37.1892C168.067 36.0222 166.561 35.4387 164.62 35.4387Z" fill="#1A1851"/>
</svg>
