<svg width="263" height="160" viewBox="0 0 263 160" fill="none" xmlns="http://www.w3.org/2000/svg">
<g clip-path="url(#clip0_438_1566)">
<path d="M134.919 129.387L42.9773 152.978C39.8586 153.775 36.5501 153.306 33.7778 151.675C31.0054 150.044 28.9956 147.384 28.1891 144.278L0.385316 36.6841C-0.414007 33.5765 0.0563934 30.2798 1.69332 27.5172C3.33024 24.7547 6.00002 22.752 9.11694 21.9485L94.6532 0.000366211L116.545 9.76604L143.65 114.651C144.45 117.758 143.979 121.055 142.342 123.818C140.705 126.58 138.036 128.583 134.919 129.387Z" fill="#F2F2F2"/>
<path d="M9.98698 25.3219C7.76735 25.8941 5.86612 27.3202 4.7004 29.2874C3.53468 31.2546 3.19968 33.6023 3.76887 35.8153L31.5744 143.409C32.1487 145.621 33.5799 147.515 35.5541 148.677C37.5284 149.839 39.8844 150.172 42.1053 149.605L134.047 126.014C136.266 125.442 138.167 124.016 139.333 122.048C140.499 120.081 140.834 117.734 140.265 115.521L113.579 12.2601L94.3392 3.67746L9.98698 25.3219Z" fill="white"/>
<path d="M116.311 10.322L102.082 13.9732C101.043 14.2397 99.9408 14.0842 99.0171 13.5407C98.0935 12.9972 97.4243 12.1104 97.1568 11.0754L94.4505 0.603256C94.4388 0.557433 94.4402 0.509232 94.4546 0.464169C94.469 0.419105 94.4959 0.378997 94.5321 0.34844C94.5684 0.317882 94.6125 0.298111 94.6595 0.291381C94.7065 0.284652 94.7544 0.291237 94.7978 0.310388L116.351 9.84794C116.399 9.86919 116.439 9.90479 116.466 9.94978C116.492 9.99477 116.504 10.0469 116.5 10.099C116.496 10.1511 116.475 10.2006 116.441 10.2406C116.407 10.2805 116.362 10.309 116.311 10.322Z" fill="#F2F2F2"/>
<path d="M108.825 102.204L66.9659 112.946C66.4477 113.075 65.8989 112.996 65.4396 112.724C64.9802 112.452 64.6476 112.01 64.5143 111.494C64.3811 110.978 64.4581 110.431 64.7285 109.972C64.9989 109.512 65.4407 109.179 65.9574 109.043L107.817 98.301C108.075 98.2333 108.343 98.217 108.607 98.2532C108.871 98.2893 109.126 98.3771 109.356 98.5115C109.585 98.6458 109.786 98.8242 109.947 99.0362C110.107 99.2483 110.224 99.4898 110.291 99.747C110.357 100.004 110.372 100.272 110.334 100.535C110.296 100.798 110.207 101.051 110.071 101.279C109.935 101.507 109.754 101.707 109.541 101.865C109.327 102.024 109.084 102.139 108.825 102.204Z" fill="#CCCCCC"/>
<path d="M118.605 106.717L68.6677 119.531C68.41 119.598 68.1413 119.615 67.8773 119.579C67.6132 119.542 67.359 119.455 67.1291 119.32C66.8992 119.186 66.6982 119.007 66.5378 118.795C66.3773 118.583 66.2605 118.342 66.194 118.085C66.1275 117.827 66.1128 117.56 66.1505 117.297C66.1883 117.034 66.2778 116.781 66.4139 116.553C66.5501 116.324 66.7302 116.125 66.9439 115.966C67.1576 115.808 67.4007 115.693 67.6592 115.628L117.597 102.814C118.115 102.684 118.664 102.764 119.123 103.036C119.583 103.308 119.915 103.75 120.048 104.266C120.182 104.781 120.105 105.329 119.834 105.788C119.564 106.247 119.122 106.581 118.605 106.717Z" fill="#CCCCCC"/>
<path d="M49.8812 125.881C53.8287 125.881 57.0288 122.693 57.0288 118.759C57.0288 114.826 53.8287 111.637 49.8812 111.637C45.9337 111.637 42.7336 114.826 42.7336 118.759C42.7336 122.693 45.9337 125.881 49.8812 125.881Z" fill="#E9E6E6"/>
<path d="M104.374 83.565L48.7804 97.8248C47.1737 98.235 45.4693 97.9934 44.0412 97.1529C42.613 96.3125 41.5778 94.9419 41.1626 93.3419L29.5126 48.2437C29.1013 46.643 29.344 44.945 30.1874 43.5223C31.0308 42.0995 32.406 41.0682 34.0115 40.6544L89.6051 26.3947C91.2118 25.9844 92.9161 26.226 94.3443 27.0665C95.7724 27.9069 96.8076 29.2775 97.2228 30.8776L108.873 75.9757C109.284 77.5765 109.042 79.2744 108.198 80.6971C107.355 82.1199 105.98 83.1512 104.374 83.565Z" fill="white"/>
<path d="M104.374 83.565L48.7804 97.8248C47.1737 98.235 45.4693 97.9934 44.0412 97.1529C42.613 96.3125 41.5778 94.9419 41.1626 93.3419L29.5126 48.2437C29.1013 46.643 29.344 44.945 30.1874 43.5223C31.0308 42.0995 32.406 41.0682 34.0115 40.6544L89.6051 26.3947C91.2118 25.9844 92.9161 26.226 94.3443 27.0665C95.7724 27.9069 96.8076 29.2775 97.2228 30.8776L108.873 75.9757C109.284 77.5765 109.042 79.2744 108.198 80.6971C107.355 82.1199 105.98 83.1512 104.374 83.565ZM34.1948 41.3633C32.7782 41.7288 31.5649 42.6391 30.8211 43.8947C30.0772 45.1503 29.8635 46.6487 30.2268 48.0611L41.8772 93.1592C42.2439 94.5707 43.1575 95.7797 44.4176 96.5209C45.6777 97.2621 47.1814 97.4751 48.5988 97.1131L104.191 82.8547C105.608 82.4892 106.821 81.5789 107.565 80.3233C108.309 79.0677 108.523 77.5693 108.159 76.1569L96.51 31.0588C96.1433 29.6473 95.2297 28.4383 93.9696 27.6971C92.7095 26.9559 91.2058 26.7429 89.7884 27.1049L34.1948 41.3633Z" fill="#E6E6E6"/>
<path d="M86.7848 41.5572L58.7282 48.7539C58.4829 48.8221 58.2208 48.7951 57.9948 48.6781C57.7689 48.5612 57.5958 48.3632 57.5107 48.1241C57.4711 47.9991 57.4575 47.8674 57.4707 47.737C57.4839 47.6066 57.5236 47.4802 57.5874 47.3656C57.6512 47.251 57.7378 47.1506 57.8419 47.0704C57.9459 46.9903 58.0653 46.9321 58.1927 46.8994L86.7532 39.5736C87.9071 40.1562 87.6033 41.3476 86.7852 41.5575L86.7848 41.5572Z" fill="#F2F2F2"/>
<path d="M88.0507 46.4596L59.994 53.6563C59.7488 53.7245 59.4867 53.6975 59.2607 53.5805C59.0347 53.4636 58.8617 53.2656 58.7766 53.0265C58.737 52.9015 58.7234 52.7698 58.7366 52.6394C58.7497 52.509 58.7894 52.3826 58.8533 52.268C58.9171 52.1534 59.0037 52.053 59.1077 51.9728C59.2118 51.8927 59.3311 51.8345 59.4585 51.8018L88.0191 44.476C89.1729 45.0586 88.8692 46.25 88.051 46.4599L88.0507 46.4596Z" fill="#F2F2F2"/>
<path d="M54.6501 58.0056L46.0874 60.2012C45.9489 60.2368 45.8048 60.2448 45.6632 60.2248C45.5216 60.2048 45.3853 60.1573 45.2622 60.0848C45.1391 60.0123 45.0315 59.9164 44.9455 59.8025C44.8596 59.6886 44.7971 59.5589 44.7615 59.4209L42.1602 49.3543C42.1245 49.2163 42.1164 49.0727 42.1365 48.9316C42.1565 48.7905 42.2043 48.6548 42.277 48.5321C42.3497 48.4094 42.446 48.3021 42.5603 48.2165C42.6746 48.1309 42.8047 48.0686 42.9432 48.0331L51.5059 45.8368C51.7856 45.7655 52.0822 45.8075 52.3308 45.9538C52.5793 46.1001 52.7595 46.3386 52.8319 46.6171L55.4332 56.6861C55.4689 56.8241 55.4769 56.9677 55.4569 57.1088C55.4368 57.2499 55.3891 57.3857 55.3164 57.5084C55.2437 57.6311 55.1474 57.7383 55.0331 57.8239C54.9187 57.9095 54.7886 57.9718 54.6501 58.0073V58.0056Z" fill="#E9E6E6"/>
<path d="M90.5637 56.5231L47.7431 67.5064C47.4978 67.5746 47.2357 67.5475 47.0097 67.4306C46.7838 67.3137 46.6107 67.1157 46.5256 66.8766C46.486 66.7516 46.4724 66.6199 46.4856 66.4895C46.4988 66.3591 46.5385 66.2327 46.6023 66.1181C46.6661 66.0035 46.7527 65.9031 46.8568 65.8229C46.9608 65.7428 47.0802 65.6846 47.2076 65.6519L90.5321 54.5391C91.6859 55.1217 91.3819 56.3131 90.5637 56.5231Z" fill="#F2F2F2"/>
<path d="M91.8317 61.4279L49.0104 72.4116C48.7651 72.4798 48.5031 72.4527 48.2771 72.3358C48.0511 72.2189 47.8781 72.0209 47.793 71.7818C47.7534 71.6568 47.7397 71.5251 47.7529 71.3947C47.7661 71.2643 47.8058 71.1379 47.8696 71.0233C47.9334 70.9087 48.02 70.8083 48.1241 70.7281C48.2281 70.648 48.3475 70.5898 48.4749 70.5571L91.7994 59.4443C92.9533 60.0269 92.6495 61.2183 91.8314 61.4283L91.8317 61.4279Z" fill="#F2F2F2"/>
<path d="M93.0974 66.3307L50.2767 77.3141C50.0315 77.3823 49.7694 77.3552 49.5434 77.2383C49.3174 77.1214 49.1444 76.9234 49.0593 76.6842C49.0197 76.5593 49.0061 76.4275 49.0193 76.2971C49.0325 76.1667 49.0722 76.0404 49.136 75.9258C49.1998 75.8112 49.2864 75.7107 49.3904 75.6306C49.4945 75.5504 49.6139 75.4923 49.7412 75.4596L93.0654 64.3468C94.2193 64.9294 93.9155 66.1208 93.0974 66.3307Z" fill="#F2F2F2"/>
<path d="M94.3648 71.2356L51.5438 82.2189C51.2986 82.2871 51.0365 82.2601 50.8105 82.1431C50.5845 82.0262 50.4115 81.8282 50.3264 81.5891C50.2868 81.4641 50.2732 81.3324 50.2864 81.202C50.2995 81.0716 50.3393 80.9452 50.4031 80.8306C50.4669 80.716 50.5535 80.6156 50.6575 80.5354C50.7616 80.4553 50.881 80.3971 51.0083 80.3644L94.3328 69.2516C95.4864 69.8342 95.183 71.0256 94.3648 71.2356Z" fill="#F2F2F2"/>
<path d="M95.6311 76.138L52.8104 87.1214C52.5652 87.1896 52.3031 87.1625 52.0771 87.0456C51.8511 86.9287 51.6781 86.7307 51.593 86.4915C51.5534 86.3666 51.5398 86.2349 51.553 86.1045C51.5662 85.974 51.6059 85.8477 51.6697 85.7331C51.7335 85.6185 51.8201 85.518 51.9241 85.4379C52.0282 85.3577 52.1476 85.2996 52.2749 85.2669L95.5994 74.1541C96.753 74.7367 96.4492 75.9281 95.6311 76.138Z" fill="#F2F2F2"/>
<path d="M50.4087 121.256C50.2531 121.296 50.0886 121.285 49.94 121.224L49.9308 121.22L47.9837 120.397C47.8935 120.359 47.8117 120.303 47.743 120.234C47.6744 120.164 47.6201 120.081 47.5835 119.991C47.5468 119.9 47.5284 119.803 47.5293 119.706C47.5302 119.608 47.5505 119.511 47.5888 119.421C47.6272 119.331 47.683 119.25 47.7529 119.182C47.8229 119.113 47.9057 119.059 47.9967 119.023C48.0876 118.986 48.1848 118.968 48.2829 118.969C48.3809 118.97 48.4778 118.99 48.568 119.028L49.8297 119.563L51.4829 115.687C51.5603 115.506 51.7069 115.362 51.8905 115.288C52.074 115.215 52.2794 115.217 52.4615 115.294L52.4517 115.319L52.4619 115.293C52.644 115.371 52.7878 115.517 52.8618 115.7C52.9358 115.883 52.9339 116.087 52.8566 116.269L50.9116 120.826C50.8665 120.931 50.7976 121.024 50.7105 121.098C50.6234 121.173 50.5202 121.226 50.4091 121.254L50.4087 121.256Z" fill="white"/>
<path d="M225.149 157.694L131.972 139.661C128.812 139.046 126.027 137.206 124.228 134.546C122.428 131.887 121.761 128.623 122.373 125.473L143.668 16.3924C144.286 13.2434 146.132 10.4669 148.801 8.67212C151.471 6.87735 154.745 6.21086 157.905 6.81887L244.591 23.5963L260.145 41.7856L239.387 148.12C238.768 151.269 236.922 154.046 234.253 155.841C231.584 157.636 228.31 158.302 225.149 157.694Z" fill="#E6E6E6"/>
<path d="M157.237 10.2391C154.987 9.80615 152.655 10.2808 150.755 11.5588C148.854 12.8369 147.539 14.8141 147.099 17.0565L125.804 126.137C125.369 128.38 125.844 130.704 127.125 132.598C128.407 134.492 130.39 135.801 132.64 136.239L225.817 154.273C228.067 154.706 230.399 154.231 232.3 152.953C234.2 151.675 235.515 149.698 235.955 147.456L256.392 42.7694L242.724 26.7842L157.237 10.2391Z" fill="white"/>
<path d="M226.099 56.4932L183.669 48.2776C183.142 48.1757 182.678 47.8694 182.378 47.426C182.078 46.9827 181.968 46.4387 182.07 45.9137C182.172 45.3887 182.48 44.9256 182.925 44.6265C183.369 44.3273 183.915 44.2165 184.441 44.3184L226.873 52.5342C227.399 52.6362 227.863 52.9425 228.163 53.3858C228.463 53.8291 228.574 54.3732 228.471 54.8982C228.369 55.4232 228.062 55.8862 227.617 56.1854C227.172 56.4846 226.626 56.5954 226.1 56.4934L226.099 56.4932Z" fill="#E9E6E6"/>
<path d="M232.985 64.7553L182.367 54.9539C181.84 54.852 181.376 54.5456 181.076 54.1023C180.776 53.6589 180.665 53.1149 180.768 52.5898C180.87 52.0648 181.178 51.6018 181.622 51.3026C182.067 51.0034 182.613 50.8926 183.139 50.9945L233.758 60.796C234.284 60.8979 234.749 61.2043 235.048 61.6476C235.348 62.091 235.459 62.635 235.357 63.16C235.254 63.6851 234.947 64.1481 234.502 64.4473C234.057 64.7465 233.512 64.8573 232.985 64.7553Z" fill="#E9E6E6"/>
<path d="M221.036 82.4507L178.607 74.2353C178.081 74.1334 177.535 74.2442 177.09 74.5433C176.646 74.8425 176.338 75.3055 176.236 75.8304C176.133 76.3554 176.244 76.8994 176.544 77.3427C176.844 77.786 177.308 78.0923 177.834 78.1942L220.264 86.4096C220.787 86.5038 221.326 86.3887 221.765 86.0892C222.204 85.7897 222.507 85.33 222.609 84.8094C222.71 84.2889 222.602 83.7496 222.308 83.3081C222.014 82.8667 221.557 82.5586 221.036 82.4507Z" fill="#CCCCCC"/>
<path d="M227.922 90.7134L177.304 80.9121C177.042 80.8577 176.772 80.8558 176.509 80.9066C176.246 80.9573 175.996 81.0596 175.773 81.2075C175.55 81.3554 175.358 81.546 175.21 81.7683C175.061 81.9905 174.958 82.24 174.907 82.5021C174.856 82.7643 174.857 83.034 174.912 83.2955C174.966 83.557 175.071 83.8052 175.223 84.0256C175.374 84.2459 175.567 84.4342 175.792 84.5793C176.017 84.7245 176.268 84.8236 176.532 84.8711L227.15 94.6723C227.412 94.7267 227.682 94.7286 227.945 94.6778C228.208 94.6271 228.458 94.5249 228.681 94.3769C228.905 94.229 229.096 94.0384 229.244 93.8161C229.393 93.5939 229.496 93.3444 229.547 93.0823C229.598 92.8201 229.597 92.5504 229.543 92.2889C229.488 92.0274 229.383 91.7792 229.231 91.5589C229.08 91.3385 228.887 91.1502 228.662 91.0051C228.437 90.8599 228.186 90.7608 227.922 90.7134Z" fill="#CCCCCC"/>
<path d="M214.427 116.328L171.997 108.113C171.47 108.011 171.006 107.705 170.706 107.261C170.406 106.818 170.295 106.274 170.398 105.749C170.5 105.224 170.808 104.761 171.252 104.462C171.697 104.163 172.243 104.052 172.769 104.154L215.2 112.369C215.727 112.471 216.191 112.778 216.491 113.221C216.791 113.664 216.902 114.208 216.799 114.733C216.697 115.258 216.389 115.722 215.945 116.021C215.5 116.32 214.954 116.431 214.428 116.329L214.427 116.328Z" fill="#CCCCCC"/>
<path d="M221.313 124.59L170.694 114.789C170.168 114.687 169.704 114.381 169.404 113.937C169.104 113.494 168.993 112.95 169.096 112.425C169.198 111.9 169.505 111.437 169.95 111.137C170.395 110.838 170.941 110.728 171.467 110.829L222.086 120.631C222.612 120.733 223.076 121.039 223.376 121.483C223.676 121.926 223.787 122.47 223.685 122.995C223.582 123.52 223.275 123.983 222.83 124.282C222.385 124.581 221.84 124.692 221.313 124.59Z" fill="#CCCCCC"/>
<path d="M164.369 53.2051C168.243 53.9549 171.995 51.432 172.749 47.5701C173.503 43.7082 170.974 39.9696 167.099 39.2198C163.225 38.47 159.473 40.9928 158.719 44.8547C157.965 48.7167 160.495 52.4552 164.369 53.2051Z" fill="#E9E6E6"/>
<path d="M164.519 48.7452C164.361 48.7149 164.217 48.6343 164.109 48.5155L164.102 48.5081L162.699 46.9317C162.571 46.7836 162.506 46.591 162.52 46.3958C162.533 46.2006 162.623 46.0184 162.77 45.8887C162.917 45.759 163.109 45.6922 163.305 45.7027C163.501 45.7133 163.685 45.8004 163.817 45.9451L164.726 46.9682L167.889 44.1749C167.963 44.1102 168.048 44.0604 168.141 44.0286C168.234 43.9967 168.332 43.9834 168.429 43.9893C168.527 43.9952 168.623 44.0203 168.711 44.0631C168.799 44.1059 168.878 44.1655 168.943 44.2387L168.923 44.2566L168.944 44.2381C169.075 44.3859 169.141 44.5794 169.129 44.7763C169.117 44.9732 169.027 45.1572 168.879 45.2881L165.157 48.5722C165.071 48.6478 164.969 48.7026 164.858 48.7325C164.747 48.7623 164.631 48.7663 164.519 48.7442L164.519 48.7452Z" fill="white"/>
<path d="M167.634 77.6264C167.455 78.5449 167.097 79.4193 166.579 80.1997C166.061 80.9801 165.394 81.6512 164.616 82.1747C163.837 82.6983 162.964 83.0639 162.044 83.2508C161.124 83.4377 160.176 83.4422 159.255 83.264C159.195 83.2536 159.135 83.2395 159.076 83.2219C157.703 82.9196 156.451 82.2207 155.476 81.2125C154.5 80.2042 153.845 78.9315 153.591 77.5535C153.338 76.1756 153.498 74.7536 154.052 73.4655C154.605 72.1775 155.527 71.0805 156.703 70.3119C157.878 69.5434 159.255 69.1373 160.661 69.1446C162.066 69.1519 163.438 69.5722 164.605 70.3529C165.772 71.1337 166.681 72.2401 167.22 73.5339C167.759 74.8276 167.903 76.2512 167.634 77.6264Z" fill="#E9E6E6"/>
<path d="M152.697 113.04C156.571 113.79 160.323 111.267 161.077 107.405C161.831 103.543 159.301 99.8045 155.427 99.0547C151.553 98.3049 147.801 100.828 147.047 104.69C146.293 108.552 148.823 112.29 152.697 113.04Z" fill="#E9E6E6"/>
<path d="M259.695 42.2066L245.273 39.4154C244.221 39.2117 243.292 38.5994 242.693 37.7132C242.093 36.8271 241.871 35.7396 242.076 34.6902L244.149 24.0729C244.158 24.0264 244.18 23.9834 244.213 23.9489C244.245 23.9143 244.287 23.8896 244.333 23.8775C244.379 23.8654 244.427 23.8664 244.472 23.8805C244.518 23.8945 244.558 23.921 244.589 23.957L259.935 41.7942C259.969 41.8339 259.99 41.8832 259.995 41.9353C259.999 41.9874 259.988 42.0396 259.961 42.0848C259.935 42.13 259.895 42.1659 259.847 42.1875C259.8 42.2092 259.746 42.2155 259.695 42.2055L259.695 42.2066Z" fill="#CCCCCC"/>
<path d="M174.202 148.341C173.758 149.066 173.043 149.586 172.214 149.786C171.385 149.987 170.511 149.85 169.783 149.408L132.261 126.603C131.533 126.16 131.011 125.448 130.811 124.622C130.61 123.796 130.747 122.924 131.191 122.199C131.635 121.473 132.35 120.953 133.179 120.753C134.008 120.553 134.883 120.689 135.611 121.131L173.131 143.936C173.86 144.379 174.381 145.092 174.582 145.918C174.783 146.744 174.647 147.615 174.202 148.341Z" fill="#C6C6C6"/>
<path d="M136.681 125.537C134.032 129.866 130.154 133.314 125.537 135.447C120.921 137.579 115.773 138.299 110.746 137.517C105.719 136.734 101.037 134.484 97.2938 131.05C93.5502 127.616 90.9125 123.153 89.7142 118.225C88.516 113.298 88.8111 108.127 90.5622 103.366C92.3132 98.606 95.4416 94.4699 99.5518 91.481C103.662 88.4922 108.569 86.785 113.653 86.5752C118.737 86.3655 123.769 87.6626 128.113 90.3026C130.998 92.0555 133.507 94.3574 135.499 97.0768C137.491 99.7962 138.925 102.88 139.721 106.152C140.516 109.424 140.657 112.82 140.136 116.146C139.614 119.472 138.441 122.663 136.681 125.537ZM98.2454 102.175C96.2583 105.421 95.2819 109.182 95.4397 112.981C95.5976 116.781 96.8826 120.448 99.1322 123.52C101.382 126.592 104.495 128.93 108.078 130.238C111.661 131.547 115.553 131.767 119.262 130.872C122.971 129.976 126.33 128.005 128.915 125.207C131.499 122.409 133.193 118.911 133.782 115.154C134.371 111.397 133.829 107.55 132.224 104.1C130.619 100.65 128.023 97.7515 124.765 95.7715C120.396 93.1163 115.148 92.2993 110.175 93.5001C105.201 94.701 100.91 97.8213 98.2454 102.175Z" fill="#C6C6C6"/>
<path d="M107.915 130.78C118.368 134.367 129.76 128.83 133.359 118.414C136.959 107.998 131.402 96.6466 120.949 93.06C110.496 89.4735 99.1041 95.0099 95.5048 105.426C91.9055 115.842 97.4616 127.193 107.915 130.78Z" fill="#E9E6E6"/>
</g>
<defs>
<clipPath id="clip0_438_1566">
<rect width="263" height="160" fill="white"/>
</clipPath>
</defs>
</svg>
