<svg xmlns="http://www.w3.org/2000/svg" fill="none" viewBox="0 0 263 160">
  <g clip-path="url(#a)">
    <path fill="#f2f2f2" d="M135 129.4 43 153a12 12 0 0 1-14.8-8.7L.4 36.7A12 12 0 0 1 9 21.9L94.7 0l21.8 9.8 27.2 104.9a12 12 0 0 1-8.8 14.7"/>
    <path fill="#fff" d="M10 25.3a8.7 8.7 0 0 0-6.2 10.5l27.8 107.6a8.6 8.6 0 0 0 10.5 6.2l92-23.6a8.7 8.7 0 0 0 6.2-10.5L113.6 12.3 94.3 3.7z"/>
    <path fill="#f2f2f2" d="M116.3 10.3 102.1 14a4 4 0 0 1-5-3L94.6.7l.3-.3 21.6 9.5v.1l.1.2v.1z"/>
    <path fill="#ccc" d="M108.8 102.2 67 112.9a2 2 0 0 1-2.5-1.4A2 2 0 0 1 66 109l41.8-10.7a2 2 0 0 1 2.5 2.2 2 2 0 0 1-1.5 1.7m9.8 4.5-50 12.8a2 2 0 0 1-2-.7 2 2 0 0 1 1-3.2l50-12.8a2 2 0 0 1 2.4 1.5 2 2 0 0 1-1.4 2.4"/>
    <path fill="#e9e6e6" d="M49.9 125.9a7.1 7.1 0 1 0 0-14.3 7.1 7.1 0 0 0 0 14.3"/>
    <path fill="#fff" d="M104.4 83.6 48.8 97.8a6.3 6.3 0 0 1-7.6-4.5l-11.7-45a6 6 0 0 1 4.5-7.6l55.6-14.3a6.3 6.3 0 0 1 7.6 4.5l11.7 45a6 6 0 0 1-4.5 7.7"/>
    <path fill="#e6e6e6" d="M104.4 83.6 48.8 97.8a6.3 6.3 0 0 1-7.6-4.5l-11.7-45a6 6 0 0 1 4.5-7.6l55.6-14.3a6.3 6.3 0 0 1 7.6 4.5l11.7 45a6 6 0 0 1-4.5 7.7M34.2 41.4a5.5 5.5 0 0 0-4 6.7L42 93a5.5 5.5 0 0 0 6.7 4l55.5-14a5.5 5.5 0 0 0 4-6.7L96.5 31a5.5 5.5 0 0 0-6.7-4z"/>
    <path fill="#f2f2f2" d="m86.8 41.6-28 7.2a1 1 0 0 1-1.3-.7 1 1 0 0 1 .7-1.2l28.6-7.3c1.1.6.8 1.7 0 2m1.2 4.9-28 7.2a1 1 0 0 1-1.2-.7 1 1 0 0 1 .7-1.2L88 44.5c1.2.6.9 1.8 0 2"/>
    <path fill="#e9e6e6" d="M54.7 58 46 60.2a1 1 0 0 1-1.3-.8l-2.6-10a1 1 0 0 1 .7-1.4l8.6-2.2a1 1 0 0 1 1.3.8l2.6 10a1 1 0 0 1-.7 1.4"/>
    <path fill="#f2f2f2" d="m90.6 56.5-42.9 11a1 1 0 0 1-1.2-.6 1 1 0 0 1 .7-1.2l43.3-11.2c1.2.6.9 1.8 0 2m1.3 4.9L49 72.4a1 1 0 0 1-1.2-.6 1 1 0 0 1 .7-1.2l43.3-11.2c1.2.6.8 1.8 0 2m1.3 4.9-42.8 11a1 1 0 0 1-1.2-.6 1 1 0 0 1 .6-1.2l43.4-11.2c1.1.6.8 1.8 0 2m1.3 4.9-42.9 11a1 1 0 0 1-1.2-.6 1 1 0 0 1 .7-1.2l43.3-11.1c1.2.5.9 1.7 0 2m1.3 4.8-42.8 11a1 1 0 0 1-1.2-.6 1 1 0 0 1 .7-1.2l43.3-11.1c1.2.5.8 1.7 0 2"/>
    <path fill="#fff" d="M50.4 121.3H50l-2-.9-.3-.4a.7.7 0 0 1 1-1l1.2.6 1.7-4a1 1 0 0 1 1-.3 1 1 0 0 1 .4 1l-2 4.5z"/>
    <path fill="#e6e6e6" d="m225.1 157.7-93.1-18a12 12 0 0 1-9.6-14.2l21.3-109.1a12 12 0 0 1 14.2-9.6l86.7 16.8L260 41.8 239.4 148a12 12 0 0 1-14.3 9.6"/>
    <path fill="#fff" d="M157.2 10.2a8.7 8.7 0 0 0-10.1 6.9l-21.3 109a8.6 8.6 0 0 0 6.8 10.1l93.2 18a8.7 8.7 0 0 0 10.2-6.7l20.4-104.7-13.7-16z"/>
    <path fill="#e9e6e6" d="m226.1 56.5-42.4-8.2a2 2 0 0 1-.8-3.7 2 2 0 0 1 1.5-.3l42.5 8.2a2 2 0 0 1 1.6 2.4 2 2 0 0 1-2.4 1.6m6.9 8.3L182.4 55a2 2 0 0 1-.8-3.7 2 2 0 0 1 1.5-.3l50.7 9.8a2 2 0 1 1-.8 4"/>
    <path fill="#ccc" d="m221 82.5-42.4-8.3a2 2 0 0 0-2.4 1.6 2 2 0 0 0 1.6 2.4l42.5 8.2a2 2 0 0 0 2-3 2 2 0 0 0-1.3-1m7 8.3L177.2 81a2 2 0 0 0-1.5 3.7l.7.3 50.7 9.8a2 2 0 0 0 1.5-3.7zm-13.6 25.6-42.4-8.2a2 2 0 1 1 .8-4l42.4 8.3a2 2 0 0 1 1.6 2.3 2 2 0 0 1-2.4 1.6m6.9 8.3-50.6-9.8a2 2 0 1 1 .8-4l50.6 9.8a2 2 0 1 1-.8 4"/>
    <path fill="#e9e6e6" d="M164.4 53.2a7 7 0 0 0 8.3-5.6 7.1 7.1 0 0 0-14-2.7 7 7 0 0 0 5.7 8.3"/>
    <path fill="#fff" d="m164.5 48.7-.4-.2-1.4-1.6a1 1 0 0 1 0-1 .7.7 0 0 1 1.1 0l1 1 3-2.7a1 1 0 0 1 1.1 0 1 1 0 0 1 0 1l-3.7 3.4z"/>
    <path fill="#e9e6e6" d="M167.6 77.6a7 7 0 0 1-8.5 5.6 7 7 0 0 1-5-9.7 7 7 0 0 1 10.5-3.1 7 7 0 0 1 3 7.2M152.7 113a7.1 7.1 0 1 0 2.7-14 7.1 7.1 0 1 0-2.7 14"/>
    <path fill="#ccc" d="m259.7 42.2-14.4-2.8a4 4 0 0 1-3.2-4.7l2-10.6.1-.2h.3l15.5 18 .1.1z"/>
    <path fill="#c6c6c6" d="M174.2 148.3a3 3 0 0 1-4.4 1.1l-37.5-22.8a3.2 3.2 0 1 1 3.3-5.5l37.5 22.8a3 3 0 0 1 1.1 4.4"/>
    <path fill="#c6c6c6" d="M136.7 125.5a25.7 25.7 0 1 1-23-39 25.8 25.8 0 0 1 26.4 29.6q-.8 5.2-3.4 9.4m-38.5-23.3a19.2 19.2 0 0 0 21 28.7 19.3 19.3 0 0 0 13-26.8 19.3 19.3 0 0 0-34-2"/>
    <path fill="#e9e6e6" d="M108 130.8A20 20 0 1 0 121 93a20 20 0 1 0-13 37.7"/>
  </g>
  <defs>
    <clipPath id="a">
      <path fill="#fff" d="M0 0h263v160H0z"/>
    </clipPath>
  </defs>
</svg>
