<svg xmlns="http://www.w3.org/2000/svg" fill="none" viewBox="0 0 210 160">
  <g clip-path="url(#a)">
    <path fill="#f2f2f2" d="M127.3 48.2a1.3 1.3 0 0 0 1-2.2l-.1-.3v-.1a3.4 3.4 0 0 1 6.3 0c1 2.5 2.4 5 2.7 7.6q.1 1.8-.2 3.5a41 41 0 0 0-5.2-42.2 11 11 0 0 1-4.6-4.8q-.5-1.1-.7-2.2c.2 0 .8-3.4.6-3.6l1.2-1.2c1.7-2.2 4-1.8 5.2 1.3 2.6 1.3 2.6 3.4 1 5.5-1 1.3-1.1 3-2 4.5l.3.3q2.4 3.3 4.3 6.9c-.3-2.7.2-6 1-8 1-2.4 2.9-4.4 4.5-6.4 2-2.5 6-1.4 6.3 1.7v.1l-.7.4a1.7 1.7 0 0 0 .7 3.2q0 1.3-.5 2.6c2.1 8-2.4 11-8.8 11l-.4.3a42 42 0 0 1 2.2 17.2v-.1q.8-3.7 3.7-6.1c2.7-2.3 6.7-3.1 9.7-5 1.4-.9 3.3.3 3 2l-2 1.1a1.7 1.7 0 0 0 .7 3.1q-1 2.9-3 5c-1.4 7-7 7.7-13 5.7q-1 4.2-2.8 8.3h-10.1l-.1-.4 2.8-.1L128 54l-1.2-1.5q0-2.1.5-4.3"/>
    <path fill="#ccc" d="M159.9 22.3c-2-6.9 13.3-12.8 17.3-7.3.5-.7 2.6-1.2 3.5-1q1.4.6 2.5 1.4 1.7 1.2 2.8 2.9c.7 1.1.8 2.7-.1 3.8-.7.8-2.8 1.3-3.8 1.5l-2 .4q-.6-1.1-.5-2.4a3 3 0 0 0-1.3 2.1l6 22q-1.2.7-2.3 1-2.3-3.4-3.5-7.5a24 24 0 0 0 .6 8.4c-7.1 1.5-17.7 1-22.3-5.5a1.1 1.1 0 0 0-2.2-.4q0 .4-.3.7c-1.3-4.8.4-10.4 5.6-20.1m-12.1 115.2v.2zm6.8-38.9h.2zm51.1 61.4h-25.9a2 2 0 0 1-.6-2.5c.8-1.7-.6-3.1-.6-3.1a4 4 0 0 1-1-4.1c.8-2.4-2-9.2-2-9.2l-3.1 18.9h-24.7a5 5 0 0 1 0-4.6c1.5-2.5 0-3 0-3s-1.4-2.7 0-4.6c1.5-2 0-10 0-10q.2.3 1.1-1.7a118 118 0 0 0 7-20l1.6-7.4q1-5 .4-8-.6-2.4-2.6-2.2l3.2-.4h.7c10-.8 31.5-1.2 31.5-1.2l6.6 11.8 8.4 15s-.3 20 0 36.3"/>
    <path fill="#e6e6e6" d="m178 45.9-15-3.2-3 6-10.2 6s6.6 26.7 6.5 30.4c0 9.6-15.3 31-3.8 29.3s13.9-8.5 17.6-7.4c3.3 1 7.4 5.3 10.1 2.2 2.8-3.1 3.7.5 5.5.6.8 0 .3-4 2.3.1 2.1 4.1 13-1.4 9.3-5-6.1-6.3-7.4-51.8-7.4-51.8L183 51z"/>
    <path fill="#f2f2f2" d="M149.5 143a3.6 3.6 0 0 0-.9-5.4l2.6-12.4-6-3.5-1.5 17.4a4 4 0 0 0 .8 4.3 3.5 3.5 0 0 0 4.9-.3"/>
    <path fill="#e6e6e6" d="M167.7 77.4q-.1-.5-1.3-.9-1-.3-2-.9c-1.6-1.1-1-2.3-.1-4l.5-1q.7-1.5-2.3-12.4c-.6-2.3-.6-3.9-1-5-.4-1-1.3-1.5-3.6-1.6q-4.4-.2-7.6 2.7l-.2.2a11 11 0 0 0-3.4 7.6v.4l-.5 22.3-1.3 19.5L143 131h1.4l5.5.4h.6l1.6-6.6 1.9-8 .7-2.9 2.2-9 1-4.3.6-2.6.2-1 1.3-5.2s2.8-11.2 6-13q1.8-1 1.7-1.5"/>
    <path fill="#f2f2f2" d="M204 142.9a3.6 3.6 0 0 1 .3-5.5l-3.8-12 5.4-4.2 3.5 17.2a4 4 0 0 1-.3 4.4 3.5 3.5 0 0 1-5 0"/>
    <path fill="#e6e6e6" d="M206.7 116.6s-4.2-15-3-16.6c1.4-1.6-2.4-2-.8-5 1.7-3-.6-3.5-.6-3.5l-1.3-6.9-2.2-17V67l-.7-5a11 11 0 0 0-4.2-7.2l-.1-.1a11 11 0 0 0-8-1.9c-4.5.7-3 2.4-3.8 7q-1.8 11.2-1 12.7l.7 1c1 1.5 1.7 2.6.3 3.9q-.8.6-2 1.1-1 .4-1 1-.1.5 1.7 1.3c1.5.7 3.2 3.2 4.6 5.8l2.9 6.5 11.7 33 1.9 5.4.6-.2 5.4-.8 1.4-.2z"/>
    <path fill="#f2f2f2" d="M171.7 42.5a12.4 12.4 0 1 0 0-24.8 12.4 12.4 0 0 0 0 24.8"/>
    <path fill="#ccc" d="M153.1 23.2c-1.9-6.8 13.3-12.7 17.3-7.2.6-.8 2.6-1.3 3.5-1q1.5.4 2.6 1.4 1.6 1.2 2.8 2.8c.6 1.2.7 2.8-.2 3.8-.7.8-2.7 1.3-3.8 1.6l-1.9.3q-.7-1-.6-2.4a3 3 0 0 0-1.3 2.2l6 22q-1 .6-2.3 1-2.3-3.5-3.5-7.6a25 25 0 0 0 .6 8.5c-7 1.5-17.7 1-22.3-5.5l-.3-.8a1.1 1.1 0 0 0-1.8.3l-.3.8c-1.4-4.9.4-10.4 5.5-20.2"/>
    <path fill="#f2f2f2" d="M91.7 66a1.3 1.3 0 0 1-.9-2.2v-.4a3.4 3.4 0 0 0-6.2 0c-1 2.5-2.4 5-2.7 7.6q-.3 1.8.2 3.5a41 41 0 0 1 5.2-42.2q3-1.7 4.6-4.8.5-1.1.7-2.2c-.2 0-.8-3.4-.6-3.6l-1.2-1.2c-1.7-2.2-4-1.8-5.2 1.3-2.6 1.3-2.6 3.4-1 5.5 1 1.3 1 3.1 2 4.5l-.3.4A41 41 0 0 0 82 39c.3-2.7-.2-6-1-8-1-2.4-2.9-4.4-4.5-6.4-2-2.5-6-1.4-6.3 1.7v.1l.7.4a1.7 1.7 0 0 1-.7 3.2q0 1.3.4 2.6c-2 8 2.5 11 8.9 11q.1.2.4.3a42 42 0 0 0-2.3 17.2q-.7-3.8-3.6-6.2c-2.8-2.3-6.7-3.1-9.7-5-1.4-.9-3.3.3-3 2l2 1.1a1.7 1.7 0 0 1-.7 3.2h-.1q1.1 2.7 3.2 5c1.3 7 6.8 7.6 12.8 5.6q1 4.2 2.9 8.3h10l.2-.4-2.8-.1 2.2-2.8h.1l1.1-1.5q0-2.2-.5-4.3"/>
    <path fill="#ccc" d="M44.5 15c-.2.6-7.3.5-7.7 1-2.5 3.7 6.6 19.4 4 23l-.3.5 2.4-1.4.2-4.5q1 1.4 1.8 3.2c.5-.4 1-1.2 3.5-2.7q1.5-1.6 3.5-2.9z"/>
    <path fill="#f2f2f2" d="M49.6 45.2a6 6 0 0 0-8.9 3.5L30 76.8 11.4 66.3A5.7 5.7 0 1 0 8 72c3.9 4.2 20.8 21.2 27.8 14.6C41.6 81 50 59.2 52 51.7a6 6 0 0 0-2.5-6.5"/>
    <path fill="#f2f2f2" d="m29.4 87.7 3.4 15.4 24.9 2.3L59.9 92z"/>
    <path fill="#ccc" d="M67.4 127.2v.6L65 160H13l10-30.4s4.2-2.3 2.1-6c-2-3.8 2-.8 2-6.2a25 25 0 0 1 3.7-11.1l.7-8.2h.3l27.1.4h.5l.9 7a31 31 0 0 1 7.2 21.7"/>
    <path fill="#e6e6e6" d="m45 37.8 12.3-.6 5.7 9s11 1.9 10.1 14.6c-.7 12.8-13.2 24-13.2 24l.6-1.9-1 2.7.2 1.4 1.2 1.6.2 1.6-1.2 2.6a1.5 1.5 0 0 1-1.3 2.2l-18-1.8c-.3-1-.7-2.4-2.3-.2l-1.7-.2-7-.6-.4-1.5a6 6 0 0 1 1-5q-1-3 .4-5.8v-.1l.8-.6S23.3 67 32.6 57.7l3.7-6.3 4.2-5.2z"/>
    <path fill="#f2f2f2" d="M48 32.4A11.7 11.7 0 1 0 48 9a11.7 11.7 0 0 0 0 23.4"/>
    <path fill="#ccc" d="M57 37.6q-1.5-1.2-2-3.1-.3 2.3.2 4.4l-1.8 1.4q-.7-1.7-1.8-3.2l-.3 4.6L49 43l.4-.4c2.5-3.7-4-10.5-1.5-14.2.7-1-2.5-9.2-5-9.6-2-.3-2 .3-4 .8l-1-2.6-.1 2.7-2.1-.5c-5-.8-4.6-6.3-3.2-8s6.1-2.2 8.3-2.8l.8-.2c4.1-3.8 9.6-4.4 14.6-2.8Q64 8.1 66.5 16l.4 4.3c.5 1.3 0 7.7-.4 9-1.5 5.5-4.6 2.8-9.6 8.3"/>
    <path fill="#f2f2f2" d="m74 93.2-.4-36a5.8 5.8 0 1 0-11.6.4L63.6 95v22.8a5 5 0 1 0 6.2 1.9z"/>
    <path fill="#ccc" d="m134.6 139.8-1 20.2h-24.7c-.5-6.7-.6-11.6-.6-11.6l-1.4 11.6H82.1l-1.6-21.4L88 120s40.3-2.8 44 .7c3.8 3.6 2.6 19 2.6 19"/>
    <path fill="#f2f2f2" d="M112.8 31.7a13.4 13.4 0 1 0 0-27 13.4 13.4 0 0 0 0 27"/>
    <path fill="#ccc" d="M128.5 13.8c-1.4.7-2.3 5.2-3.4 4.2-1-1-1-2.5-2.5-2.9a5 5 0 0 0-3.5.7q-.3 0-.5.3l-.4-.3q-1.5-.7-3.2-.3 1.4.4 2.1 1.5l-1 .7c-3.2 1.8-7.6-2.1-11-3.6 2.1 3.9 1.1 5.5-.7 9.5v.2c0-1-3-1.7-2.8-.3 0 1 1 3.2 1.4 4a19 19 0 0 1-5.3-13.8q0-1.7.6-3.1 1-1.7 2.7-1.2a9 9 0 0 1 13.4-8.2q1.9 1.3 3.6 2.8t4 1.8c1 0 2-.2 2.8.3 1 .5 1.1 1.7 1.3 2.9q-1.4 0-2.3 1a4 4 0 0 1 2.5.5c.5 1.9.5 2.3 2.2 3.3"/>
    <path fill="#e6e6e6" d="M82.1 126.6c11.5-13.4 7.6-30.5 3-47.7l1-25.4a8 8 0 0 1 3.4-6.2l11.7-7.7 4.6-6.5 12.5 1.2 7 7.4 7.6 5.8a13 13 0 0 1 4.7 13l-7.3 33.2s3 17.3 1.2 19.2c-2 2-6.7 0-3 2.2 4.7 2.5 8.9 2 6.6 4.4-2.4 2.3.6 5.6.6 5.6z"/>
    <path fill="#f2f2f2" d="m87 146 2-13.5-7.7-2.2-1.5 14.4a4.6 4.6 0 1 0 7.2 1.4"/>
    <path fill="#e6e6e6" d="M101.5 42s-21.7 7.1-22.2 12.3-.3 8.3-2.6 29l.1 55.6s14.5 3.1 13-.2-1-4.9-1-4.9 3.2-1.2 2.4-5.1c-.8-4 3.1-23.3 3.1-23.3l2.5-34.7z"/>
    <path fill="#f2f2f2" d="m128.2 145.3-1-13.6 7.7-1.7.6 14.5a4.6 4.6 0 1 1-7.3.8"/>
    <path fill="#e6e6e6" d="M120.5 40.6s21.2 8.5 21.4 13.7-.2 8.3.7 29l-3.8 55.6s-14.7 2.2-13-1c1.8-3.3 1.3-4.9 1.3-4.9s-3-1.4-2-5.3c1-3.8-1.6-23.4-1.6-23.4l-.2-34.8z"/>
  </g>
  <defs>
    <clipPath id="a">
      <path fill="#fff" d="M0 0h210v160H0z"/>
    </clipPath>
  </defs>
</svg>
