<svg width="180" height="209" viewBox="0 0 180 209" fill="none" xmlns="http://www.w3.org/2000/svg">
<g clip-path="url(#clip0_2350_2)">
<path d="M10.7701 180.432C10.7701 180.432 29.4869 193.904 35.0568 193.904L39.0353 192.315L43.6072 192.585L44.6704 195.825L51.7666 197.082L49.3795 199.466L57.3365 201.452L62.1107 198.274L63.7021 200.26L69.272 198.274L70.6046 201.452L77.229 199.068L81.6054 200.657C81.6054 200.657 82.4011 205.425 86.3796 205.822C90.3581 206.219 95.928 209 95.928 209L108.347 203.696L109.853 201.055L114.229 202.247L125.767 195.89C125.767 195.89 125.511 195.925 122.456 194.716C119.401 193.507 119.003 191.917 119.003 191.917L116.837 192.585C116.837 192.585 113.427 191.641 115.817 187.608C118.208 183.575 116.327 184.135 116.327 184.135L112.638 185.164L110.648 181.986C110.648 181.986 106.67 183.177 105.874 183.575C105.079 183.972 107.068 181.588 107.068 181.588L105.476 180.794L105.874 178.807C105.874 178.807 104.681 178.013 106.272 176.424C107.864 174.835 105.079 173.245 105.079 173.245C105.079 173.245 97.7969 175.587 100.443 171.635C103.089 167.684 100.781 166.096 100.781 166.096L83.1229 160.533L81.2075 163.314C81.2075 163.314 74.907 161.609 76.8637 166.831C76.8637 166.831 72.5262 167.187 74.0819 169.62C74.0819 169.62 68.8741 168.965 70.0677 172.098L65.8523 170.928C65.8523 170.928 62.6331 169.968 65.1568 169.62C67.6806 169.273 64.2295 168.28 64.2295 168.28C64.2295 168.28 65.3585 163.91 62.1432 165.201C58.9279 166.492 56.2104 168.28 56.2104 168.28L10.7701 180.432Z" fill="#E6E6E6"/>
<path d="M11.9637 178.842C11.9637 178.842 30.6805 192.314 36.2504 192.314L40.2289 190.725L44.8007 190.995L45.8639 194.236L52.9601 195.493L50.573 197.876L58.53 199.863L63.3042 196.684L64.8956 198.671L70.4655 196.684L71.7981 199.863L78.4225 197.479L82.7989 199.068C82.7989 199.068 83.5946 203.835 87.5731 204.233C91.5516 204.63 97.1215 207.411 97.1215 207.411L109.54 202.106L111.046 199.465L115.423 200.657L126.96 194.301C126.96 194.301 126.704 194.336 123.649 193.127C120.595 191.917 120.197 190.328 120.197 190.328L118.031 190.995C118.031 190.995 114.62 190.051 117.011 186.018C119.401 181.985 117.521 182.546 117.521 182.546L113.831 183.574L111.842 180.396C111.842 180.396 107.863 181.588 107.068 181.985C106.272 182.383 108.261 179.999 108.261 179.999L106.67 179.204L107.068 177.218C107.068 177.218 105.874 176.423 107.466 174.834C109.057 173.245 106.272 171.656 106.272 171.656C106.272 171.656 98.9904 173.997 101.637 170.046C104.283 166.094 101.974 164.507 101.974 164.507L84.3164 158.943L82.401 161.724C82.401 161.724 76.1006 160.019 78.0573 165.242C78.0573 165.242 73.7197 165.598 75.2754 168.031C75.2754 168.031 70.0677 167.375 71.2612 170.509L67.0458 169.339C67.0458 169.339 63.8266 168.379 66.3504 168.031C68.8741 167.683 65.4231 166.69 65.4231 166.69C65.4231 166.69 66.552 162.32 63.3367 163.611C60.1214 164.902 57.4039 166.69 57.4039 166.69L11.9637 178.842Z" fill="#F2F2F2"/>
<path d="M145.659 133.915C145.659 133.915 160.778 130.339 159.186 115.64L161.971 116.435V110.893C161.971 110.893 167.509 120.01 167.525 123.586C167.541 127.161 169.928 152.984 141.283 148.217L145.659 133.915Z" fill="#F2F2F2"/>
<path d="M64.0999 10.7598L60.3203 10.9584H54.3049C54.3049 10.9584 50.0094 9.9652 48.5009 10.7598L50.573 11.9516C50.573 11.9516 46.9923 12.3489 45.7988 13.938H49.1283C49.1283 13.938 44.6052 15.1298 43.8095 18.308C43.0138 21.4862 35.0568 28.6371 35.0568 28.6371C35.0568 28.6371 18.7449 41.7472 38.6374 59.6245C38.6374 59.6245 41.0245 67.1728 40.2288 68.3646C39.4331 69.5564 50.1751 71.1455 51.3687 62.8027C52.5622 54.46 54.9493 36.9799 54.9493 34.9935C54.9493 33.0071 60.1214 20.6916 60.1214 20.6916" fill="#F2F2F2"/>
<path d="M112.638 10.7598L116.417 10.9584H122.433C122.433 10.9584 126.728 9.9652 128.237 10.7598L126.165 11.9516C126.165 11.9516 129.745 12.3489 130.939 13.938H127.609C127.609 13.938 132.132 15.1298 132.928 18.308C133.724 21.4862 141.681 28.6371 141.681 28.6371C141.681 28.6371 157.993 41.7472 138.1 59.6245C138.1 59.6245 135.713 67.1728 136.509 68.3646C137.304 69.5564 126.562 71.1455 125.369 62.8027C124.175 54.46 121.788 36.9799 121.788 34.9935C121.788 33.0071 116.616 20.6916 116.616 20.6916" fill="#F2F2F2"/>
<path d="M144.665 148.018C143.87 151.99 140.289 154.771 140.289 154.771C138.698 164.703 131.934 160.333 131.934 160.333C131.536 161.922 123.977 161.128 123.977 161.128L122.784 159.559V164.306C122.784 167.881 118.009 166.69 118.009 166.69C116.816 170.265 109.539 168.279 109.539 168.279C106.643 170.662 101.3 168.279 101.3 168.279C94.1384 167.881 93.3427 161.922 93.3427 161.922L94.5363 151.593L87.3789 151.744C79.4219 158.645 71.262 152.455 71.262 152.455C71.262 152.455 69.8696 159.539 69.0739 163.114C68.2782 166.69 57.4247 165.689 57.4247 165.689C54.9264 168.263 49.6786 165.244 49.6786 165.244C45.3978 166.972 42.8157 163.114 42.8157 163.114C36.8479 157.552 47.8405 148.725 47.8405 148.725V128.122C43.3169 109.812 49.7781 76.0395 49.7781 76.0395C50.3111 74.4742 51.2898 73.3181 52.3999 72.4719C54.9979 70.4737 58.3159 70.1519 58.3159 70.1519C58.3159 70.1519 112.44 65.3846 120.397 66.1792C121.901 66.3301 123.106 67.3153 124.069 68.8169C128.218 75.2647 127.956 91.2075 127.956 91.2075C135.913 94.783 137.902 112.263 137.902 112.263C156.203 118.619 145.461 144.045 144.665 148.018Z" fill="#F2F2F2"/>
<path d="M114.03 8.97221C114.03 8.97221 85.7828 -12.4806 60.3203 10.9586C60.3203 10.9586 42.616 54.8574 49.3794 65.1866C56.1429 75.5157 76.1259 84.2882 76.1259 84.2882C76.1259 84.2882 89.0022 87.1016 101.019 84.2882C113.036 81.4748 126.165 62.4056 126.165 62.4056C126.165 62.4056 126.562 12.349 114.03 8.97221Z" fill="#F2F2F2"/>
<path d="M96.9673 25.2212C98.7445 29.0367 102.256 31.9454 106.326 33.0201C107.069 33.2164 107.386 32.0671 106.643 31.8708C102.846 30.8683 99.6525 28.1719 97.9979 24.6197C97.6742 23.9249 96.645 24.5295 96.9673 25.2212Z" fill="#CCCCCC"/>
<path d="M75.8446 25.083C75.033 27.1629 73.7313 29.0337 72.0873 30.5433C71.2834 31.2816 70.3924 31.9428 69.4315 32.464C68.4138 33.0161 67.1114 33.4688 66.0165 32.8729C65.3419 32.5057 64.7387 33.5345 65.4141 33.902C67.8815 35.2448 70.7467 33.2816 72.5829 31.6961C74.5526 29.9953 76.0519 27.8181 76.9955 25.3998C77.2745 24.6848 76.1209 24.3749 75.8446 25.083Z" fill="#CCCCCC"/>
<path d="M106.67 50.4874C110.625 50.4874 113.831 47.2859 113.831 43.3365C113.831 39.3871 110.625 36.1855 106.67 36.1855C102.715 36.1855 99.5087 39.3871 99.5087 43.3365C99.5087 47.2859 102.715 50.4874 106.67 50.4874Z" fill="white"/>
<path d="M105.874 48.5011C108.95 48.5011 111.444 46.011 111.444 42.9393C111.444 39.8676 108.95 37.3774 105.874 37.3774C102.798 37.3774 100.304 39.8676 100.304 42.9393C100.304 46.011 102.798 48.5011 105.874 48.5011Z" fill="#CCCCCC"/>
<path d="M107.267 41.1512C107.926 41.1512 108.46 40.6176 108.46 39.9594C108.46 39.3012 107.926 38.7676 107.267 38.7676C106.608 38.7676 106.073 39.3012 106.073 39.9594C106.073 40.6176 106.608 41.1512 107.267 41.1512Z" fill="white"/>
<path d="M71.2612 50.8849C75.2163 50.8849 78.4225 47.6833 78.4225 43.734C78.4225 39.7846 75.2163 36.583 71.2612 36.583C67.3061 36.583 64.0999 39.7846 64.0999 43.734C64.0999 47.6833 67.3061 50.8849 71.2612 50.8849Z" fill="white"/>
<path d="M70.4655 48.8981C73.5417 48.8981 76.0354 46.408 76.0354 43.3363C76.0354 40.2645 73.5417 37.7744 70.4655 37.7744C67.3894 37.7744 64.8956 40.2645 64.8956 43.3363C64.8956 46.408 67.3894 48.8981 70.4655 48.8981Z" fill="#CCCCCC"/>
<path d="M71.858 41.5487C72.5172 41.5487 73.0515 41.0151 73.0515 40.3569C73.0515 39.6986 72.5172 39.165 71.858 39.165C71.1988 39.165 70.6644 39.6986 70.6644 40.3569C70.6644 41.0151 71.1988 41.5487 71.858 41.5487Z" fill="white"/>
<path d="M87.3742 70.1525C87.3742 70.1525 74.643 66.1798 77.8258 58.6316C81.0086 51.0834 90.9548 53.8643 90.9548 53.8643C90.9548 53.8643 99.5086 55.2547 96.9676 61.7582C95.1323 66.3784 92.1484 68.5634 87.3742 70.1525Z" fill="#CCCCCC"/>
<path d="M71.3063 82.3208L71.2158 81.5317C71.2542 81.527 75.0975 81.039 78.5247 77.2366C81.6213 73.8011 85.6674 73.4551 86.979 73.4388L86.9763 70.1531L87.772 70.1523L87.7755 74.2644L87.3528 74.2388C87.3042 74.2357 82.5188 73.9932 79.116 77.7681C75.4763 81.8064 71.4745 82.3018 71.3063 82.3208Z" fill="#CCCCCC"/>
<path d="M105.756 82.7445C105.467 82.6545 98.6546 80.5095 97.0854 77.4507C95.9307 75.2006 89.67 74.3695 87.3547 74.2388L87.3998 73.4458C87.758 73.466 96.1964 73.9761 97.7933 77.0884C99.2122 79.8534 105.925 81.9647 105.992 81.9857L105.756 82.7445Z" fill="#CCCCCC"/>
<path d="M71.6195 152.627L70.903 152.281C78.6743 136.243 70.99 121.706 70.9116 121.562L71.6109 121.183C71.6917 121.332 79.5734 136.212 71.6195 152.627Z" fill="#CCCCCC"/>
<path d="M94.1384 151.617C93.5451 141.548 97.4891 123.679 97.5287 123.5L98.3058 123.672C98.2661 123.851 94.3459 141.612 94.9326 151.571L94.1384 151.617Z" fill="#CCCCCC"/>
<path d="M122.239 159.935L119.056 154.373C115.811 148.703 123.864 130.172 124.209 129.386L124.938 129.704C124.917 129.752 122.836 134.519 121.172 139.899C118.994 146.935 118.502 151.804 119.747 153.979L122.929 159.541L122.239 159.935Z" fill="#CCCCCC"/>
<path d="M132.324 160.412L131.543 160.256C132.51 155.427 131.921 151.695 131.914 151.659L132.7 151.53C132.726 151.687 133.321 155.433 132.324 160.412Z" fill="#CCCCCC"/>
<path d="M123.592 161.23C122.581 157.396 124.124 151.728 124.19 151.488L124.957 151.699C124.941 151.756 123.406 157.402 124.361 161.027L123.592 161.23Z" fill="#CCCCCC"/>
<path d="M101.686 168.372L100.912 168.188C101.881 164.123 101.503 157.84 101.499 157.777L102.293 157.727C102.309 157.989 102.683 164.191 101.686 168.372Z" fill="#CCCCCC"/>
<path d="M109.932 168.353L109.149 168.207C109.619 165.695 109.457 159.021 109.455 158.954L110.251 158.934C110.258 159.211 110.417 165.759 109.932 168.353Z" fill="#CCCCCC"/>
<path d="M118.406 166.713L117.612 166.667C117.804 163.404 116.645 159.899 116.633 159.864L117.388 159.612C117.438 159.761 118.607 163.299 118.406 166.713Z" fill="#CCCCCC"/>
<path d="M57.0291 165.722C56.7133 162.06 59.7912 156.409 59.9221 156.17L60.6199 156.552C60.5888 156.609 57.5265 162.231 57.8217 165.654L57.0291 165.722Z" fill="#CCCCCC"/>
<path d="M49.2839 165.302C48.7714 161.972 51.7891 156.406 51.9177 156.171L52.6163 156.552C52.586 156.607 49.599 162.116 50.0703 165.182L49.2839 165.302Z" fill="#CCCCCC"/>
<path d="M44.0077 164.863C43.1086 164.422 43.1187 162.881 44.0391 160.015C44.6608 158.08 45.4926 156.217 45.5008 156.199L46.2273 156.524C44.7427 159.836 43.6102 163.782 44.3589 164.15L44.0077 164.863Z" fill="#CCCCCC"/>
<path d="M14.7705 164.009C14.7705 164.009 18.3678 167.684 23.9274 167.485C23.9274 167.485 21.5299 172.451 11.5836 173.643C11.5836 173.643 7.20726 171.259 4.42231 171.259C1.63735 171.259 -0.343955 167.684 0.0499223 167.485C0.443799 167.286 6.01371 168.081 6.01371 168.081L14.7705 164.009Z" fill="#E6E6E6"/>
<path d="M14.7705 163.214C14.7705 163.214 18.3678 166.889 23.9274 166.69C23.9274 166.69 21.5299 171.656 11.5836 172.848C11.5836 172.848 7.20726 170.464 4.42231 170.464C1.63735 170.464 -0.343955 166.889 0.0499223 166.69C0.443799 166.491 6.01371 167.286 6.01371 167.286L14.7705 163.214Z" fill="#F2F2F2"/>
<path d="M35.0568 177.218L58.8375 169.339L84.7882 178.41L60.9171 188.342L35.0568 177.218Z" fill="#E6E6E6"/>
<path d="M80.7811 168.031L82.172 166.69L99.9063 172.848L99.1108 174.04L80.7811 168.031Z" fill="#E6E6E6"/>
<path d="M73.0295 170.365L74.7977 169.339L104.195 178.84V179.884L73.0295 170.365Z" fill="#E6E6E6"/>
<path d="M86.7774 180.793L88.0835 179.884L111.444 187.547L109.882 188.796L86.7774 180.793Z" fill="#E6E6E6"/>
<path d="M79.9698 184.34L80.7812 183.177L104.195 191.458L103.089 192.712L79.9698 184.34Z" fill="#E6E6E6"/>
<path d="M74.444 186.752L74.7977 185.671L97.9172 194.236L96.7237 194.698L74.444 186.752Z" fill="#E6E6E6"/>
<path d="M71.2612 189.722L73.0295 188.342L84.7882 193.542L84.1425 194.698L71.2612 189.722Z" fill="#E6E6E6"/>
<path d="M30.6805 180.396L31.7513 179.884L52.8469 187.944L51.6878 188.342L30.6805 180.396Z" fill="#E6E6E6"/>
<path d="M25.9062 181.588L28.2934 180.396L39.831 186.355L38.6375 187.15L25.9062 181.588Z" fill="#E6E6E6"/>
<path d="M119.872 169.869L120.595 174.835L119.225 178.233L122.819 179.853L125.767 183.788V185.929L133.127 187.723C133.127 187.723 137.304 193.506 140.089 192.712C142.874 191.917 164.734 176.201 164.734 176.201L124.282 168.28C124.282 168.28 119.546 167.286 119.872 169.869Z" fill="#E6E6E6"/>
<path d="M118.678 168.279L119.401 173.245L118.031 176.643L121.626 178.264L124.573 182.199V184.34L131.933 186.134C131.933 186.134 136.111 191.917 138.896 191.123C141.681 190.328 163.541 174.611 163.541 174.611L123.088 166.69C123.088 166.69 118.353 165.697 118.678 168.279Z" fill="#F2F2F2"/>
<path d="M122.277 174.611L123.649 173.171L142.909 178.84L142.213 179.884L122.277 174.611Z" fill="#E6E6E6"/>
<path d="M126.96 180.578L127.493 178.85L136.907 182.383L136.418 184.113L126.96 180.578Z" fill="#E6E6E6"/>
<path d="M166.784 156.473C166.784 156.473 162.704 162.121 156.37 159.341C156.37 159.341 154.058 160.93 153.241 161.327C152.423 161.724 147.097 161.923 147.097 161.923L154.631 164.604L159.186 167.286L169.928 165.697C169.928 165.697 172.315 163.711 174.702 163.711C177.09 163.711 179.204 159.341 179.204 159.341C179.204 159.341 172.35 158.943 172.134 157.95C171.917 156.957 168.812 159.167 166.784 156.473Z" fill="#E6E6E6"/>
<path d="M165.875 191.774C166.348 194.301 176.538 189.517 176.538 189.517L172.25 187.26L170.326 186.753H167.497C167.497 186.753 165.11 184.709 162.745 185.929C162.745 185.929 165.402 189.247 165.875 191.774Z" fill="#E6E6E6"/>
<path d="M167.58 154.884C167.58 154.884 163.5 160.533 157.166 157.752C157.166 157.752 154.854 159.341 154.036 159.738C153.218 160.135 147.893 160.334 147.893 160.334L155.427 163.016L159.982 165.697L170.724 164.108C170.724 164.108 173.111 162.122 175.498 162.122C177.885 162.122 180 157.752 180 157.752C180 157.752 173.146 157.354 172.929 156.361C172.713 155.368 169.607 157.578 167.58 154.884Z" fill="#F2F2F2"/>
<path d="M166.67 190.184C167.143 192.712 177.334 187.928 177.334 187.928L173.045 185.671L171.122 185.163H168.293C168.293 185.163 165.906 183.119 163.541 184.34C163.541 184.34 166.197 187.657 166.67 190.184Z" fill="#F2F2F2"/>
<path d="M36.1159 177.46C36.1159 177.46 54.0507 175.483 57.3172 176.769L58.463 187.072L36.1159 177.46Z" fill="white"/>
<path d="M65.7558 179.248C67.5136 179.248 68.9386 178.625 68.9386 177.857C68.9386 177.089 67.5136 176.467 65.7558 176.467C63.998 176.467 62.573 177.089 62.573 177.857C62.573 178.625 63.998 179.248 65.7558 179.248Z" fill="white"/>
</g>
<defs>
<clipPath id="clip0_2350_2">
<rect width="180" height="209" fill="white"/>
</clipPath>
</defs>
</svg>
