<svg width="210" height="160" viewBox="0 0 210 160" fill="none" xmlns="http://www.w3.org/2000/svg">
<g clip-path="url(#clip0_1497_245)">
<path d="M127.337 48.2148C127.598 48.2268 127.857 48.1582 128.078 48.0182C128.299 47.8782 128.472 47.6735 128.573 47.4321C128.673 47.1906 128.698 46.9239 128.642 46.6681C128.587 46.4124 128.454 46.1799 128.262 46.0022C128.229 45.8743 128.206 45.7824 128.174 45.6545C128.186 45.6266 128.197 45.5988 128.209 45.571C129.383 42.7686 133.363 42.788 134.528 45.5945C135.561 48.0854 136.877 50.5806 137.201 53.2144C137.344 54.3785 137.284 55.5587 137.023 56.7023C139.451 51.4034 140.711 45.6441 140.719 39.815C140.72 38.3522 140.638 36.8906 140.476 35.4369C140.341 34.2452 140.155 33.0619 139.917 31.8872C138.616 25.5131 135.822 19.5388 131.766 14.4549C129.803 13.3829 128.215 11.7345 127.217 9.7317C126.855 9.01177 126.6 8.24324 126.458 7.45002C126.68 7.47909 127.293 4.10378 127.126 3.89669C127.435 3.42801 127.987 3.19504 128.324 2.7377C130.001 0.463207 132.31 0.860349 133.516 3.95121C136.092 5.25213 136.117 7.40962 134.536 9.48462C133.531 10.8048 133.393 12.591 132.51 14.0044C132.601 14.1206 132.696 14.2333 132.786 14.3496C134.446 16.4846 135.892 18.7773 137.104 21.1946C136.761 18.5135 137.267 15.2835 138.13 13.2014C139.113 10.8291 140.955 8.83114 142.577 6.78027C144.525 4.31686 148.52 5.39194 148.864 8.5147C148.867 8.54494 148.87 8.57516 148.873 8.60538C148.632 8.74139 148.397 8.88575 148.166 9.03848C147.876 9.23229 147.651 9.50921 147.521 9.83296C147.392 10.1567 147.362 10.5122 147.438 10.8528C147.513 11.1934 147.69 11.5033 147.944 11.7418C148.198 11.9803 148.519 12.1364 148.863 12.1896L148.899 12.195C148.813 13.0639 148.661 13.9251 148.445 14.771C150.526 22.8239 146.033 25.757 139.619 25.8887C139.477 25.9614 139.339 26.034 139.198 26.1031C140.416 29.5573 141.18 33.1553 141.471 36.8066C141.635 38.9608 141.626 41.1248 141.442 43.2774L141.452 43.2011C141.917 40.8074 143.193 38.6476 145.065 37.0864C147.845 34.8011 151.772 33.9595 154.771 32.1226C156.215 31.2383 158.065 32.381 157.813 34.056C157.809 34.0827 157.805 34.1095 157.801 34.1362C157.354 34.3184 156.918 34.5283 156.497 34.7647C156.257 34.9008 156.021 35.0451 155.79 35.1978C155.5 35.3916 155.276 35.6686 155.146 35.9923C155.016 36.3161 154.987 36.6715 155.062 37.0121C155.137 37.3528 155.314 37.6626 155.568 37.9012C155.823 38.1397 156.143 38.2958 156.488 38.3489L156.523 38.3544C156.548 38.358 156.57 38.3616 156.595 38.3653C155.832 40.1906 154.759 41.8706 153.426 43.3319C152.125 50.3618 146.537 51.0288 140.559 48.9816H140.556C139.9 51.8337 138.95 54.6099 137.72 57.2654H127.591C127.555 57.1528 127.522 57.0365 127.489 56.9239C128.427 56.9829 129.368 56.9267 130.292 56.7568C129.541 55.8339 128.789 54.9038 128.038 53.981C128.021 53.9637 128.005 53.9455 127.99 53.9264C127.609 53.4542 127.224 52.9855 126.843 52.5131L126.843 52.5126C126.823 51.0648 126.989 49.6204 127.337 48.215L127.337 48.2148Z" fill="#F2F2F2"/>
<path d="M159.859 22.2727C157.975 15.4009 173.166 9.50812 177.155 15.042C177.71 14.2553 179.76 13.7774 180.7 14.0187C181.641 14.2601 182.432 14.8634 183.204 15.4475C184.265 16.2632 185.364 17.1079 186.016 18.2809C186.672 19.449 186.773 21.0419 185.89 22.0555C185.191 22.8616 183.126 23.3829 182.075 23.5953C181.342 23.7449 180.724 23.8656 180.194 23.9524C179.712 23.2576 179.49 22.4151 179.567 21.5728C179.21 21.8139 178.91 22.1311 178.69 22.5016C178.47 22.8721 178.335 23.2868 178.294 23.7159C178.279 23.8945 184.221 45.7748 184.221 45.7748C183.507 46.1814 182.756 46.5192 181.978 46.7836C180.44 44.43 179.261 41.8594 178.482 39.1571C178.302 40.9641 178.325 42.7854 178.549 44.5873C178.668 45.5978 178.839 46.6015 179.06 47.5945C171.999 49.1198 161.378 48.6178 156.757 42.1305C156.757 42.1036 156.756 42.0768 156.755 42.0499C156.752 41.7938 156.659 41.547 156.494 41.3516C156.328 41.1563 156.1 41.0246 155.848 40.9791C155.596 40.9336 155.336 40.9771 155.113 41.1023C154.89 41.2274 154.717 41.4263 154.624 41.6649C154.512 41.9511 154.409 42.1989 154.317 42.3959C152.971 37.5787 154.712 32.0037 159.859 22.2727Z" fill="#CCCCCC"/>
<path d="M147.843 137.481V137.706C147.834 137.631 147.834 137.556 147.843 137.481Z" fill="#CCCCCC"/>
<path d="M154.758 98.5912C154.937 98.5425 155.12 98.507 155.305 98.4849C155.093 98.5194 154.911 98.5549 154.758 98.5912Z" fill="#CCCCCC"/>
<path d="M154.598 98.6319C154.646 98.6183 154.7 98.6048 154.757 98.5913C154.704 98.6052 154.653 98.6154 154.598 98.6319Z" fill="#CCCCCC"/>
<path d="M205.687 159.999H179.804C179.435 159.704 179.178 159.291 179.077 158.829C178.976 158.367 179.037 157.885 179.25 157.462C179.957 155.84 178.571 154.357 178.571 154.357C178.101 153.805 177.774 153.146 177.619 152.438C177.465 151.729 177.487 150.994 177.684 150.296C178.37 147.899 175.683 141.134 175.683 141.134C175.683 141.134 174.234 149.87 172.459 159.999H147.843C147.43 159.296 147.213 158.496 147.213 157.681C147.213 156.866 147.43 156.065 147.843 155.362C149.277 152.928 147.843 152.461 147.843 152.461C147.843 152.461 146.408 149.737 147.843 147.76C149.277 145.782 147.843 137.706 147.843 137.706C147.897 138.063 148.305 137.414 148.935 136.053C149.893 133.982 151.356 130.258 152.835 125.934C153.893 122.849 154.959 119.453 155.85 116.134H155.852C156.085 115.262 156.307 114.398 156.516 113.541C156.924 111.862 157.275 110.231 157.541 108.699C158.118 105.399 158.308 102.564 157.865 100.72C157.497 99.1859 156.693 98.3398 155.305 98.4848C156.049 98.3615 157.139 98.2446 158.481 98.1342C158.724 98.1148 158.974 98.0953 159.234 98.0737C169.25 97.3163 190.739 96.8813 190.739 96.8813L197.321 108.677L205.657 123.619C205.657 123.619 205.43 143.663 205.687 159.999Z" fill="#CCCCCC"/>
<path d="M178.061 45.8984L162.896 42.6792L159.885 48.7444L149.745 54.6191C149.745 54.6191 156.281 81.3629 156.244 85.1242C156.149 94.6737 140.881 116.081 152.414 114.434C163.946 112.787 166.289 105.889 169.991 106.98C173.33 107.963 177.407 112.34 180.137 109.21C182.866 106.08 183.828 109.694 185.554 109.819C186.374 109.878 185.88 105.867 187.944 109.944C190.007 114.02 200.951 108.533 197.242 104.821C191.064 98.6391 189.809 53.0692 189.809 53.0692L182.933 50.9517L178.061 45.8984Z" fill="#E6E6E6"/>
<path d="M149.459 143.021C150.068 142.293 150.37 141.357 150.3 140.411C150.23 139.464 149.794 138.583 149.084 137.953C148.938 137.828 148.781 137.714 148.616 137.615L151.152 125.162L145.29 121.651L143.66 139.086C143.299 139.802 143.186 140.618 143.337 141.406C143.488 142.194 143.896 142.909 144.497 143.441C144.841 143.74 145.241 143.969 145.674 144.113C146.107 144.257 146.564 144.315 147.019 144.283C147.474 144.251 147.918 144.129 148.326 143.925C148.734 143.721 149.098 143.438 149.397 143.094C149.418 143.069 149.439 143.045 149.459 143.021Z" fill="#F2F2F2"/>
<path d="M167.658 77.3797C167.621 76.9794 167.111 76.7976 166.404 76.5466C165.694 76.3277 165.019 76.0078 164.4 75.5966C162.834 74.4649 163.45 73.2812 164.302 71.6453C164.469 71.3272 164.642 70.9961 164.804 70.652C165.286 69.6328 164.519 65.4283 162.518 58.1531C161.902 55.9135 161.904 54.3316 161.478 53.2821C161.054 52.2326 160.205 51.7154 157.889 51.6072C155.09 51.4658 152.349 52.4409 150.267 54.3187C150.21 54.3684 150.152 54.4225 150.096 54.4745C149.99 54.574 149.886 54.6757 149.784 54.7796C147.859 56.718 146.757 59.3264 146.71 62.0591L146.699 62.5243L146.221 84.7523L144.878 104.258L143.027 131.128L144.398 131.195L149.869 131.467L150.533 131.5L152.107 124.891L154.001 116.939L154.697 114.017L156.857 104.955L157.865 100.72L158.481 98.134L158.732 97.078L159.956 91.9452C159.984 91.837 162.799 80.7209 166.045 78.862C167.256 78.1696 167.693 77.7671 167.658 77.3797Z" fill="#E6E6E6"/>
<path d="M204.075 142.888C203.391 142.231 202.99 141.332 202.958 140.384C202.926 139.435 203.266 138.512 203.904 137.81C204.036 137.669 204.179 137.54 204.332 137.423L200.475 125.314L205.926 121.194L209.418 138.353C209.853 139.026 210.054 139.825 209.988 140.625C209.922 141.424 209.593 142.18 209.053 142.773C208.743 143.107 208.37 143.377 207.955 143.567C207.54 143.757 207.092 143.864 206.636 143.881C206.18 143.898 205.725 143.824 205.298 143.665C204.87 143.506 204.478 143.265 204.144 142.954C204.12 142.932 204.097 142.91 204.075 142.888Z" fill="#F2F2F2"/>
<path d="M206.741 116.614C206.741 116.614 202.49 101.646 203.786 100.025C205.083 98.4047 201.254 98.0883 202.904 95.0704C204.554 92.0525 202.276 91.5477 202.276 91.5477L201.041 84.6089L198.831 67.5654L198.764 67.0585L198.121 62.1C197.942 60.6838 197.479 59.3183 196.76 58.0852C196.041 56.8521 195.081 55.7767 193.937 54.9234C193.879 54.8787 193.819 54.8357 193.76 54.7927C193.488 54.5967 193.21 54.4152 192.926 54.248C190.805 52.9959 188.315 52.5225 185.883 52.9092C181.3 53.6234 182.726 55.3335 181.983 59.9148C180.776 67.3638 180.462 71.6255 181.051 72.5884C181.249 72.9126 181.458 73.2228 181.657 73.5206C182.68 75.0577 183.419 76.1665 181.984 77.4624C181.411 77.9361 180.775 78.3259 180.093 78.6201C179.418 78.9471 178.93 79.1818 178.936 79.5838C178.944 79.9732 179.421 80.3249 180.698 80.8826C182.246 81.5605 183.909 84.1235 185.27 86.7417C186.351 88.8521 187.314 91.0204 188.157 93.2368L199.861 126.178L201.77 131.551L202.428 131.446L207.836 130.588L209.192 130.374L206.741 116.614Z" fill="#E6E6E6"/>
<path d="M171.663 42.4518C178.496 42.4518 184.035 36.9086 184.035 30.0706C184.035 23.2327 178.496 17.6895 171.663 17.6895C164.83 17.6895 159.291 23.2327 159.291 30.0706C159.291 36.9086 164.83 42.4518 171.663 42.4518Z" fill="#F2F2F2"/>
<path d="M153.106 23.238C151.223 16.3662 166.413 10.4735 170.402 16.0074C170.957 15.2206 173.007 14.7427 173.948 14.9841C174.888 15.2254 175.679 15.8288 176.451 16.4128C177.512 17.2286 178.612 18.0733 179.263 19.2462C179.919 20.4143 180.02 22.0072 179.138 23.0208C178.438 23.8269 176.374 24.3482 175.322 24.5606C174.589 24.7102 173.972 24.8309 173.441 24.9178C172.959 24.2229 172.737 23.3804 172.814 22.5381C172.457 22.7792 172.158 23.0964 171.938 23.4669C171.717 23.8374 171.582 24.2521 171.541 24.6813C171.526 24.8599 177.469 46.7401 177.469 46.7401C176.755 47.1467 176.004 47.4845 175.226 47.7489C173.687 45.3953 172.508 42.8247 171.729 40.1224C171.55 41.9294 171.572 43.7507 171.796 45.5527C171.916 46.5631 172.086 47.5668 172.308 48.5598C165.246 50.0851 154.625 49.5831 150.005 43.0958C150.004 43.069 150.003 43.0421 150.002 43.0152C149.999 42.7592 149.906 42.5123 149.741 42.317C149.575 42.1216 149.347 41.9899 149.095 41.9444C148.844 41.8989 148.584 41.9425 148.361 42.0676C148.137 42.1927 147.964 42.3916 147.872 42.6303C147.759 42.9165 147.656 43.1642 147.564 43.3613C146.218 38.544 147.96 32.969 153.106 23.238Z" fill="#CCCCCC"/>
<path d="M91.7486 66.02C91.4874 66.032 91.2287 65.9633 91.0077 65.8233C90.7867 65.6833 90.6141 65.4787 90.5132 65.2372C90.4123 64.9957 90.388 64.729 90.4436 64.4733C90.4993 64.2175 90.6321 63.9851 90.8242 63.8074C90.8563 63.6795 90.8794 63.5876 90.9116 63.4596C90.9001 63.4318 90.8885 63.404 90.8768 63.3762C89.7025 60.5738 85.7224 60.5931 84.558 63.3997C83.5245 65.8906 82.2087 68.3858 81.8848 71.0195C81.7421 72.1837 81.8023 73.3638 82.0627 74.5074C79.6353 69.2085 78.3748 63.4493 78.3667 57.6201C78.3662 56.1574 78.4474 54.6958 78.61 53.2421C78.7443 52.0504 78.9307 50.8671 79.1691 49.6924C80.4701 43.3183 83.2635 37.344 87.3197 32.2601C89.2829 31.1881 90.8706 29.5397 91.8688 27.5369C92.2304 26.8169 92.486 26.0484 92.6276 25.2552C92.4061 25.2843 91.7925 21.909 91.9596 21.7019C91.6509 21.2332 91.0985 21.0002 90.7615 20.5429C89.0851 18.2684 86.7755 18.6655 85.5698 21.7564C82.9941 23.0573 82.9691 25.2148 84.5496 27.2898C85.555 28.6099 85.6932 30.3962 86.5754 31.8095C86.4846 31.9258 86.3902 32.0384 86.2995 32.1547C84.6403 34.2898 83.1942 36.5824 81.982 38.9998C82.3249 36.3187 81.8186 33.0887 80.9553 31.0066C79.9727 28.6343 78.1308 26.6363 76.5088 24.5854C74.5606 22.122 70.5655 23.1971 70.2223 26.3199C70.2189 26.3501 70.2157 26.3803 70.2125 26.4106C70.4534 26.5466 70.6893 26.6909 70.92 26.8437C71.2099 27.0375 71.4345 27.3144 71.5644 27.6381C71.6943 27.9619 71.7235 28.3173 71.6481 28.658C71.5727 28.9986 71.3962 29.3085 71.1418 29.547C70.8874 29.7855 70.5669 29.9416 70.2224 29.9948L70.1871 30.0002C70.2729 30.8691 70.4247 31.7303 70.6409 32.5762C68.5601 40.6291 73.0524 43.5621 79.4668 43.6939C79.6084 43.7666 79.7464 43.8392 79.888 43.9083C78.67 47.3624 77.906 50.9605 77.6152 54.6118C77.4506 56.766 77.4603 58.93 77.6443 61.0826L77.6334 61.0063C77.1686 58.6126 75.8927 56.4528 74.021 54.8916C71.241 52.6062 67.3135 51.7647 64.3144 49.9277C62.8707 49.0435 61.0208 50.1862 61.2727 51.8612C61.2768 51.8879 61.2808 51.9146 61.285 51.9414C61.7321 52.1236 62.1674 52.3335 62.5884 52.5699C62.8293 52.7059 63.0651 52.8503 63.2958 53.003C63.5857 53.1968 63.8103 53.4737 63.9402 53.7975C64.0702 54.1212 64.0993 54.4767 64.0239 54.8173C63.9485 55.1579 63.772 55.4678 63.5176 55.7064C63.2632 55.9449 62.9428 56.101 62.5982 56.1541L62.5629 56.1595C62.5375 56.1632 62.5157 56.1668 62.4903 56.1705C63.2542 57.9958 64.3264 59.6758 65.6598 61.1371C66.9609 68.167 72.549 68.834 78.5265 66.7868H78.5301C79.186 69.6389 80.1362 72.4151 81.3656 75.0706H91.4948C91.5311 74.958 91.5638 74.8417 91.5965 74.729C90.6589 74.788 89.7176 74.7319 88.7937 74.562C89.5452 73.6391 90.2967 72.709 91.0483 71.7861C91.065 71.7689 91.0808 71.7507 91.0955 71.7316C91.4767 71.2593 91.8615 70.7906 92.2427 70.3183L92.2429 70.3177C92.2632 68.8699 92.0972 67.4255 91.749 66.0202L91.7486 66.02Z" fill="#F2F2F2"/>
<path d="M44.485 15.042C44.2551 15.5781 37.1665 15.5207 36.8419 15.9981C34.3387 19.6839 43.362 35.3659 40.8589 39.0564L40.5102 39.4723C41.3268 39.0957 42.1112 38.6528 42.8557 38.1481C42.9225 36.6375 42.9894 35.1221 43.0611 33.6115C43.8108 34.5713 44.416 35.6359 44.8572 36.7714C45.44 36.3602 45.9181 35.5981 48.416 34.0991C49.4273 32.9873 50.5932 32.027 51.8777 31.2474L44.485 15.042Z" fill="#CCCCCC"/>
<path d="M49.6324 45.2488C48.8502 44.7388 47.9577 44.4229 47.029 44.3273C46.1003 44.2316 45.1622 44.359 44.2926 44.6988C43.423 45.0386 42.6468 45.581 42.0286 46.2811C41.4104 46.9811 40.9679 47.8187 40.7379 48.7241L29.9658 76.8126L11.4498 66.2928C11.3685 65.0836 10.9066 63.9313 10.1304 63.001C9.35423 62.0708 8.30359 61.4104 7.12918 61.1147C5.95477 60.8189 4.71694 60.903 3.59322 61.3548C2.4695 61.8066 1.51763 62.6029 0.874114 63.6296C0.230601 64.6562 -0.0714872 65.8604 0.0111774 67.0695C0.093842 68.2786 0.557013 69.4305 1.33426 70.3598C2.1115 71.2892 3.16289 71.9484 4.33763 72.2428C5.51237 72.5372 6.7501 72.4518 7.87331 71.9987C11.7726 76.1635 28.6776 93.239 35.6761 86.5672C41.5587 80.9592 50.048 59.2246 52.0916 51.7192C52.4189 50.5191 52.3572 49.2459 51.9152 48.0831C51.4733 46.9203 50.674 45.9279 49.6324 45.2488Z" fill="#F2F2F2"/>
<path d="M29.4053 87.7446L32.8046 103.121L57.6618 105.371L59.9462 91.9823L29.4053 87.7446Z" fill="#F2F2F2"/>
<path d="M67.375 127.174C67.3637 127.395 67.35 127.613 67.3341 127.833C67.0957 131.019 66.8232 134.694 66.528 138.72C66.0625 145.11 65.5425 152.387 65.018 159.999H12.8799L22.9915 129.584C22.9915 129.584 27.0744 127.334 24.9957 123.555C22.9171 119.776 27.0071 122.788 27.0451 117.391C27.0832 111.994 30.7482 106.252 30.7482 106.252L31.35 98.0806L31.6929 98.0874L58.8257 98.5396L59.3208 98.5487L60.1541 105.564C65.214 111.589 67.7954 119.315 67.375 127.174Z" fill="#CCCCCC"/>
<path d="M44.9196 37.7975L57.2922 37.1597L63.0389 46.2469C63.0389 46.2469 73.8516 48.056 73.1021 60.8068C72.3526 73.5576 59.9463 84.7465 59.9463 84.7465L60.4766 82.927L59.5556 85.5607L59.6737 87.0395L60.9302 88.6057L61.0595 90.2253L59.9463 92.788C60.0911 93.0202 60.1679 93.2883 60.1681 93.562C60.1682 93.8357 60.0918 94.104 59.9473 94.3364C59.8029 94.5688 59.5962 94.756 59.3508 94.8769C59.1054 94.9977 58.8311 95.0473 58.559 95.02L40.6815 93.2271C40.2745 92.1066 39.9479 90.7659 38.3164 92.9977L36.6323 92.8344L29.6315 92.1557L29.2195 90.6535C28.9853 89.8 28.9489 88.9042 29.1128 88.0344C29.2767 87.1646 29.6368 86.3437 30.1655 85.6342C29.5574 83.7286 29.7167 81.6608 30.6094 79.871L30.6429 79.8039L31.3863 79.1837C31.3863 79.1837 23.2528 66.9552 32.5899 57.7448L36.3373 51.3694L40.5304 46.2499L44.9196 37.7975Z" fill="#E6E6E6"/>
<path d="M47.9988 32.4329C54.4785 32.4329 59.7314 27.1761 59.7314 20.6915C59.7314 14.207 54.4785 8.9502 47.9988 8.9502C41.519 8.9502 36.2661 14.207 36.2661 20.6915C36.2661 27.1761 41.519 32.4329 47.9988 32.4329Z" fill="#F2F2F2"/>
<path d="M56.9098 37.6059C55.9544 36.807 55.2894 35.7147 55.0182 34.4986C54.8012 35.9751 54.8578 37.479 55.1854 38.9349C54.55 39.413 53.9338 39.8671 53.351 40.2782C52.9098 39.1428 52.3046 38.0782 51.5549 37.1183C51.4832 38.6289 51.4163 40.1444 51.3495 41.655C50.605 42.1597 49.8206 42.6026 49.004 42.9792L49.3527 42.5633C51.8558 38.8728 45.3783 32.0797 47.8814 28.3939C48.5836 27.3613 45.4117 19.201 42.9946 18.8329C40.8449 18.5079 40.9357 19.1293 38.8529 19.5835C38.6366 18.6808 38.3009 17.811 37.8546 16.9972C37.9734 17.904 37.946 18.824 37.7734 19.7221C37.0329 19.7508 36.4504 19.2786 35.662 19.158C30.6318 18.3884 31.1429 12.9434 32.5426 11.2176C33.947 9.49665 38.6093 8.98035 40.759 8.42101C40.9548 8.22981 41.3991 8.34932 41.5949 8.16766C45.7146 4.39464 51.2243 3.7698 56.1826 5.44209C61.4702 7.22545 64.767 10.6771 66.459 15.9981L66.9443 20.2563C67.3796 21.6255 66.832 27.996 66.459 29.3835C65.0092 34.7769 61.9215 32.0845 56.9098 37.6059Z" fill="#CCCCCC"/>
<path d="M74.0171 93.2337L73.5553 57.2331C73.5312 55.708 72.9089 54.2535 71.8226 53.1834C70.7363 52.1134 69.2732 51.5137 67.749 51.5137C66.9605 51.5137 66.1802 51.6744 65.4558 51.986C64.7313 52.2976 64.0779 52.7536 63.5353 53.3262C62.9927 53.8988 62.5724 54.5759 62.2998 55.3164C62.0273 56.0569 61.9083 56.8451 61.9501 57.6331L63.5755 95.0141L63.6063 117.77C62.6484 118.176 61.8387 118.868 61.2873 119.751C60.7359 120.634 60.4695 121.666 60.5244 122.706C60.5792 123.746 60.9526 124.744 61.5938 125.564C62.2351 126.384 63.113 126.986 64.1084 127.29C65.1038 127.593 66.1684 127.583 67.1576 127.259C68.1467 126.936 69.0125 126.316 69.6372 125.483C70.262 124.651 70.6154 123.646 70.6495 122.605C70.6836 121.564 70.3967 120.538 69.8278 119.666L74.0171 93.2337Z" fill="#F2F2F2"/>
<path d="M134.57 139.809C134.57 139.809 133.856 152.667 133.528 160H108.934C108.428 153.327 108.258 148.424 108.258 148.424L106.912 160H82.0529L80.5117 138.561L87.9595 120.085C87.9595 120.085 128.321 117.284 132.064 120.838C135.806 124.389 134.57 139.809 134.57 139.809Z" fill="#CCCCCC"/>
<path d="M112.823 31.65C120.242 31.65 126.256 25.6311 126.256 18.2064C126.256 10.7816 120.242 4.7627 112.823 4.7627C105.403 4.7627 99.3889 10.7816 99.3889 18.2064C99.3889 25.6311 105.403 31.65 112.823 31.65Z" fill="#F2F2F2"/>
<path d="M128.481 13.8383C127.101 14.4679 126.207 19.0281 125.123 17.968C124.038 16.9078 124.111 15.5282 122.648 15.137C121.468 14.8197 120.197 15.1823 119.12 15.7542C118.928 15.8551 118.741 15.9649 118.559 16.074C118.439 15.9938 118.32 15.9183 118.192 15.8487C117.229 15.3328 116.104 15.2062 115.05 15.4951C115.883 15.7742 116.607 16.3082 117.12 17.0216C116.759 17.2634 116.394 17.5057 116.021 17.7205C112.901 19.5223 108.461 15.6043 105.177 14.1324C107.234 17.9955 106.221 19.5953 104.435 23.5906L104.374 23.8181C104.475 22.8167 101.379 22.0705 101.558 23.4801C101.686 24.4809 102.551 26.7053 103.036 27.5889C99.5832 23.5935 97.2237 18.7043 97.7216 13.6606C97.8299 12.6011 97.7973 11.4832 98.3434 10.5636C98.89 9.64871 100.03 9.00671 101.038 9.35558C100.953 7.74709 101.304 6.1455 102.056 4.72108C102.807 3.29666 103.93 2.10264 105.306 1.26597C106.681 0.429309 108.257 -0.0187337 109.867 -0.0305229C111.476 -0.0423121 113.059 0.382596 114.447 1.19902C115.736 1.9561 116.812 3.02685 117.994 3.95045C119.175 4.87405 120.538 5.67912 122.036 5.75537C122.987 5.80125 124.021 5.56901 124.838 6.06169C125.784 6.63337 125.946 7.83029 126.088 8.98203C125.244 9.06527 124.444 9.39837 123.79 9.93876C124.663 9.84964 125.542 10.0383 126.302 10.4779C126.316 10.4844 126.33 10.4922 126.343 10.5013C126.843 12.4047 126.792 12.8267 128.481 13.8383Z" fill="#CCCCCC"/>
<path d="M82.1125 126.589C93.5525 113.189 89.6884 96.1444 85.148 78.9389L86.0119 53.5212C86.0543 52.2744 86.3959 51.0561 87.0078 49.9691C87.6197 48.8822 88.4839 47.9586 89.5276 47.2763L101.206 39.641L105.752 33.064L118.282 34.3179L125.23 41.6713L132.921 47.5471C134.852 49.0224 136.321 51.0195 137.156 53.3029C137.99 55.5863 138.155 58.0609 137.63 60.4348L130.27 93.7438C130.27 93.7438 133.348 111.012 131.47 112.919C129.592 114.826 124.752 112.92 128.59 115.06C133.196 117.629 137.384 117.155 135.053 119.488C132.722 121.821 135.672 125.063 135.672 125.063L82.1125 126.589Z" fill="#E6E6E6"/>
<path d="M87.0036 146.065L88.9108 132.468L81.3009 130.293L79.7956 144.741C79.1658 145.319 78.7096 146.062 78.4782 146.885C78.2469 147.708 78.2495 148.579 78.4859 149.401C78.7223 150.223 79.183 150.962 79.8163 151.536C80.4496 152.11 81.2304 152.496 82.0708 152.65C82.9112 152.805 83.778 152.721 84.5737 152.41C85.3694 152.098 86.0624 151.571 86.5749 150.886C87.0874 150.202 87.3991 149.389 87.4748 148.537C87.5506 147.685 87.3874 146.829 87.0036 146.065Z" fill="#F2F2F2"/>
<path d="M101.492 42.0923C101.492 42.0923 79.8305 49.1475 79.314 54.3097C78.7975 59.4719 78.9688 62.6321 76.6826 83.2891L76.8031 138.933C76.8031 138.933 91.3256 142.045 89.8362 138.718C88.3469 135.391 88.8665 133.826 88.8665 133.826C88.8665 133.826 91.9802 132.596 91.2008 128.69C90.4214 124.784 94.33 105.426 94.33 105.426L96.797 70.7076L101.492 42.0923Z" fill="#E6E6E6"/>
<path d="M128.2 145.345L127.186 131.652L134.921 129.98L135.48 144.496C136.07 145.113 136.477 145.884 136.654 146.72C136.831 147.557 136.772 148.426 136.482 149.231C136.193 150.035 135.685 150.743 135.015 151.274C134.346 151.806 133.541 152.14 132.693 152.239C131.844 152.338 130.984 152.198 130.211 151.835C129.437 151.472 128.78 150.9 128.313 150.184C127.847 149.468 127.589 148.635 127.569 147.78C127.549 146.926 127.768 146.082 128.2 145.345Z" fill="#F2F2F2"/>
<path d="M120.534 40.647C120.534 40.647 141.688 49.104 141.867 54.289C142.045 59.474 141.668 62.6162 142.6 83.3785L138.845 138.896C138.845 138.896 124.15 141.051 125.854 137.829C127.557 134.606 127.141 133.01 127.141 133.01C127.141 133.01 124.114 131.58 125.147 127.733C126.18 123.886 123.544 104.313 123.544 104.313L123.35 69.5082L120.534 40.647Z" fill="#E6E6E6"/>
</g>
<defs>
<clipPath id="clip0_1497_245">
<rect width="210" height="160" fill="white"/>
</clipPath>
</defs>
</svg>
