<svg xmlns="http://www.w3.org/2000/svg" fill="none" viewBox="0 0 180 209">
  <g clip-path="url(#a)">
    <path fill="#e6e6e6" d="M10.8 180.4S29.5 194 35 194l4-1.6 4.5.3 1 3.2 7.2 1.3-2.4 2.4 8 2 4.7-3.2 1.6 2 5.6-2 1.3 3.2 6.6-2.4 4.4 1.6s.8 4.7 4.8 5.1 9.5 3.2 9.5 3.2l12.4-5.3 1.6-2.6 4.3 1.1 11.6-6.3s-.3 0-3.3-1.2c-3.1-1.2-3.5-2.8-3.5-2.8l-2.2.7s-3.4-1-1-5 .5-3.5.5-3.5l-3.7 1-2-3.1s-4 1.2-4.7 1.6 1.2-2 1.2-2l-1.6-.8.4-2s-1.2-.8.4-2.4-1.2-3.2-1.2-3.2-7.3 2.4-4.7-1.6c2.7-4 .4-5.5.4-5.5L83 160.5l-1.9 2.8s-6.3-1.7-4.3 3.5c0 0-4.4.4-2.8 2.8 0 0-5.2-.6-4 2.5l-4.2-1.2s-3.3-1-.7-1.3-1-1.3-1-1.3 1.2-4.4-2-3.1-6 3-6 3z"/>
    <path fill="#f2f2f2" d="M12 178.8s18.7 13.5 24.3 13.5l4-1.6 4.5.3 1 3.2 7.2 1.3-2.4 2.4 8 2 4.7-3.2 1.6 2 5.6-2 1.3 3.2 6.6-2.4 4.4 1.6s.8 4.7 4.8 5.1 9.5 3.2 9.5 3.2l12.4-5.3 1.5-2.6 4.4 1.2 11.6-6.4-3.4-1.2c-3-1.2-3.4-2.8-3.4-2.8l-2.2.7s-3.4-1-1-5 .5-3.5.5-3.5l-3.7 1-2-3.1s-4 1.2-4.7 1.6 1.2-2 1.2-2l-1.6-.8.4-2s-1.2-.8.4-2.4-1.2-3.1-1.2-3.1-7.3 2.3-4.7-1.7c2.7-4 .4-5.5.4-5.5L84.3 159l-1.9 2.8s-6.3-1.7-4.3 3.5c0 0-4.4.4-2.8 2.8 0 0-5.2-.6-4 2.5l-4.3-1.2s-3.2-1-.6-1.3c2.5-.3-1-1.3-1-1.3s1.2-4.4-2-3c-3.3 1.2-6 3-6 3zM145.7 134s15-3.7 13.5-18.4l2.8.8V111s5.5 9.1 5.5 12.7 2.4 29.4-26.2 24.6zM64.1 10.8l-3.8.2h-6s-4.3-1-5.8-.2l2 1.2s-3.5.3-4.7 2h3.3s-4.5 1.1-5.3 4.3-8.7 10.3-8.7 10.3-16.4 13.1 3.5 31c0 0 2.4 7.6 1.6 8.8s10 2.7 11.2-5.6S54.9 37 54.9 35s5.2-14.3 5.2-14.3m52.5-9.9 3.8.2h6s4.3-1 5.8-.2l-2 1.2s3.5.3 4.7 2h-3.3s4.5 1.1 5.3 4.3 8.8 10.3 8.8 10.3 16.3 13.1-3.6 31c0 0-2.4 7.6-1.6 8.8s-10 2.7-11.1-5.6c-1.2-8.3-3.6-25.8-3.6-27.8s-5.2-14.3-5.2-14.3"/>
    <path fill="#f2f2f2" d="M144.7 148c-.8 4-4.4 6.8-4.4 6.8-1.6 9.9-8.4 5.5-8.4 5.5-.4 1.6-8 .8-8 .8l-1.1-1.5v4.7c0 3.6-4.8 2.4-4.8 2.4-1.2 3.6-8.5 1.6-8.5 1.6-2.9 2.4-8.2 0-8.2 0-7.2-.4-8-6.4-8-6.4l1.2-10.3-7.1.1c-8 7-16.1.8-16.1.8L69 163c-.8 3.6-11.7 2.6-11.7 2.6-2.5 2.6-7.7-.5-7.7-.5-4.3 1.8-6.9-2-6.9-2-6-5.6 5-14.5 5-14.5V128c-4.5-18.3 2-52 2-52a8 8 0 0 1 2.6-3.6c2.6-2 6-2.3 6-2.3s54-4.8 62-4q2.2.2 3.7 2.6c4.1 6.5 3.9 22.4 3.9 22.4 8 3.6 9.9 21 9.9 21 18.3 6.4 7.6 31.8 6.8 35.8"/>
    <path fill="#f2f2f2" d="M114 9s-28.2-21.5-53.7 2c0 0-17.7 43.9-11 54.2 6.8 10.3 26.8 19 26.8 19s12.9 2.9 25 0c12-2.7 25-21.8 25-21.8s.5-50-12-53.4"/>
    <path fill="#ccc" d="M97 25.2c1.7 3.8 5.3 6.7 9.3 7.8.8.2 1-1 .3-1.1a13 13 0 0 1-8.6-7.3c-.3-.7-1.4 0-1 .6M75.8 25a15 15 0 0 1-6.4 7.5c-1 .5-2.3 1-3.4.4-.7-.4-1.3.6-.6 1 2.5 1.3 5.3-.6 7.2-2.2a16 16 0 0 0 4.4-6.3c.3-.7-.9-1-1.2-.3"/>
    <path fill="#fff" d="M106.7 50.5a7.2 7.2 0 1 0 0-14.3 7.2 7.2 0 0 0 0 14.3"/>
    <path fill="#ccc" d="M105.9 48.5a5.6 5.6 0 1 0 0-11.1 5.6 5.6 0 0 0 0 11.1"/>
    <path fill="#fff" d="M107.3 41.2a1.2 1.2 0 1 0 0-2.4 1.2 1.2 0 0 0 0 2.4m-36 9.7a7.2 7.2 0 1 0 0-14.3 7.2 7.2 0 0 0 0 14.3"/>
    <path fill="#ccc" d="M70.5 48.9a5.6 5.6 0 1 0 0-11.1 5.6 5.6 0 0 0 0 11.1"/>
    <path fill="#fff" d="M71.9 41.5a1.2 1.2 0 1 0 0-2.3 1.2 1.2 0 0 0 0 2.3"/>
    <path fill="#ccc" d="M87.4 70.2s-12.8-4-9.6-11.6S91 54 91 54s8.5 1.4 6 7.9c-1.9 4.6-4.9 6.8-9.6 8.4"/>
    <path fill="#ccc" d="M71.3 82.3v-.8s3.8-.5 7.2-4.3c3.1-3.4 7.2-3.7 8.5-3.8v-3.2h.8v4h-.4c-.1 0-4.9-.2-8.3 3.6-3.6 4-7.6 4.5-7.8 4.5"/>
    <path fill="#ccc" d="M105.8 82.7c-.3 0-7.1-2.2-8.7-5.2-1.2-2.3-7.4-3.1-9.7-3.3v-.8c.4 0 8.8.6 10.4 3.7 1.4 2.8 8.1 4.9 8.2 4.9zm-34.2 69.9-.7-.3a36 36 0 0 0 0-30.7l.7-.4c0 .1 8 15 0 31.4m22.5-1c-.6-10 3.4-28 3.4-28.1l.8.2c0 .2-4 18-3.4 27.9zm28.1 8.4-3.1-5.6c-3.3-5.7 4.8-24.2 5.1-25l.7.3s-2 4.8-3.7 10.2q-3.3 10.7-1.5 14l3.2 5.6zm10.1.4-.8-.1c1-4.9.4-8.6.4-8.6l.8-.2c0 .2.6 4-.4 9m-8.7.7c-1-3.8.5-9.5.6-9.7l.8.2s-1.6 5.7-.6 9.3zm-21.9 7.2-.8-.2c1-4 .6-10.4.6-10.4h.8c0 .2.4 6.4-.6 10.6m8.3 0-.9-.2c.5-2.5.4-9.2.4-9.2h.8c0 .2.1 6.8-.4 9.4m8.5-1.7h-.8c.2-3.3-1-6.8-1-6.8l.8-.3c0 .2 1.2 3.7 1 7.1m-61.4-1c-.3-3.6 2.8-9.3 3-9.5l.6.4s-3 5.6-2.8 9zm-7.7-.4c-.5-3.3 2.5-8.9 2.6-9.1l.7.4s-3 5.5-2.5 8.6zm-5.3-.4q-1.3-.7 0-4.9l1.5-3.8.7.3c-1.5 3.3-2.6 7.3-1.8 7.7z"/>
    <path fill="#e6e6e6" d="M14.8 164s3.6 3.7 9.1 3.5c0 0-2.4 5-12.3 6.1 0 0-4.4-2.3-7.2-2.3s-4.7-3.6-4.4-3.8c.4-.2 6 .6 6 .6z"/>
    <path fill="#f2f2f2" d="M14.8 163.2s3.6 3.7 9.1 3.5c0 0-2.4 5-12.3 6.1 0 0-4.4-2.3-7.2-2.3s-4.7-3.6-4.4-3.8c.4-.2 6 .6 6 .6z"/>
    <path fill="#e6e6e6" d="m35 177.2 23.8-7.9 26 9.1-23.9 10zm45.8-9.2 1.4-1.3 17.7 6.1-.8 1.2zm-7.8 2.4 1.8-1 29.4 9.4v1zm13.8 10.4 1.3-1 23.3 7.7-1.5 1.3zm-6.8 3.5.8-1.1 23.4 8.3-1.1 1.2zm-5.6 2.5.4-1.1 23.1 8.5-1.2.5zm-3.1 2.9 1.7-1.4 11.8 5.2-.7 1.2zm-40.6-9.3 1-.5 21.1 8-1.1.4zm-4.7 1.2 2.3-1.2 11.5 6-1.2.8zm93.9-11.7.7 5-1.4 3.3 3.6 1.7 3 3.9v2.1l7.3 1.8s4.2 5.8 7 5 24.6-16.5 24.6-16.5l-40.4-8s-4.8-1-4.4 1.7"/>
    <path fill="#f2f2f2" d="m118.7 168.3.7 5-1.4 3.3 3.6 1.7 3 3.9v2.1l7.3 1.8s4.2 5.8 7 5 24.6-16.5 24.6-16.5l-40.4-8s-4.7-.9-4.4 1.7"/>
    <path fill="#e6e6e6" d="m122.3 174.6 1.3-1.4 19.3 5.6-.7 1zm4.7 6 .5-1.7 9.4 3.5-.5 1.7zm39.8-24.1s-4.1 5.6-10.4 2.8c0 0-2.3 1.6-3.2 2-.8.4-6.1.6-6.1.6l7.5 2.7 4.6 2.7 10.7-1.6s2.4-2 4.8-2 4.5-4.4 4.5-4.4-6.8-.4-7-1.4-3.4 1.3-5.4-1.4m-.9 35.3c.4 2.5 10.6-2.3 10.6-2.3l-4.2-2.2-2-.5h-2.8s-2.4-2-4.8-.9c0 0 2.7 3.3 3.2 5.9"/>
    <path fill="#f2f2f2" d="M167.6 154.9s-4.1 5.6-10.4 2.9l-3.2 2c-.8.3-6.1.5-6.1.5l7.5 2.7 4.6 2.7 10.7-1.6s2.4-2 4.8-2 4.5-4.3 4.5-4.3-6.9-.4-7-1.4c-.3-1-3.4 1.2-5.4-1.5m-.9 35.3c.4 2.5 10.6-2.3 10.6-2.3l-4.3-2.2-1.9-.5h-2.8s-2.4-2-4.8-.9c0 0 2.7 3.4 3.2 5.9"/>
    <path fill="#fff" d="M36.1 177.5s18-2 21.2-.7l1.2 10.3zm29.7 1.7c1.7 0 3.1-.6 3.1-1.3s-1.4-1.4-3.1-1.4-3.2.6-3.2 1.4 1.4 1.3 3.2 1.3"/>
  </g>
  <defs>
    <clipPath id="a">
      <path fill="#fff" d="M0 0h180v209H0z"/>
    </clipPath>
  </defs>
</svg>
