<svg width="24" height="24" viewBox="0 0 24 24" fill="none" xmlns="http://www.w3.org/2000/svg">
<path d="M5.4 2.25C6.19565 2.25 6.95871 2.57101 7.52132 3.14241C8.08393 3.71381 8.4 4.48879 8.4 5.29688C8.4 6.10496 8.08393 6.87994 7.52132 7.45134C6.95871 8.02274 6.19565 8.34375 5.4 8.34375C4.60435 8.34375 3.84129 8.02274 3.27868 7.45134C2.71607 6.87994 2.4 6.10496 2.4 5.29688C2.4 4.48879 2.71607 3.71381 3.27868 3.14241C3.84129 2.57101 4.60435 2.25 5.4 2.25ZM19.2 2.25C19.9956 2.25 20.7587 2.57101 21.3213 3.14241C21.8839 3.71381 22.2 4.48879 22.2 5.29688C22.2 6.10496 21.8839 6.87994 21.3213 7.45134C20.7587 8.02274 19.9956 8.34375 19.2 8.34375C18.4044 8.34375 17.6413 8.02274 17.0787 7.45134C16.5161 6.87994 16.2 6.10496 16.2 5.29688C16.2 4.48879 16.5161 3.71381 17.0787 3.14241C17.6413 2.57101 18.4044 2.25 19.2 2.25ZM0 13.6263C0 11.383 1.7925 9.5625 4.00125 9.5625H5.6025C6.19875 9.5625 6.765 9.6958 7.275 9.93193C7.22625 10.2062 7.20375 10.4918 7.20375 10.7812C7.20375 12.2361 7.83375 13.5425 8.8275 14.4375C8.82 14.4375 8.8125 14.4375 8.80125 14.4375H0.79875C0.36 14.4375 0 14.0719 0 13.6263ZM15.1988 14.4375C15.1912 14.4375 15.1838 14.4375 15.1725 14.4375C16.17 13.5425 16.7963 12.2361 16.7963 10.7812C16.7963 10.4918 16.77 10.21 16.725 9.93193C17.235 9.69199 17.8013 9.5625 18.3975 9.5625H19.9988C22.2075 9.5625 24 11.383 24 13.6263C24 14.0757 23.64 14.4375 23.2013 14.4375H15.2025H15.1988ZM8.4 10.7812C8.4 9.81155 8.77929 8.88157 9.45442 8.19589C10.1295 7.51021 11.0452 7.125 12 7.125C12.9548 7.125 13.8705 7.51021 14.5456 8.19589C15.2207 8.88157 15.6 9.81155 15.6 10.7812C15.6 11.7509 15.2207 12.6809 14.5456 13.3666C13.8705 14.0523 12.9548 14.4375 12 14.4375C11.0452 14.4375 10.1295 14.0523 9.45442 13.3666C8.77929 12.6809 8.4 11.7509 8.4 10.7812ZM4.8 20.7331C4.8 17.93 7.03875 15.6562 9.79875 15.6562H14.1975C16.9613 15.6562 19.2 17.93 19.2 20.7331C19.2 21.293 18.7537 21.75 18.1987 21.75H5.7975C5.24625 21.75 4.79625 21.2968 4.79625 20.7331H4.8Z" fill="#FCB315"/>
</svg>
