<svg xmlns="http://www.w3.org/2000/svg" fill="none" viewBox="0 0 30 24">
  <g clip-path="url(#a)">
    <path fill="currentColor" d="M6.8 0a3.7 3.7 0 1 1 0 7.5 3.7 3.7 0 0 1 0-7.5M24 0a3.7 3.7 0 1 1 0 7.5A3.7 3.7 0 0 1 24 0M0 14a5 5 0 0 1 5-5h2a5 5 0 0 1 2 .5v1a6 6 0 0 0 2 4.5H1a1 1 0 0 1-1-1m19 1a6 6 0 0 0 2-5.5 5 5 0 0 1 2-.5h2a5 5 0 0 1 5 5q0 1-1 1zm-8.5-4.5a4.5 4.5 0 1 1 9 0 4.5 4.5 0 0 1-9 0M6 22.7c0-3.4 2.8-6.2 6.2-6.2h5.5c3.5 0 6.3 2.8 6.3 6.2q-.1 1.2-1.3 1.3H7.2q-1-.1-1.2-1.3"/>
  </g>
  <defs>
    <clipPath id="a">
      <path fill="#fff" d="M0 0h30v24H0z"/>
    </clipPath>
  </defs>
</svg>
