<svg width="345" height="208" viewBox="0 0 345 208" fill="none" xmlns="http://www.w3.org/2000/svg">
<path d="M4.193 188.455V203H1.9984V188.455H4.193ZM9.34215 196.523V203H7.21857V192.091H9.25692V193.866H9.39187C9.64281 193.289 10.0358 192.825 10.5708 192.474C11.1106 192.124 11.7901 191.949 12.6092 191.949C13.3526 191.949 14.0036 192.105 14.5623 192.418C15.121 192.725 15.5543 193.185 15.862 193.795C16.1698 194.406 16.3237 195.161 16.3237 196.061V203H14.2001V196.317C14.2001 195.526 13.9941 194.908 13.5822 194.463C13.1703 194.013 12.6045 193.788 11.8848 193.788C11.3923 193.788 10.9544 193.895 10.5708 194.108C10.1921 194.321 9.89139 194.634 9.66886 195.045C9.45105 195.453 9.34215 195.945 9.34215 196.523ZM27.3464 194.754L25.4217 195.095C25.3412 194.849 25.2134 194.615 25.0382 194.392C24.8677 194.17 24.6357 193.987 24.3422 193.845C24.0486 193.703 23.6816 193.632 23.2413 193.632C22.64 193.632 22.1381 193.767 21.7356 194.037C21.3332 194.302 21.1319 194.645 21.1319 195.067C21.1319 195.431 21.2669 195.725 21.5368 195.947C21.8066 196.17 22.2422 196.352 22.8436 196.494L24.5765 196.892C25.5803 197.124 26.3284 197.482 26.8208 197.964C27.3133 198.447 27.5595 199.075 27.5595 199.847C27.5595 200.5 27.3701 201.082 26.9913 201.594C26.6172 202.1 26.094 202.498 25.4217 202.787C24.7541 203.076 23.9799 203.22 23.0993 203.22C21.8777 203.22 20.881 202.96 20.1092 202.439C19.3374 201.913 18.8639 201.168 18.6887 200.202L20.7413 199.889C20.8691 200.424 21.1319 200.829 21.5297 201.104C21.9274 201.374 22.4458 201.509 23.085 201.509C23.7811 201.509 24.3374 201.364 24.7541 201.075C25.1708 200.782 25.3791 200.424 25.3791 200.003C25.3791 199.662 25.2512 199.375 24.9956 199.143C24.7446 198.911 24.3587 198.736 23.8379 198.618L21.9913 198.213C20.9733 197.981 20.2205 197.612 19.7328 197.105C19.2498 196.598 19.0083 195.957 19.0083 195.18C19.0083 194.536 19.1883 193.973 19.5481 193.49C19.908 193.007 20.4051 192.631 21.0396 192.361C21.6741 192.086 22.4009 191.949 23.22 191.949C24.399 191.949 25.327 192.205 26.0041 192.716C26.6812 193.223 27.1286 193.902 27.3464 194.754ZM34.9867 192.091V193.795H29.0279V192.091H34.9867ZM30.6259 189.477H32.7495V199.797C32.7495 200.209 32.811 200.519 32.9341 200.727C33.0572 200.931 33.2158 201.071 33.41 201.146C33.6088 201.217 33.8243 201.253 34.0563 201.253C34.2267 201.253 34.3759 201.241 34.5037 201.217C34.6316 201.194 34.731 201.175 34.802 201.161L35.1855 202.915C35.0624 202.962 34.8873 203.009 34.66 203.057C34.4327 203.109 34.1486 203.137 33.8077 203.142C33.249 203.152 32.7282 203.052 32.2452 202.844C31.7623 202.635 31.3716 202.313 31.0733 201.878C30.775 201.442 30.6259 200.895 30.6259 200.237V189.477ZM37.3358 203V192.091H39.3883V193.824H39.502C39.7008 193.237 40.0512 192.775 40.5531 192.439C41.0597 192.098 41.6326 191.928 42.2718 191.928C42.4044 191.928 42.5607 191.932 42.7406 191.942C42.9252 191.951 43.0697 191.963 43.1738 191.977V194.009C43.0886 193.985 42.9371 193.959 42.7193 193.93C42.5015 193.897 42.2837 193.881 42.0659 193.881C41.564 193.881 41.1165 193.987 40.7235 194.2C40.3353 194.409 40.0275 194.7 39.8002 195.074C39.573 195.443 39.4593 195.865 39.4593 196.338V203H37.3358ZM51.9221 198.476V192.091H54.0527V203H51.9647V201.111H51.851C51.6001 201.693 51.1976 202.179 50.6436 202.567C50.0944 202.95 49.4102 203.142 48.5911 203.142C47.8903 203.142 47.2701 202.988 46.7303 202.68C46.1953 202.368 45.7739 201.906 45.4661 201.295C45.1631 200.685 45.0115 199.929 45.0115 199.03V192.091H47.1351V198.774C47.1351 199.518 47.3411 200.109 47.753 200.55C48.165 200.99 48.7 201.21 49.3581 201.21C49.7559 201.21 50.1512 201.111 50.5442 200.912C50.9419 200.713 51.271 200.412 51.5314 200.01C51.7966 199.607 51.9268 199.096 51.9221 198.476ZM61.5012 203.22C60.4454 203.22 59.5363 202.981 58.774 202.503C58.0164 202.02 57.434 201.355 57.0268 200.507C56.6196 199.66 56.416 198.689 56.416 197.595C56.416 196.487 56.6243 195.509 57.041 194.662C57.4577 193.81 58.0448 193.144 58.8024 192.666C59.56 192.188 60.4525 191.949 61.4799 191.949C62.3085 191.949 63.0472 192.103 63.6958 192.411C64.3445 192.714 64.8677 193.14 65.2654 193.689C65.6679 194.238 65.907 194.88 65.9828 195.614H63.916C63.8024 195.102 63.542 194.662 63.1348 194.293C62.7323 193.923 62.1925 193.739 61.5154 193.739C60.9236 193.739 60.4051 193.895 59.96 194.207C59.5197 194.515 59.1764 194.955 58.9302 195.528C58.684 196.097 58.5609 196.769 58.5609 197.545C58.5609 198.341 58.6816 199.027 58.9231 199.605C59.1646 200.183 59.5055 200.63 59.9458 200.947C60.3909 201.265 60.9141 201.423 61.5154 201.423C61.9179 201.423 62.2825 201.35 62.6092 201.203C62.9406 201.052 63.2176 200.836 63.4402 200.557C63.6674 200.277 63.8261 199.941 63.916 199.548H65.9828C65.907 200.254 65.6774 200.884 65.2939 201.438C64.9103 201.991 64.3966 202.427 63.7527 202.744C63.1135 203.062 62.363 203.22 61.5012 203.22ZM73.3461 192.091V193.795H67.3873V192.091H73.3461ZM68.9853 189.477H71.1088V199.797C71.1088 200.209 71.1704 200.519 71.2935 200.727C71.4166 200.931 71.5752 201.071 71.7694 201.146C71.9682 201.217 72.1837 201.253 72.4157 201.253C72.5861 201.253 72.7353 201.241 72.8631 201.217C72.9909 201.194 73.0904 201.175 73.1614 201.161L73.5449 202.915C73.4218 202.962 73.2466 203.009 73.0194 203.057C72.7921 203.109 72.508 203.137 72.1671 203.142C71.6084 203.152 71.0875 203.052 70.6046 202.844C70.1216 202.635 69.731 202.313 69.4327 201.878C69.1344 201.442 68.9853 200.895 68.9853 200.237V189.477ZM80.1731 203.22C79.1504 203.22 78.2579 202.986 77.4956 202.517C76.7333 202.048 76.1414 201.393 75.72 200.55C75.2986 199.707 75.0879 198.722 75.0879 197.595C75.0879 196.464 75.2986 195.474 75.72 194.626C76.1414 193.779 76.7333 193.121 77.4956 192.652C78.2579 192.183 79.1504 191.949 80.1731 191.949C81.1958 191.949 82.0884 192.183 82.8507 192.652C83.613 193.121 84.2048 193.779 84.6262 194.626C85.0476 195.474 85.2583 196.464 85.2583 197.595C85.2583 198.722 85.0476 199.707 84.6262 200.55C84.2048 201.393 83.613 202.048 82.8507 202.517C82.0884 202.986 81.1958 203.22 80.1731 203.22ZM80.1802 201.438C80.8431 201.438 81.3923 201.262 81.8279 200.912C82.2636 200.562 82.5855 200.095 82.7939 199.513C83.0069 198.93 83.1135 198.289 83.1135 197.588C83.1135 196.892 83.0069 196.253 82.7939 195.67C82.5855 195.083 82.2636 194.612 81.8279 194.257C81.3923 193.902 80.8431 193.724 80.1802 193.724C79.5126 193.724 78.9586 193.902 78.5183 194.257C78.0827 194.612 77.7583 195.083 77.5453 195.67C77.3369 196.253 77.2328 196.892 77.2328 197.588C77.2328 198.289 77.3369 198.93 77.5453 199.513C77.7583 200.095 78.0827 200.562 78.5183 200.912C78.9586 201.262 79.5126 201.438 80.1802 201.438ZM87.6287 203V192.091H89.6813V193.824H89.7949C89.9938 193.237 90.3442 192.775 90.8461 192.439C91.3527 192.098 91.9256 191.928 92.5648 191.928C92.6974 191.928 92.8536 191.932 93.0336 191.942C93.2182 191.951 93.3626 191.963 93.4668 191.977V194.009C93.3816 193.985 93.2301 193.959 93.0123 193.93C92.7944 193.897 92.5766 193.881 92.3588 193.881C91.8569 193.881 91.4095 193.987 91.0165 194.2C90.6283 194.409 90.3205 194.7 90.0932 195.074C89.8659 195.443 89.7523 195.865 89.7523 196.338V203H87.6287ZM103.479 194.754L101.555 195.095C101.474 194.849 101.346 194.615 101.171 194.392C101.001 194.17 100.769 193.987 100.475 193.845C100.181 193.703 99.8145 193.632 99.3741 193.632C98.7728 193.632 98.2709 193.767 97.8684 194.037C97.466 194.302 97.2647 194.645 97.2647 195.067C97.2647 195.431 97.3997 195.725 97.6696 195.947C97.9395 196.17 98.3751 196.352 98.9764 196.494L100.709 196.892C101.713 197.124 102.461 197.482 102.954 197.964C103.446 198.447 103.692 199.075 103.692 199.847C103.692 200.5 103.503 201.082 103.124 201.594C102.75 202.1 102.227 202.498 101.555 202.787C100.887 203.076 100.113 203.22 99.2321 203.22C98.0105 203.22 97.0138 202.96 96.242 202.439C95.4702 201.913 94.9967 201.168 94.8216 200.202L96.8741 199.889C97.002 200.424 97.2647 200.829 97.6625 201.104C98.0602 201.374 98.5787 201.509 99.2179 201.509C99.9139 201.509 100.47 201.364 100.887 201.075C101.304 200.782 101.512 200.424 101.512 200.003C101.512 199.662 101.384 199.375 101.128 199.143C100.877 198.911 100.492 198.736 99.9707 198.618L98.1241 198.213C97.1061 197.981 96.3533 197.612 95.8656 197.105C95.3826 196.598 95.1412 195.957 95.1412 195.18C95.1412 194.536 95.3211 193.973 95.6809 193.49C96.0408 193.007 96.5379 192.631 97.1724 192.361C97.8069 192.086 98.5337 191.949 99.3528 191.949C100.532 191.949 101.46 192.205 102.137 192.716C102.814 193.223 103.261 193.902 103.479 194.754ZM111.491 203V188.455H116.675C117.802 188.455 118.737 188.649 119.481 189.037C120.229 189.425 120.787 189.963 121.157 190.649C121.526 191.331 121.711 192.119 121.711 193.014C121.711 193.904 121.524 194.688 121.15 195.365C120.78 196.037 120.222 196.561 119.474 196.935C118.73 197.309 117.795 197.496 116.668 197.496H112.741V195.607H116.469C117.18 195.607 117.757 195.505 118.202 195.301C118.652 195.098 118.981 194.802 119.189 194.413C119.398 194.025 119.502 193.559 119.502 193.014C119.502 192.465 119.395 191.989 119.182 191.587C118.974 191.184 118.645 190.876 118.195 190.663C117.75 190.446 117.165 190.337 116.441 190.337H113.685V203H111.491ZM118.671 196.438L122.265 203H119.765L116.242 196.438H118.671ZM128.776 203.22C127.701 203.22 126.775 202.991 125.999 202.531C125.227 202.067 124.63 201.416 124.209 200.578C123.792 199.735 123.584 198.748 123.584 197.616C123.584 196.499 123.792 195.514 124.209 194.662C124.63 193.81 125.218 193.144 125.97 192.666C126.728 192.188 127.613 191.949 128.627 191.949C129.242 191.949 129.839 192.051 130.416 192.254C130.994 192.458 131.512 192.777 131.972 193.213C132.431 193.649 132.793 194.214 133.058 194.911C133.324 195.602 133.456 196.442 133.456 197.432V198.185H124.784V196.594H131.375C131.375 196.035 131.262 195.54 131.034 195.109C130.807 194.674 130.487 194.33 130.075 194.08C129.668 193.829 129.19 193.703 128.641 193.703C128.044 193.703 127.523 193.85 127.078 194.143C126.638 194.432 126.297 194.811 126.056 195.28C125.819 195.744 125.7 196.248 125.7 196.793V198.036C125.7 198.765 125.828 199.385 126.084 199.896C126.344 200.408 126.707 200.798 127.171 201.068C127.635 201.333 128.177 201.466 128.797 201.466C129.2 201.466 129.566 201.409 129.898 201.295C130.229 201.177 130.516 201.002 130.757 200.77C130.999 200.538 131.183 200.251 131.311 199.911L133.321 200.273C133.16 200.865 132.871 201.383 132.455 201.828C132.043 202.268 131.524 202.612 130.899 202.858C130.279 203.099 129.571 203.22 128.776 203.22ZM140.386 207.318C139.52 207.318 138.774 207.205 138.149 206.977C137.529 206.75 137.022 206.449 136.629 206.075C136.236 205.701 135.943 205.292 135.748 204.847L137.574 204.094C137.702 204.302 137.872 204.522 138.085 204.754C138.303 204.991 138.596 205.192 138.966 205.358C139.34 205.524 139.82 205.607 140.407 205.607C141.212 205.607 141.878 205.41 142.403 205.017C142.929 204.629 143.192 204.009 143.192 203.156V201.011H143.057C142.929 201.243 142.744 201.501 142.503 201.786C142.266 202.07 141.939 202.316 141.523 202.524C141.106 202.732 140.564 202.837 139.896 202.837C139.034 202.837 138.258 202.635 137.567 202.233C136.88 201.826 136.336 201.227 135.933 200.436C135.535 199.641 135.336 198.663 135.336 197.503C135.336 196.343 135.533 195.348 135.926 194.52C136.324 193.691 136.868 193.057 137.559 192.616C138.251 192.171 139.034 191.949 139.91 191.949C140.587 191.949 141.134 192.062 141.551 192.29C141.968 192.512 142.292 192.773 142.524 193.071C142.761 193.369 142.943 193.632 143.071 193.859H143.227V192.091H145.308V203.241C145.308 204.179 145.09 204.948 144.655 205.55C144.219 206.151 143.63 206.596 142.886 206.885C142.148 207.174 141.314 207.318 140.386 207.318ZM140.365 201.075C140.976 201.075 141.492 200.933 141.913 200.649C142.339 200.36 142.661 199.948 142.879 199.413C143.102 198.874 143.213 198.227 143.213 197.474C143.213 196.741 143.104 196.094 142.886 195.536C142.668 194.977 142.349 194.541 141.927 194.229C141.506 193.911 140.985 193.753 140.365 193.753C139.726 193.753 139.193 193.919 138.767 194.25C138.341 194.577 138.019 195.022 137.801 195.585C137.588 196.149 137.481 196.778 137.481 197.474C137.481 198.189 137.59 198.817 137.808 199.357C138.026 199.896 138.348 200.318 138.774 200.621C139.205 200.924 139.735 201.075 140.365 201.075ZM148.156 203V192.091H150.28V203H148.156ZM149.229 190.408C148.859 190.408 148.542 190.285 148.277 190.038C148.016 189.787 147.886 189.489 147.886 189.143C147.886 188.793 148.016 188.495 148.277 188.249C148.542 187.998 148.859 187.872 149.229 187.872C149.598 187.872 149.913 187.998 150.173 188.249C150.438 188.495 150.571 188.793 150.571 189.143C150.571 189.489 150.438 189.787 150.173 190.038C149.913 190.285 149.598 190.408 149.229 190.408ZM161.311 194.754L159.387 195.095C159.306 194.849 159.178 194.615 159.003 194.392C158.833 194.17 158.601 193.987 158.307 193.845C158.013 193.703 157.646 193.632 157.206 193.632C156.605 193.632 156.103 193.767 155.7 194.037C155.298 194.302 155.097 194.645 155.097 195.067C155.097 195.431 155.232 195.725 155.502 195.947C155.771 196.17 156.207 196.352 156.808 196.494L158.541 196.892C159.545 197.124 160.293 197.482 160.786 197.964C161.278 198.447 161.524 199.075 161.524 199.847C161.524 200.5 161.335 201.082 160.956 201.594C160.582 202.1 160.059 202.498 159.387 202.787C158.719 203.076 157.945 203.22 157.064 203.22C155.843 203.22 154.846 202.96 154.074 202.439C153.302 201.913 152.829 201.168 152.654 200.202L154.706 199.889C154.834 200.424 155.097 200.829 155.494 201.104C155.892 201.374 156.411 201.509 157.05 201.509C157.746 201.509 158.302 201.364 158.719 201.075C159.136 200.782 159.344 200.424 159.344 200.003C159.344 199.662 159.216 199.375 158.96 199.143C158.709 198.911 158.324 198.736 157.803 198.618L155.956 198.213C154.938 197.981 154.185 197.612 153.698 197.105C153.215 196.598 152.973 195.957 152.973 195.18C152.973 194.536 153.153 193.973 153.513 193.49C153.873 193.007 154.37 192.631 155.004 192.361C155.639 192.086 156.366 191.949 157.185 191.949C158.364 191.949 159.292 192.205 159.969 192.716C160.646 193.223 161.093 193.902 161.311 194.754ZM168.952 192.091V193.795H162.993V192.091H168.952ZM164.591 189.477H166.714V199.797C166.714 200.209 166.776 200.519 166.899 200.727C167.022 200.931 167.181 201.071 167.375 201.146C167.574 201.217 167.789 201.253 168.021 201.253C168.192 201.253 168.341 201.241 168.469 201.217C168.596 201.194 168.696 201.175 168.767 201.161L169.15 202.915C169.027 202.962 168.852 203.009 168.625 203.057C168.398 203.109 168.113 203.137 167.773 203.142C167.214 203.152 166.693 203.052 166.21 202.844C165.727 202.635 165.336 202.313 165.038 201.878C164.74 201.442 164.591 200.895 164.591 200.237V189.477ZM175.885 203.22C174.81 203.22 173.885 202.991 173.108 202.531C172.336 202.067 171.74 201.416 171.318 200.578C170.902 199.735 170.693 198.748 170.693 197.616C170.693 196.499 170.902 195.514 171.318 194.662C171.74 193.81 172.327 193.144 173.08 192.666C173.837 192.188 174.723 191.949 175.736 191.949C176.352 191.949 176.948 192.051 177.526 192.254C178.103 192.458 178.622 192.777 179.081 193.213C179.54 193.649 179.903 194.214 180.168 194.911C180.433 195.602 180.566 196.442 180.566 197.432V198.185H171.894V196.594H178.485C178.485 196.035 178.371 195.54 178.144 195.109C177.916 194.674 177.597 194.33 177.185 194.08C176.778 193.829 176.299 193.703 175.75 193.703C175.154 193.703 174.633 193.85 174.188 194.143C173.747 194.432 173.406 194.811 173.165 195.28C172.928 195.744 172.81 196.248 172.81 196.793V198.036C172.81 198.765 172.938 199.385 173.193 199.896C173.454 200.408 173.816 200.798 174.28 201.068C174.744 201.333 175.286 201.466 175.906 201.466C176.309 201.466 176.676 201.409 177.007 201.295C177.339 201.177 177.625 201.002 177.867 200.77C178.108 200.538 178.293 200.251 178.421 199.911L180.431 200.273C180.27 200.865 179.981 201.383 179.564 201.828C179.152 202.268 178.634 202.612 178.009 202.858C177.388 203.099 176.681 203.22 175.885 203.22ZM182.922 203V192.091H184.974V193.824H185.088C185.287 193.237 185.637 192.775 186.139 192.439C186.646 192.098 187.219 191.928 187.858 191.928C187.99 191.928 188.147 191.932 188.327 191.942C188.511 191.951 188.656 191.963 188.76 191.977V194.009C188.675 193.985 188.523 193.959 188.305 193.93C188.087 193.897 187.87 193.881 187.652 193.881C187.15 193.881 186.702 193.987 186.309 194.2C185.921 194.409 185.613 194.7 185.386 195.074C185.159 195.443 185.045 195.865 185.045 196.338V203H182.922ZM194.909 203.22C193.834 203.22 192.908 202.991 192.132 202.531C191.36 202.067 190.763 201.416 190.342 200.578C189.925 199.735 189.717 198.748 189.717 197.616C189.717 196.499 189.925 195.514 190.342 194.662C190.763 193.81 191.35 193.144 192.103 192.666C192.861 192.188 193.746 191.949 194.759 191.949C195.375 191.949 195.972 192.051 196.549 192.254C197.127 192.458 197.645 192.777 198.105 193.213C198.564 193.649 198.926 194.214 199.191 194.911C199.456 195.602 199.589 196.442 199.589 197.432V198.185H190.917V196.594H197.508C197.508 196.035 197.394 195.54 197.167 195.109C196.94 194.674 196.62 194.33 196.208 194.08C195.801 193.829 195.323 193.703 194.774 193.703C194.177 193.703 193.656 193.85 193.211 194.143C192.771 194.432 192.43 194.811 192.188 195.28C191.952 195.744 191.833 196.248 191.833 196.793V198.036C191.833 198.765 191.961 199.385 192.217 199.896C192.477 200.408 192.839 200.798 193.303 201.068C193.767 201.333 194.31 201.466 194.93 201.466C195.332 201.466 195.699 201.409 196.031 201.295C196.362 201.177 196.649 201.002 196.89 200.77C197.132 200.538 197.316 200.251 197.444 199.911L199.454 200.273C199.293 200.865 199.004 201.383 198.588 201.828C198.176 202.268 197.657 202.612 197.032 202.858C196.412 203.099 195.704 203.22 194.909 203.22ZM206.029 203.213C205.148 203.213 204.362 202.988 203.671 202.538C202.984 202.084 202.445 201.437 202.052 200.599C201.663 199.757 201.469 198.746 201.469 197.567C201.469 196.388 201.666 195.379 202.059 194.541C202.456 193.703 203.001 193.062 203.692 192.616C204.384 192.171 205.167 191.949 206.043 191.949C206.72 191.949 207.265 192.062 207.677 192.29C208.093 192.512 208.415 192.773 208.643 193.071C208.875 193.369 209.055 193.632 209.182 193.859H209.31V188.455H211.434V203H209.36V201.303H209.182C209.055 201.535 208.87 201.8 208.628 202.098C208.392 202.396 208.065 202.657 207.648 202.879C207.232 203.102 206.692 203.213 206.029 203.213ZM206.498 201.402C207.108 201.402 207.625 201.241 208.046 200.919C208.472 200.592 208.794 200.14 209.012 199.562C209.234 198.985 209.346 198.312 209.346 197.545C209.346 196.788 209.237 196.125 209.019 195.557C208.801 194.989 208.482 194.546 208.06 194.229C207.639 193.911 207.118 193.753 206.498 193.753C205.858 193.753 205.326 193.919 204.9 194.25C204.474 194.581 204.152 195.034 203.934 195.607C203.721 196.179 203.614 196.826 203.614 197.545C203.614 198.275 203.723 198.93 203.941 199.513C204.159 200.095 204.481 200.557 204.907 200.898C205.338 201.234 205.868 201.402 206.498 201.402ZM221.157 203H218.827L224.062 188.455H226.597L231.831 203H229.502L225.39 191.097H225.276L221.157 203ZM221.547 197.304H229.104V199.151H221.547V197.304ZM233.762 207.091V192.091H235.835V193.859H236.013C236.136 193.632 236.314 193.369 236.546 193.071C236.778 192.773 237.1 192.512 237.512 192.29C237.923 192.062 238.468 191.949 239.145 191.949C240.026 191.949 240.812 192.171 241.503 192.616C242.194 193.062 242.736 193.703 243.129 194.541C243.527 195.379 243.726 196.388 243.726 197.567C243.726 198.746 243.53 199.757 243.137 200.599C242.744 201.437 242.204 202.084 241.517 202.538C240.831 202.988 240.047 203.213 239.166 203.213C238.503 203.213 237.961 203.102 237.54 202.879C237.123 202.657 236.797 202.396 236.56 202.098C236.323 201.8 236.141 201.535 236.013 201.303H235.885V207.091H233.762ZM235.843 197.545C235.843 198.312 235.954 198.985 236.176 199.562C236.399 200.14 236.721 200.592 237.142 200.919C237.564 201.241 238.08 201.402 238.691 201.402C239.325 201.402 239.855 201.234 240.281 200.898C240.708 200.557 241.03 200.095 241.247 199.513C241.47 198.93 241.581 198.275 241.581 197.545C241.581 196.826 241.472 196.179 241.254 195.607C241.041 195.034 240.719 194.581 240.289 194.25C239.862 193.919 239.33 193.753 238.691 193.753C238.075 193.753 237.554 193.911 237.128 194.229C236.707 194.546 236.387 194.989 236.169 195.557C235.951 196.125 235.843 196.788 235.843 197.545ZM246.105 207.091V192.091H248.179V193.859H248.357C248.48 193.632 248.657 193.369 248.889 193.071C249.121 192.773 249.443 192.512 249.855 192.29C250.267 192.062 250.812 191.949 251.489 191.949C252.369 191.949 253.155 192.171 253.847 192.616C254.538 193.062 255.08 193.703 255.473 194.541C255.871 195.379 256.07 196.388 256.07 197.567C256.07 198.746 255.873 199.757 255.48 200.599C255.087 201.437 254.548 202.084 253.861 202.538C253.174 202.988 252.391 203.213 251.51 203.213C250.847 203.213 250.305 203.102 249.884 202.879C249.467 202.657 249.14 202.396 248.904 202.098C248.667 201.8 248.485 201.535 248.357 201.303H248.229V207.091H246.105ZM248.186 197.545C248.186 198.312 248.298 198.985 248.52 199.562C248.743 200.14 249.065 200.592 249.486 200.919C249.907 201.241 250.423 201.402 251.034 201.402C251.669 201.402 252.199 201.234 252.625 200.898C253.051 200.557 253.373 200.095 253.591 199.513C253.814 198.93 253.925 198.275 253.925 197.545C253.925 196.826 253.816 196.179 253.598 195.607C253.385 195.034 253.063 194.581 252.632 194.25C252.206 193.919 251.673 193.753 251.034 193.753C250.419 193.753 249.898 193.911 249.472 194.229C249.05 194.546 248.731 194.989 248.513 195.557C248.295 196.125 248.186 196.788 248.186 197.545ZM263.151 203.22C262.076 203.22 261.15 202.991 260.374 202.531C259.602 202.067 259.005 201.416 258.584 200.578C258.167 199.735 257.959 198.748 257.959 197.616C257.959 196.499 258.167 195.514 258.584 194.662C259.005 193.81 259.593 193.144 260.345 192.666C261.103 192.188 261.988 191.949 263.002 191.949C263.617 191.949 264.214 192.051 264.791 192.254C265.369 192.458 265.887 192.777 266.347 193.213C266.806 193.649 267.168 194.214 267.433 194.911C267.699 195.602 267.831 196.442 267.831 197.432V198.185H259.159V196.594H265.75C265.75 196.035 265.637 195.54 265.409 195.109C265.182 194.674 264.862 194.33 264.45 194.08C264.043 193.829 263.565 193.703 263.016 193.703C262.419 193.703 261.898 193.85 261.453 194.143C261.013 194.432 260.672 194.811 260.431 195.28C260.194 195.744 260.075 196.248 260.075 196.793V198.036C260.075 198.765 260.203 199.385 260.459 199.896C260.719 200.408 261.082 200.798 261.546 201.068C262.01 201.333 262.552 201.466 263.172 201.466C263.575 201.466 263.941 201.409 264.273 201.295C264.604 201.177 264.891 201.002 265.132 200.77C265.374 200.538 265.558 200.251 265.686 199.911L267.696 200.273C267.535 200.865 267.246 201.383 266.83 201.828C266.418 202.268 265.899 202.612 265.274 202.858C264.654 203.099 263.946 203.22 263.151 203.22ZM273.362 203.241C272.671 203.241 272.046 203.114 271.487 202.858C270.928 202.598 270.486 202.221 270.159 201.729C269.837 201.236 269.676 200.633 269.676 199.918C269.676 199.302 269.794 198.795 270.031 198.398C270.268 198 270.587 197.685 270.99 197.453C271.392 197.221 271.842 197.046 272.339 196.928C272.836 196.809 273.343 196.719 273.859 196.658C274.513 196.582 275.043 196.52 275.45 196.473C275.857 196.421 276.153 196.338 276.338 196.224C276.523 196.111 276.615 195.926 276.615 195.67V195.621C276.615 195 276.44 194.52 276.089 194.179C275.744 193.838 275.228 193.668 274.541 193.668C273.826 193.668 273.263 193.826 272.851 194.143C272.443 194.456 272.162 194.804 272.006 195.188L270.01 194.733C270.247 194.07 270.592 193.535 271.047 193.128C271.506 192.716 272.034 192.418 272.631 192.233C273.227 192.044 273.854 191.949 274.513 191.949C274.948 191.949 275.41 192.001 275.898 192.105C276.39 192.205 276.849 192.389 277.275 192.659C277.706 192.929 278.059 193.315 278.334 193.817C278.608 194.314 278.746 194.96 278.746 195.756V203H276.672V201.509H276.586C276.449 201.783 276.243 202.053 275.969 202.318C275.694 202.583 275.341 202.804 274.91 202.979C274.479 203.154 273.963 203.241 273.362 203.241ZM273.824 201.537C274.411 201.537 274.913 201.421 275.329 201.189C275.751 200.957 276.07 200.654 276.288 200.28C276.511 199.901 276.622 199.496 276.622 199.065V197.659C276.546 197.735 276.399 197.806 276.182 197.872C275.969 197.934 275.725 197.988 275.45 198.036C275.175 198.078 274.908 198.118 274.648 198.156C274.387 198.189 274.169 198.218 273.994 198.241C273.582 198.294 273.206 198.381 272.865 198.504C272.529 198.627 272.259 198.805 272.055 199.037C271.856 199.264 271.757 199.567 271.757 199.946C271.757 200.472 271.951 200.869 272.339 201.139C272.728 201.404 273.222 201.537 273.824 201.537ZM281.574 203V192.091H283.627V193.824H283.74C283.939 193.237 284.289 192.775 284.791 192.439C285.298 192.098 285.871 191.928 286.51 191.928C286.643 191.928 286.799 191.932 286.979 191.942C287.164 191.951 287.308 191.963 287.412 191.977V194.009C287.327 193.985 287.175 193.959 286.958 193.93C286.74 193.897 286.522 193.881 286.304 193.881C285.802 193.881 285.355 193.987 284.962 194.2C284.574 194.409 284.266 194.7 284.039 195.074C283.811 195.443 283.698 195.865 283.698 196.338V203H281.574ZM294.713 203V188.455H296.908V194.776H304.159V188.455H306.361V203H304.159V196.658H296.908V203H294.713ZM314.088 203.22C313.013 203.22 312.088 202.991 311.311 202.531C310.539 202.067 309.943 201.416 309.521 200.578C309.105 199.735 308.896 198.748 308.896 197.616C308.896 196.499 309.105 195.514 309.521 194.662C309.943 193.81 310.53 193.144 311.283 192.666C312.04 192.188 312.926 191.949 313.939 191.949C314.555 191.949 315.151 192.051 315.729 192.254C316.307 192.458 316.825 192.777 317.284 193.213C317.744 193.649 318.106 194.214 318.371 194.911C318.636 195.602 318.769 196.442 318.769 197.432V198.185H310.097V196.594H316.688C316.688 196.035 316.574 195.54 316.347 195.109C316.119 194.674 315.8 194.33 315.388 194.08C314.981 193.829 314.503 193.703 313.953 193.703C313.357 193.703 312.836 193.85 312.391 194.143C311.95 194.432 311.61 194.811 311.368 195.28C311.131 195.744 311.013 196.248 311.013 196.793V198.036C311.013 198.765 311.141 199.385 311.396 199.896C311.657 200.408 312.019 200.798 312.483 201.068C312.947 201.333 313.489 201.466 314.11 201.466C314.512 201.466 314.879 201.409 315.21 201.295C315.542 201.177 315.828 201.002 316.07 200.77C316.311 200.538 316.496 200.251 316.624 199.911L318.634 200.273C318.473 200.865 318.184 201.383 317.767 201.828C317.355 202.268 316.837 202.612 316.212 202.858C315.592 203.099 314.884 203.22 314.088 203.22ZM321.125 203V192.091H323.177V193.824H323.291C323.49 193.237 323.84 192.775 324.342 192.439C324.849 192.098 325.422 191.928 326.061 191.928C326.193 191.928 326.35 191.932 326.53 191.942C326.714 191.951 326.859 191.963 326.963 191.977V194.009C326.878 193.985 326.726 193.959 326.508 193.93C326.291 193.897 326.073 193.881 325.855 193.881C325.353 193.881 324.906 193.987 324.513 194.2C324.124 194.409 323.817 194.7 323.589 195.074C323.362 195.443 323.248 195.865 323.248 196.338V203H321.125ZM333.112 203.22C332.037 203.22 331.111 202.991 330.335 202.531C329.563 202.067 328.966 201.416 328.545 200.578C328.128 199.735 327.92 198.748 327.92 197.616C327.92 196.499 328.128 195.514 328.545 194.662C328.966 193.81 329.553 193.144 330.306 192.666C331.064 192.188 331.949 191.949 332.963 191.949C333.578 191.949 334.175 192.051 334.752 192.254C335.33 192.458 335.848 192.777 336.308 193.213C336.767 193.649 337.129 194.214 337.394 194.911C337.66 195.602 337.792 196.442 337.792 197.432V198.185H329.12V196.594H335.711C335.711 196.035 335.597 195.54 335.37 195.109C335.143 194.674 334.823 194.33 334.411 194.08C334.004 193.829 333.526 193.703 332.977 193.703C332.38 193.703 331.859 193.85 331.414 194.143C330.974 194.432 330.633 194.811 330.392 195.28C330.155 195.744 330.036 196.248 330.036 196.793V198.036C330.036 198.765 330.164 199.385 330.42 199.896C330.68 200.408 331.043 200.798 331.507 201.068C331.971 201.333 332.513 201.466 333.133 201.466C333.535 201.466 333.902 201.409 334.234 201.295C334.565 201.177 334.852 201.002 335.093 200.77C335.335 200.538 335.519 200.251 335.647 199.911L337.657 200.273C337.496 200.865 337.207 201.383 336.791 201.828C336.379 202.268 335.86 202.612 335.235 202.858C334.615 203.099 333.907 203.22 333.112 203.22ZM342.826 188.455L342.641 198.817H340.674L340.489 188.455H342.826ZM341.661 203.135C341.268 203.135 340.932 202.998 340.653 202.723C340.373 202.444 340.236 202.107 340.241 201.714C340.236 201.326 340.373 200.995 340.653 200.72C340.932 200.441 341.268 200.301 341.661 200.301C342.045 200.301 342.376 200.441 342.655 200.72C342.935 200.995 343.077 201.326 343.081 201.714C343.077 201.975 343.008 202.214 342.876 202.432C342.748 202.645 342.577 202.815 342.364 202.943C342.151 203.071 341.917 203.135 341.661 203.135Z" fill="#C6C6C6"/>
<g clip-path="url(#clip0_1084_2)">
<path d="M195.337 48.2146C195.598 48.2266 195.857 48.1579 196.078 48.0179C196.299 47.8779 196.472 47.6733 196.573 47.4318C196.673 47.1903 196.698 46.9236 196.642 46.6679C196.587 46.4121 196.454 46.1797 196.262 46.002C196.229 45.8741 196.206 45.7822 196.174 45.6542C196.186 45.6264 196.197 45.5986 196.209 45.5708C197.383 42.7684 201.363 42.7877 202.528 45.5943C203.561 48.0852 204.877 50.5804 205.201 53.2141C205.344 54.3783 205.284 55.5584 205.023 56.702C207.451 51.4031 208.711 45.6439 208.719 39.8147C208.72 38.352 208.638 36.8903 208.476 35.4367C208.341 34.2449 208.155 33.0617 207.917 31.887C206.616 25.5129 203.822 19.5386 199.766 14.4547C197.803 13.3827 196.215 11.7342 195.217 9.73146C194.855 9.01152 194.6 8.243 194.458 7.44978C194.68 7.47885 195.293 4.10353 195.126 3.89644C195.435 3.42777 195.987 3.1948 196.324 2.73746C198.001 0.462963 200.31 0.860105 201.516 3.95096C204.092 5.25188 204.117 7.40937 202.536 9.48438C201.531 10.8045 201.393 12.5908 200.51 14.0041C200.601 14.1204 200.696 14.233 200.786 14.3493C202.446 16.4844 203.892 18.777 205.104 21.1944C204.761 18.5133 205.267 15.2833 206.13 13.2012C207.113 10.8289 208.955 8.8309 210.577 6.78003C212.525 4.31661 216.52 5.3917 216.864 8.51446C216.867 8.5447 216.87 8.57492 216.873 8.60513C216.632 8.74114 216.397 8.88551 216.166 9.03824C215.876 9.23205 215.651 9.50897 215.521 9.83271C215.392 10.1565 215.362 10.5119 215.438 10.8525C215.513 11.1932 215.69 11.503 215.944 11.7416C216.198 11.9801 216.519 12.1362 216.863 12.1893L216.899 12.1948C216.813 13.0637 216.661 13.9248 216.445 14.7708C218.526 22.8237 214.033 25.7567 207.619 25.8885C207.477 25.9611 207.339 26.0338 207.198 26.1029C208.416 29.557 209.18 33.155 209.471 36.8064C209.635 38.9606 209.626 41.1245 209.442 43.2772L209.452 43.2009C209.917 40.8072 211.193 38.6474 213.065 37.0861C215.845 34.8008 219.772 33.9593 222.771 32.1223C224.215 31.2381 226.065 32.3808 225.813 34.0557C225.809 34.0825 225.805 34.1092 225.801 34.136C225.354 34.3182 224.918 34.5281 224.497 34.7645C224.257 34.9005 224.021 35.0449 223.79 35.1976C223.5 35.3914 223.276 35.6683 223.146 35.9921C223.016 36.3158 222.987 36.6713 223.062 37.0119C223.137 37.3525 223.314 37.6624 223.568 37.9009C223.823 38.1395 224.143 38.2955 224.488 38.3487L224.523 38.3541C224.548 38.3578 224.57 38.3614 224.595 38.3651C223.832 40.1903 222.759 41.8704 221.426 43.3317C220.125 50.3616 214.537 51.0285 208.559 48.9814H208.556C207.9 51.8335 206.95 54.6097 205.72 57.2652H195.591C195.555 57.1525 195.522 57.0363 195.489 56.9236C196.427 56.9826 197.368 56.9265 198.292 56.7565C197.541 55.8337 196.789 54.9035 196.038 53.9807C196.021 53.9635 196.005 53.9453 195.99 53.9262C195.609 53.4539 195.224 52.9852 194.843 52.5129L194.843 52.5123C194.823 51.0645 194.989 49.6201 195.337 48.2148L195.337 48.2146Z" fill="#F2F2F2"/>
<path d="M227.859 22.2725C225.975 15.4006 241.166 9.50788 245.155 15.0418C245.71 14.255 247.76 13.7771 248.7 14.0185C249.641 14.2598 250.432 14.8632 251.204 15.4473C252.265 16.263 253.364 17.1077 254.016 18.2806C254.672 19.4487 254.773 21.0416 253.89 22.0552C253.191 22.8613 251.126 23.3826 250.075 23.595C249.342 23.7446 248.724 23.8653 248.194 23.9522C247.712 23.2574 247.49 22.4149 247.567 21.5726C247.21 21.8136 246.91 22.1308 246.69 22.5013C246.47 22.8719 246.335 23.2866 246.294 23.7157C246.279 23.8943 252.221 45.7745 252.221 45.7745C251.507 46.1811 250.756 46.5189 249.978 46.7833C248.44 44.4297 247.261 41.8592 246.482 39.1569C246.302 40.9638 246.325 42.7851 246.549 44.5871C246.668 45.5975 246.839 46.6012 247.06 47.5942C239.999 49.1195 229.378 48.6175 224.757 42.1302C224.757 42.1034 224.756 42.0765 224.755 42.0497C224.752 41.7936 224.659 41.5467 224.494 41.3514C224.328 41.156 224.1 41.0243 223.848 40.9788C223.596 40.9333 223.336 40.9769 223.113 41.102C222.89 41.2271 222.717 41.426 222.624 41.6647C222.512 41.9509 222.409 42.1986 222.317 42.3957C220.971 37.5785 222.712 32.0034 227.859 22.2725Z" fill="#CCCCCC"/>
<path d="M215.843 137.481V137.706C215.834 137.632 215.834 137.556 215.843 137.481Z" fill="#CCCCCC"/>
<path d="M222.758 98.5912C222.937 98.5425 223.12 98.507 223.305 98.4849C223.093 98.5194 222.911 98.5549 222.758 98.5912Z" fill="#CCCCCC"/>
<path d="M222.598 98.6316C222.646 98.6181 222.7 98.6046 222.757 98.5911C222.704 98.6049 222.653 98.6151 222.598 98.6316Z" fill="#CCCCCC"/>
<path d="M273.687 159.999H247.804C247.435 159.704 247.178 159.291 247.077 158.829C246.976 158.367 247.037 157.885 247.25 157.462C247.957 155.84 246.571 154.357 246.571 154.357C246.101 153.805 245.774 153.146 245.619 152.438C245.465 151.729 245.487 150.994 245.684 150.296C246.37 147.899 243.683 141.134 243.683 141.134C243.683 141.134 242.234 149.87 240.459 159.999H215.843C215.43 159.296 215.213 158.496 215.213 157.681C215.213 156.866 215.43 156.065 215.843 155.362C217.277 152.928 215.843 152.461 215.843 152.461C215.843 152.461 214.408 149.737 215.843 147.76C217.277 145.782 215.843 137.706 215.843 137.706C215.897 138.063 216.305 137.414 216.935 136.053C217.893 133.982 219.356 130.258 220.835 125.934C221.893 122.849 222.959 119.453 223.85 116.134H223.852C224.085 115.262 224.307 114.398 224.516 113.541C224.924 111.862 225.275 110.231 225.541 108.699C226.118 105.399 226.308 102.564 225.865 100.72C225.497 99.1859 224.693 98.3398 223.305 98.4848C224.049 98.3615 225.139 98.2446 226.481 98.1342C226.724 98.1148 226.974 98.0953 227.234 98.0737C237.25 97.3163 258.739 96.8813 258.739 96.8813L265.321 108.677L273.657 123.619C273.657 123.619 273.43 143.663 273.687 159.999Z" fill="#CCCCCC"/>
<path d="M246.061 45.8986L230.896 42.6794L227.885 48.7447L217.745 54.6193C217.745 54.6193 224.281 81.3631 224.244 85.1245C224.149 94.674 208.881 116.081 220.414 114.434C231.946 112.787 234.289 105.889 237.991 106.98C241.33 107.964 245.407 112.34 248.137 109.21C250.866 106.08 251.828 109.694 253.554 109.819C254.374 109.879 253.88 105.867 255.944 109.944C258.007 114.021 268.951 108.533 265.242 104.821C259.064 98.6394 257.809 53.0694 257.809 53.0694L250.933 50.952L246.061 45.8986Z" fill="#E6E6E6"/>
<path d="M217.459 143.021C218.068 142.293 218.37 141.357 218.3 140.411C218.23 139.464 217.794 138.583 217.084 137.953C216.938 137.828 216.781 137.714 216.616 137.615L219.152 125.162L213.29 121.651L211.66 139.086C211.299 139.802 211.186 140.618 211.337 141.406C211.488 142.194 211.896 142.909 212.497 143.441C212.841 143.74 213.241 143.969 213.674 144.113C214.107 144.257 214.564 144.315 215.019 144.283C215.474 144.251 215.918 144.129 216.326 143.925C216.734 143.721 217.098 143.438 217.397 143.094C217.418 143.069 217.439 143.045 217.459 143.021Z" fill="#F2F2F2"/>
<path d="M235.658 77.38C235.621 76.9796 235.111 76.7979 234.404 76.5468C233.694 76.3279 233.019 76.008 232.4 75.5969C230.834 74.4651 231.45 73.2815 232.302 71.6455C232.469 71.3274 232.642 70.9964 232.804 70.6523C233.286 69.6331 232.519 65.4285 230.518 58.1534C229.902 55.9137 229.904 54.3319 229.478 53.2824C229.054 52.2329 228.205 51.7157 225.889 51.6075C223.09 51.4661 220.349 52.4411 218.267 54.3189C218.21 54.3687 218.152 54.4228 218.096 54.4747C217.99 54.5742 217.886 54.676 217.784 54.7798C215.859 56.7182 214.757 59.3266 214.71 62.0593L214.699 62.5245L214.221 84.7525L212.878 104.258L211.027 131.128L212.398 131.195L217.869 131.468L218.533 131.5L220.107 124.891L222.001 116.939L222.697 114.018L224.857 104.955L225.865 100.72L226.481 98.1343L226.732 97.0783L227.956 91.9454C227.984 91.8372 230.799 80.7211 234.045 78.8623C235.256 78.1698 235.693 77.7673 235.658 77.38Z" fill="#E6E6E6"/>
<path d="M272.075 142.888C271.391 142.231 270.99 141.332 270.958 140.384C270.926 139.435 271.266 138.512 271.904 137.81C272.036 137.669 272.179 137.54 272.332 137.423L268.475 125.314L273.926 121.194L277.418 138.353C277.853 139.026 278.054 139.825 277.988 140.625C277.922 141.424 277.593 142.18 277.053 142.773C276.743 143.107 276.37 143.377 275.955 143.567C275.54 143.757 275.092 143.864 274.636 143.881C274.18 143.898 273.725 143.824 273.298 143.665C272.87 143.506 272.478 143.265 272.144 142.954C272.12 142.932 272.097 142.91 272.075 142.888Z" fill="#F2F2F2"/>
<path d="M274.741 116.614C274.741 116.614 270.49 101.645 271.786 100.025C273.083 98.4045 269.254 98.088 270.904 95.0701C272.554 92.0522 270.276 91.5475 270.276 91.5475L269.041 84.6087L266.831 67.5652L266.764 67.0583L266.121 62.0998C265.942 60.6835 265.479 59.318 264.76 58.0849C264.041 56.8519 263.081 55.7765 261.937 54.9232C261.879 54.8784 261.819 54.8355 261.76 54.7925C261.488 54.5965 261.21 54.4149 260.926 54.2478C258.805 52.9956 256.315 52.5222 253.883 52.9089C249.3 53.6231 250.726 55.3332 249.983 59.9145C248.776 67.3636 248.462 71.6252 249.051 72.5881C249.249 72.9124 249.458 73.2226 249.657 73.5204C250.68 75.0574 251.419 76.1663 249.984 77.4622C249.411 77.9358 248.775 78.3256 248.093 78.6199C247.418 78.9469 246.93 79.1815 246.936 79.5835C246.944 79.9729 247.421 80.3246 248.698 80.8823C250.246 81.5602 251.909 84.1232 253.27 86.7414C254.351 88.8519 255.314 91.0202 256.157 93.2365L267.861 126.178L269.77 131.55L270.428 131.446L275.836 130.588L277.192 130.373L274.741 116.614Z" fill="#E6E6E6"/>
<path d="M239.663 42.452C246.496 42.452 252.035 36.9088 252.035 30.0709C252.035 23.2329 246.496 17.6897 239.663 17.6897C232.83 17.6897 227.291 23.2329 227.291 30.0709C227.291 36.9088 232.83 42.452 239.663 42.452Z" fill="#F2F2F2"/>
<path d="M221.106 23.2378C219.223 16.3659 234.413 10.4732 238.402 16.0071C238.957 15.2204 241.007 14.7425 241.948 14.9838C242.888 15.2252 243.679 15.8285 244.451 16.4126C245.512 17.2283 246.612 18.073 247.263 19.246C247.919 20.4141 248.02 22.0069 247.138 23.0206C246.438 23.8267 244.374 24.348 243.322 24.5604C242.589 24.71 241.972 24.8307 241.441 24.9175C240.959 24.2227 240.737 23.3802 240.814 22.5379C240.457 22.779 240.158 23.0961 239.938 23.4667C239.717 23.8372 239.582 24.2519 239.541 24.681C239.526 24.8596 245.469 46.7398 245.469 46.7398C244.755 47.1465 244.004 47.4843 243.226 47.7486C241.687 45.3951 240.508 42.8245 239.729 40.1222C239.55 41.9292 239.572 43.7505 239.796 45.5524C239.916 46.5629 240.086 47.5665 240.308 48.5596C233.246 50.0849 222.625 49.5829 218.005 43.0956C218.004 43.0687 218.003 43.0419 218.002 43.015C217.999 42.7589 217.906 42.5121 217.741 42.3167C217.575 42.1214 217.347 41.9897 217.095 41.9442C216.844 41.8987 216.584 41.9422 216.361 42.0674C216.137 42.1925 215.964 42.3914 215.872 42.63C215.759 42.9162 215.656 43.164 215.564 43.361C214.218 38.5438 215.96 32.9688 221.106 23.2378Z" fill="#CCCCCC"/>
<path d="M159.749 66.0202C159.487 66.0322 159.229 65.9636 159.008 65.8236C158.787 65.6836 158.614 65.4789 158.513 65.2375C158.412 64.996 158.388 64.7293 158.444 64.4735C158.499 64.2178 158.632 63.9853 158.824 63.8076C158.856 63.6797 158.879 63.5878 158.912 63.4599C158.9 63.432 158.888 63.4042 158.877 63.3764C157.702 60.574 153.722 60.5934 152.558 63.3999C151.525 65.8908 150.209 68.386 149.885 71.0198C149.742 72.1839 149.802 73.3641 150.063 74.5077C147.635 69.2088 146.375 63.4495 146.367 57.6204C146.366 56.1576 146.447 54.696 146.61 53.2423C146.744 52.0506 146.931 50.8674 147.169 49.6926C148.47 43.3186 151.263 37.3443 155.32 32.2603C157.283 31.1884 158.871 29.5399 159.869 27.5371C160.23 26.8172 160.486 26.0487 160.628 25.2554C160.406 25.2845 159.793 21.9092 159.96 21.7021C159.651 21.2334 159.099 21.0005 158.761 20.5431C157.085 18.2686 154.775 18.6658 153.57 21.7566C150.994 23.0575 150.969 25.215 152.55 27.29C153.555 28.6102 153.693 30.3965 154.575 31.8098C154.485 31.9261 154.39 32.0387 154.299 32.155C152.64 34.29 151.194 36.5827 149.982 39C150.325 36.319 149.819 33.089 148.955 31.0069C147.973 28.6345 146.131 26.6366 144.509 24.5857C142.561 22.1223 138.565 23.1974 138.222 26.3201C138.219 26.3504 138.216 26.3806 138.213 26.4108C138.453 26.5468 138.689 26.6912 138.92 26.8439C139.21 27.0377 139.434 27.3146 139.564 27.6384C139.694 27.9621 139.723 28.3176 139.648 28.6582C139.573 28.9988 139.396 29.3087 139.142 29.5472C138.887 29.7858 138.567 29.9418 138.222 29.995L138.187 30.0004C138.273 30.8694 138.425 31.7305 138.641 32.5764C136.56 40.6293 141.052 43.5624 147.467 43.6941C147.608 43.7668 147.746 43.8395 147.888 43.9085C146.67 47.3627 145.906 50.9607 145.615 54.612C145.451 56.7662 145.46 58.9302 145.644 61.0828L145.633 61.0065C145.169 58.6129 143.893 56.453 142.021 54.8918C139.241 52.6065 135.313 51.7649 132.314 49.928C130.871 49.0437 129.021 50.1864 129.273 51.8614C129.277 51.8881 129.281 51.9149 129.285 51.9416C129.732 52.1238 130.167 52.3337 130.588 52.5701C130.829 52.7062 131.065 52.8506 131.296 53.0032C131.586 53.1971 131.81 53.474 131.94 53.7977C132.07 54.1215 132.099 54.4769 132.024 54.8176C131.949 55.1582 131.772 55.4681 131.518 55.7066C131.263 55.9451 130.943 56.1012 130.598 56.1544L130.563 56.1598C130.538 56.1634 130.516 56.1671 130.49 56.1707C131.254 57.996 132.326 59.6761 133.66 61.1373C134.961 68.1672 140.549 68.8342 146.526 66.787H146.53C147.186 69.6391 148.136 72.4153 149.366 75.0708H159.495C159.531 74.9582 159.564 74.8419 159.596 74.7293C158.659 74.7883 157.718 74.7322 156.794 74.5622C157.545 73.6393 158.297 72.7092 159.048 71.7864C159.065 71.7691 159.081 71.7509 159.095 71.7319C159.477 71.2596 159.862 70.7909 160.243 70.3186L160.243 70.318C160.263 68.8702 160.097 67.4258 159.749 66.0204L159.749 66.0202Z" fill="#F2F2F2"/>
<path d="M112.485 15.042C112.255 15.5781 105.167 15.5207 104.842 15.9981C102.339 19.6839 111.362 35.3659 108.859 39.0564L108.51 39.4723C109.327 39.0957 110.111 38.6528 110.856 38.1481C110.923 36.6375 110.989 35.1221 111.061 33.6115C111.811 34.5713 112.416 35.6359 112.857 36.7714C113.44 36.3602 113.918 35.5981 116.416 34.0991C117.427 32.9873 118.593 32.027 119.878 31.2474L112.485 15.042Z" fill="#CCCCCC"/>
<path d="M117.632 45.249C116.85 44.7391 115.958 44.4232 115.029 44.3275C114.1 44.2319 113.162 44.3592 112.293 44.699C111.423 45.0388 110.647 45.5812 110.029 46.2813C109.41 46.9814 108.968 47.8189 108.738 48.7244L97.9658 76.8129L79.4498 66.2931C79.3685 65.0839 78.9066 63.9315 78.1304 63.0013C77.3542 62.071 76.3036 61.4107 75.1292 61.1149C73.9548 60.8192 72.7169 60.9032 71.5932 61.355C70.4695 61.8068 69.5176 62.6032 68.8741 63.6298C68.2306 64.6565 67.9285 65.8607 68.0112 67.0698C68.0938 68.2789 68.557 69.4307 69.3343 70.3601C70.1115 71.2894 71.1629 71.9486 72.3376 72.243C73.5124 72.5374 74.7501 72.452 75.8733 71.9989C79.7726 76.1637 96.6776 93.2393 103.676 86.5674C109.559 80.9594 118.048 59.2249 120.092 51.7195C120.419 50.5193 120.357 49.2462 119.915 48.0834C119.473 46.9206 118.674 45.9281 117.632 45.249Z" fill="#F2F2F2"/>
<path d="M97.4053 87.7444L100.805 103.12L125.662 105.37L127.946 91.9821L97.4053 87.7444Z" fill="#F2F2F2"/>
<path d="M135.375 127.174C135.364 127.395 135.35 127.613 135.334 127.833C135.096 131.019 134.823 134.694 134.528 138.72C134.063 145.11 133.543 152.387 133.018 159.999H80.8799L90.9915 129.584C90.9915 129.584 95.0744 127.334 92.9957 123.555C90.9171 119.776 95.0071 122.788 95.0451 117.391C95.0832 111.994 98.7482 106.252 98.7482 106.252L99.35 98.0806L99.6929 98.0874L126.826 98.5396L127.321 98.5487L128.154 105.564C133.214 111.589 135.795 119.315 135.375 127.174Z" fill="#CCCCCC"/>
<path d="M112.92 37.7973L125.292 37.1594L131.039 46.2467C131.039 46.2467 141.852 48.0558 141.102 60.8066C140.353 73.5574 127.946 84.7463 127.946 84.7463L128.477 82.9267L127.556 85.5605L127.674 87.0393L128.93 88.6054L129.06 90.2251L127.946 92.7877C128.091 93.0199 128.168 93.2881 128.168 93.5618C128.168 93.8355 128.092 94.1038 127.947 94.3362C127.803 94.5686 127.596 94.7558 127.351 94.8766C127.105 94.9975 126.831 95.047 126.559 95.0197L108.681 93.2268C108.274 92.1063 107.948 90.7657 106.316 92.9975L104.632 92.8342L97.6315 92.1554L97.2195 90.6533C96.9853 89.7997 96.9489 88.904 97.1128 88.0342C97.2767 87.1644 97.6368 86.3435 98.1655 85.6339C97.5574 83.7284 97.7167 81.6606 98.6094 79.8708L98.6429 79.8036L99.3863 79.1835C99.3863 79.1835 91.2528 66.9549 100.59 57.7446L104.337 51.3692L108.53 46.2496L112.92 37.7973Z" fill="#E6E6E6"/>
<path d="M115.999 32.4331C122.479 32.4331 127.731 27.1763 127.731 20.6918C127.731 14.2072 122.479 8.95044 115.999 8.95044C109.519 8.95044 104.266 14.2072 104.266 20.6918C104.266 27.1763 109.519 32.4331 115.999 32.4331Z" fill="#F2F2F2"/>
<path d="M124.91 37.6059C123.954 36.807 123.289 35.7147 123.018 34.4986C122.801 35.9751 122.858 37.479 123.185 38.9349C122.55 39.413 121.934 39.8671 121.351 40.2782C120.91 39.1428 120.305 38.0782 119.555 37.1183C119.483 38.6289 119.416 40.1444 119.349 41.655C118.605 42.1597 117.821 42.6026 117.004 42.9792L117.353 42.5633C119.856 38.8728 113.378 32.0797 115.881 28.3939C116.584 27.3613 113.412 19.201 110.995 18.8329C108.845 18.5079 108.936 19.1293 106.853 19.5835C106.637 18.6808 106.301 17.811 105.855 16.9972C105.973 17.904 105.946 18.824 105.773 19.7221C105.033 19.7508 104.45 19.2786 103.662 19.158C98.6318 18.3884 99.1429 12.9434 100.543 11.2176C101.947 9.49665 106.609 8.98035 108.759 8.42101C108.955 8.22981 109.399 8.34932 109.595 8.16766C113.715 4.39464 119.224 3.7698 124.183 5.44209C129.47 7.22545 132.767 10.6771 134.459 15.9981L134.944 20.2563C135.38 21.6255 134.832 27.996 134.459 29.3835C133.009 34.7769 129.921 32.0845 124.91 37.6059Z" fill="#CCCCCC"/>
<path d="M142.017 93.2334L141.555 57.2329C141.531 55.7077 140.909 54.2532 139.823 53.1832C138.736 52.1131 137.273 51.5134 135.749 51.5134C134.96 51.5134 134.18 51.6741 133.456 51.9858C132.731 52.2974 132.078 52.7534 131.535 53.326C130.993 53.8985 130.572 54.5757 130.3 55.3162C130.027 56.0566 129.908 56.8449 129.95 57.6329L131.575 95.0139L131.606 117.77C130.648 118.176 129.839 118.868 129.287 119.751C128.736 120.634 128.47 121.666 128.524 122.706C128.579 123.746 128.953 124.743 129.594 125.563C130.235 126.383 131.113 126.986 132.108 127.29C133.104 127.593 134.168 127.582 135.158 127.259C136.147 126.936 137.013 126.316 137.637 125.483C138.262 124.65 138.615 123.645 138.65 122.604C138.684 121.564 138.397 120.538 137.828 119.666L142.017 93.2334Z" fill="#F2F2F2"/>
<path d="M202.57 139.809C202.57 139.809 201.856 152.667 201.528 160H176.934C176.428 153.327 176.258 148.424 176.258 148.424L174.912 160H150.053L148.512 138.561L155.959 120.085C155.959 120.085 196.321 117.284 200.064 120.838C203.806 124.389 202.57 139.809 202.57 139.809Z" fill="#CCCCCC"/>
<path d="M180.823 31.6503C188.242 31.6503 194.256 25.6313 194.256 18.2066C194.256 10.7819 188.242 4.76294 180.823 4.76294C173.403 4.76294 167.389 10.7819 167.389 18.2066C167.389 25.6313 173.403 31.6503 180.823 31.6503Z" fill="#F2F2F2"/>
<path d="M196.481 13.8381C195.101 14.4677 194.207 19.0279 193.123 17.9677C192.038 16.9076 192.111 15.528 190.648 15.1367C189.468 14.8194 188.197 15.1821 187.12 15.754C186.928 15.8549 186.741 15.9646 186.559 16.0737C186.439 15.9935 186.32 15.9181 186.192 15.8485C185.229 15.3325 184.104 15.2059 183.05 15.4948C183.883 15.7739 184.607 16.308 185.12 17.0214C184.759 17.2631 184.394 17.5055 184.021 17.7202C180.901 19.522 176.461 15.6041 173.177 14.1322C175.234 17.9952 174.221 19.5951 172.435 23.5903L172.374 23.8178C172.475 22.8165 169.379 22.0703 169.558 23.4798C169.686 24.4806 170.551 26.7051 171.036 27.5887C167.583 23.5933 165.224 18.704 165.722 13.6604C165.83 12.6008 165.797 11.4829 166.343 10.5633C166.89 9.64847 168.03 9.00647 169.038 9.35534C168.953 7.74685 169.304 6.14526 170.056 4.72084C170.807 3.29641 171.93 2.1024 173.306 1.26573C174.681 0.429065 176.257 -0.0189778 177.867 -0.030767C179.476 -0.0425563 181.059 0.382351 182.447 1.19878C183.736 1.95586 184.812 3.0266 185.994 3.95021C187.175 4.87381 188.538 5.67888 190.036 5.75512C190.987 5.801 192.021 5.56876 192.838 6.06145C193.784 6.63313 193.946 7.83005 194.088 8.98178C193.244 9.06503 192.444 9.39812 191.79 9.93851C192.663 9.8494 193.542 10.038 194.302 10.4776C194.316 10.4841 194.33 10.492 194.343 10.501C194.843 12.4044 194.792 12.8264 196.481 13.8381Z" fill="#CCCCCC"/>
<path d="M150.113 126.589C161.552 113.189 157.688 96.1444 153.148 78.9389L154.012 53.5212C154.054 52.2744 154.396 51.0561 155.008 49.9691C155.62 48.8822 156.484 47.9586 157.528 47.2763L169.206 39.641L173.752 33.064L186.282 34.3179L193.23 41.6713L200.921 47.5471C202.852 49.0224 204.321 51.0195 205.156 53.3029C205.99 55.5863 206.155 58.0609 205.63 60.4348L198.27 93.7438C198.27 93.7438 201.348 111.012 199.47 112.919C197.592 114.826 192.752 112.92 196.59 115.06C201.196 117.629 205.384 117.155 203.053 119.488C200.722 121.821 203.672 125.063 203.672 125.063L150.113 126.589Z" fill="#E6E6E6"/>
<path d="M155.004 146.065L156.911 132.468L149.301 130.293L147.796 144.741C147.166 145.319 146.71 146.062 146.478 146.885C146.247 147.708 146.25 148.579 146.486 149.401C146.722 150.223 147.183 150.962 147.816 151.536C148.45 152.11 149.23 152.496 150.071 152.65C150.911 152.805 151.778 152.721 152.574 152.41C153.369 152.098 154.062 151.571 154.575 150.886C155.087 150.202 155.399 149.389 155.475 148.537C155.551 147.685 155.387 146.829 155.004 146.065Z" fill="#F2F2F2"/>
<path d="M169.492 42.0923C169.492 42.0923 147.831 49.1475 147.314 54.3097C146.797 59.4719 146.969 62.6321 144.683 83.2891L144.803 138.933C144.803 138.933 159.326 142.045 157.836 138.718C156.347 135.391 156.867 133.826 156.867 133.826C156.867 133.826 159.98 132.596 159.201 128.69C158.421 124.784 162.33 105.426 162.33 105.426L164.797 70.7076L169.492 42.0923Z" fill="#E6E6E6"/>
<path d="M196.2 145.345L195.186 131.652L202.921 129.98L203.48 144.496C204.07 145.114 204.477 145.884 204.654 146.721C204.831 147.557 204.772 148.427 204.482 149.231C204.193 150.036 203.685 150.743 203.015 151.275C202.346 151.806 201.541 152.14 200.693 152.239C199.844 152.338 198.984 152.198 198.211 151.835C197.437 151.472 196.78 150.9 196.313 150.184C195.847 149.468 195.589 148.636 195.569 147.781C195.549 146.926 195.768 146.082 196.2 145.345Z" fill="#F2F2F2"/>
<path d="M188.534 40.6467C188.534 40.6467 209.688 49.1038 209.867 54.2888C210.045 59.4737 209.668 62.6159 210.6 83.3783L206.845 138.896C206.845 138.896 192.15 141.051 193.854 137.828C195.557 134.606 195.141 133.01 195.141 133.01C195.141 133.01 192.114 131.579 193.147 127.733C194.18 123.886 191.544 104.313 191.544 104.313L191.35 69.508L188.534 40.6467Z" fill="#E6E6E6"/>
</g>
<defs>
<clipPath id="clip0_1084_2">
<rect width="210" height="160" fill="white" transform="translate(68)"/>
</clipPath>
</defs>
</svg>
