<svg width="263" height="208" viewBox="0 0 263 208" fill="none" xmlns="http://www.w3.org/2000/svg">
<path d="M8.97887 188.455H11.6422L16.2729 199.761H16.4434L21.074 188.455H23.7374V203H21.6493V192.474H21.5144L17.2246 202.979H15.4917L11.2019 192.467H11.0669V203H8.97887V188.455ZM28.1 207.091C27.7827 207.091 27.4939 207.065 27.2335 207.013C26.9731 206.965 26.7789 206.913 26.6511 206.857L27.1625 205.116C27.5507 205.221 27.8964 205.266 28.1994 205.251C28.5024 205.237 28.7699 205.124 29.002 204.911C29.2387 204.697 29.447 204.349 29.627 203.866L29.8897 203.142L25.8983 192.091H28.171L30.9338 200.557H31.0474L33.8102 192.091H36.09L31.5943 204.456C31.3859 205.024 31.1208 205.505 30.7988 205.898C30.4769 206.295 30.0933 206.594 29.6483 206.793C29.2032 206.991 28.6871 207.091 28.1 207.091ZM51.4824 192.276C51.4067 191.603 51.0942 191.082 50.5449 190.713C49.9957 190.339 49.3044 190.152 48.4711 190.152C47.8745 190.152 47.3584 190.247 46.9228 190.436C46.4872 190.621 46.1486 190.876 45.9071 191.203C45.6704 191.525 45.552 191.892 45.552 192.304C45.552 192.65 45.6325 192.948 45.7935 193.199C45.9592 193.45 46.1747 193.661 46.4398 193.831C46.7097 193.997 46.9985 194.136 47.3063 194.25C47.6141 194.359 47.91 194.449 48.1941 194.52L49.6145 194.889C50.0785 195.003 50.5544 195.157 51.0421 195.351C51.5298 195.545 51.9819 195.801 52.3986 196.118C52.8153 196.435 53.1515 196.828 53.4071 197.297C53.6676 197.766 53.7978 198.327 53.7978 198.98C53.7978 199.804 53.5847 200.536 53.1586 201.175C52.7372 201.814 52.124 202.318 51.3191 202.688C50.5189 203.057 49.5506 203.241 48.4142 203.241C47.3252 203.241 46.383 203.069 45.5875 202.723C44.7921 202.377 44.1694 201.887 43.7196 201.253C43.2698 200.614 43.0212 199.856 42.9739 198.98H45.1756C45.2182 199.506 45.3887 199.944 45.687 200.294C45.99 200.64 46.3759 200.898 46.8446 201.068C47.3181 201.234 47.8366 201.317 48.4 201.317C49.0203 201.317 49.5719 201.22 50.0549 201.026C50.5426 200.827 50.9261 200.552 51.2054 200.202C51.4848 199.847 51.6245 199.432 51.6245 198.959C51.6245 198.528 51.5014 198.175 51.2551 197.901C51.0137 197.626 50.6846 197.399 50.2679 197.219C49.856 197.039 49.3896 196.88 48.8688 196.743L47.15 196.274C45.9853 195.957 45.062 195.491 44.3801 194.875C43.7031 194.259 43.3645 193.445 43.3645 192.432C43.3645 191.594 43.5918 190.862 44.0463 190.237C44.5009 189.612 45.1164 189.127 45.8929 188.781C46.6694 188.431 47.5454 188.256 48.5208 188.256C49.5056 188.256 50.3745 188.429 51.1273 188.774C51.8849 189.12 52.4815 189.596 52.9171 190.202C53.3527 190.803 53.58 191.494 53.5989 192.276H51.4824ZM60.9515 203.22C59.8767 203.22 58.9511 202.991 58.1745 202.531C57.4028 202.067 56.8062 201.416 56.3848 200.578C55.9681 199.735 55.7598 198.748 55.7598 197.616C55.7598 196.499 55.9681 195.514 56.3848 194.662C56.8062 193.81 57.3933 193.144 58.1461 192.666C58.9037 192.188 59.7891 191.949 60.8024 191.949C61.4179 191.949 62.0145 192.051 62.5922 192.254C63.1698 192.458 63.6883 192.777 64.1475 193.213C64.6068 193.649 64.969 194.214 65.2342 194.911C65.4993 195.602 65.6319 196.442 65.6319 197.432V198.185H56.96V196.594H63.551C63.551 196.035 63.4373 195.54 63.21 195.109C62.9828 194.674 62.6632 194.33 62.2512 194.08C61.844 193.829 61.3658 193.703 60.8166 193.703C60.22 193.703 59.6992 193.85 59.2541 194.143C58.8137 194.432 58.4728 194.811 58.2314 195.28C57.9946 195.744 57.8762 196.248 57.8762 196.793V198.036C57.8762 198.765 58.0041 199.385 58.2598 199.896C58.5202 200.408 58.8824 200.798 59.3464 201.068C59.8104 201.333 60.3526 201.466 60.9728 201.466C61.3753 201.466 61.7422 201.409 62.0737 201.295C62.4051 201.177 62.6916 201.002 62.9331 200.77C63.1745 200.538 63.3592 200.251 63.487 199.911L65.497 200.273C65.336 200.865 65.0472 201.383 64.6305 201.828C64.2186 202.268 63.7001 202.612 63.0751 202.858C62.4548 203.099 61.747 203.22 60.9515 203.22ZM72.5833 203.22C71.5274 203.22 70.6183 202.981 69.856 202.503C69.0984 202.02 68.516 201.355 68.1088 200.507C67.7016 199.66 67.498 198.689 67.498 197.595C67.498 196.487 67.7064 195.509 68.123 194.662C68.5397 193.81 69.1268 193.144 69.8844 192.666C70.642 192.188 71.5345 191.949 72.562 191.949C73.3906 191.949 74.1292 192.103 74.7779 192.411C75.4266 192.714 75.9498 193.14 76.3475 193.689C76.7499 194.238 76.9891 194.88 77.0648 195.614H74.998C74.8844 195.102 74.624 194.662 74.2168 194.293C73.8143 193.923 73.2746 193.739 72.5975 193.739C72.0056 193.739 71.4872 193.895 71.0421 194.207C70.6017 194.515 70.2585 194.955 70.0123 195.528C69.766 196.097 69.6429 196.769 69.6429 197.545C69.6429 198.341 69.7637 199.027 70.0051 199.605C70.2466 200.183 70.5875 200.63 71.0279 200.947C71.473 201.265 71.9962 201.423 72.5975 201.423C72.9999 201.423 73.3645 201.35 73.6912 201.203C74.0227 201.052 74.2997 200.836 74.5222 200.557C74.7495 200.277 74.9081 199.941 74.998 199.548H77.0648C76.9891 200.254 76.7594 200.884 76.3759 201.438C75.9924 201.991 75.4786 202.427 74.8347 202.744C74.1955 203.062 73.445 203.22 72.5833 203.22ZM84.4281 192.091V193.795H78.4693V192.091H84.4281ZM80.0673 189.477H82.1909V199.797C82.1909 200.209 82.2524 200.519 82.3755 200.727C82.4986 200.931 82.6573 201.071 82.8514 201.146C83.0502 201.217 83.2657 201.253 83.4977 201.253C83.6681 201.253 83.8173 201.241 83.9451 201.217C84.073 201.194 84.1724 201.175 84.2434 201.161L84.627 202.915C84.5038 202.962 84.3287 203.009 84.1014 203.057C83.8741 203.109 83.59 203.137 83.2491 203.142C82.6904 203.152 82.1696 203.052 81.6866 202.844C81.2037 202.635 80.813 202.313 80.5147 201.878C80.2164 201.442 80.0673 200.895 80.0673 200.237V189.477ZM86.7772 203V192.091H88.9007V203H86.7772ZM87.8496 190.408C87.4803 190.408 87.1631 190.285 86.8979 190.038C86.6375 189.787 86.5073 189.489 86.5073 189.143C86.5073 188.793 86.6375 188.495 86.8979 188.249C87.1631 187.998 87.4803 187.872 87.8496 187.872C88.2189 187.872 88.5338 187.998 88.7942 188.249C89.0594 188.495 89.1919 188.793 89.1919 189.143C89.1919 189.489 89.0594 189.787 88.7942 190.038C88.5338 190.285 88.2189 190.408 87.8496 190.408ZM96.3528 203.22C95.3301 203.22 94.4376 202.986 93.6752 202.517C92.9129 202.048 92.3211 201.393 91.8997 200.55C91.4783 199.707 91.2676 198.722 91.2676 197.595C91.2676 196.464 91.4783 195.474 91.8997 194.626C92.3211 193.779 92.9129 193.121 93.6752 192.652C94.4376 192.183 95.3301 191.949 96.3528 191.949C97.3755 191.949 98.2681 192.183 99.0304 192.652C99.7927 193.121 100.385 193.779 100.806 194.626C101.227 195.474 101.438 196.464 101.438 197.595C101.438 198.722 101.227 199.707 100.806 200.55C100.385 201.393 99.7927 202.048 99.0304 202.517C98.2681 202.986 97.3755 203.22 96.3528 203.22ZM96.3599 201.438C97.0228 201.438 97.572 201.262 98.0076 200.912C98.4432 200.562 98.7652 200.095 98.9735 199.513C99.1866 198.93 99.2931 198.289 99.2931 197.588C99.2931 196.892 99.1866 196.253 98.9735 195.67C98.7652 195.083 98.4432 194.612 98.0076 194.257C97.572 193.902 97.0228 193.724 96.3599 193.724C95.6923 193.724 95.1383 193.902 94.698 194.257C94.2624 194.612 93.938 195.083 93.725 195.67C93.5166 196.253 93.4125 196.892 93.4125 197.588C93.4125 198.289 93.5166 198.93 93.725 199.513C93.938 200.095 94.2624 200.562 94.698 200.912C95.1383 201.262 95.6923 201.438 96.3599 201.438ZM105.932 196.523V203H103.808V192.091H105.847V193.866H105.982C106.233 193.289 106.626 192.825 107.161 192.474C107.7 192.124 108.38 191.949 109.199 191.949C109.942 191.949 110.593 192.105 111.152 192.418C111.711 192.725 112.144 193.185 112.452 193.795C112.76 194.406 112.914 195.161 112.914 196.061V203H110.79V196.317C110.79 195.526 110.584 194.908 110.172 194.463C109.76 194.013 109.194 193.788 108.475 193.788C107.982 193.788 107.544 193.895 107.161 194.108C106.782 194.321 106.481 194.634 106.259 195.045C106.041 195.453 105.932 195.945 105.932 196.523ZM123.936 194.754L122.012 195.095C121.931 194.849 121.803 194.615 121.628 194.392C121.458 194.17 121.226 193.987 120.932 193.845C120.638 193.703 120.271 193.632 119.831 193.632C119.23 193.632 118.728 193.767 118.325 194.037C117.923 194.302 117.722 194.645 117.722 195.067C117.722 195.431 117.857 195.725 118.127 195.947C118.396 196.17 118.832 196.352 119.433 196.494L121.166 196.892C122.17 197.124 122.918 197.482 123.411 197.964C123.903 198.447 124.149 199.075 124.149 199.847C124.149 200.5 123.96 201.082 123.581 201.594C123.207 202.1 122.684 202.498 122.012 202.787C121.344 203.076 120.57 203.22 119.689 203.22C118.468 203.22 117.471 202.96 116.699 202.439C115.927 201.913 115.454 201.168 115.279 200.202L117.331 199.889C117.459 200.424 117.722 200.829 118.119 201.104C118.517 201.374 119.036 201.509 119.675 201.509C120.371 201.509 120.927 201.364 121.344 201.075C121.761 200.782 121.969 200.424 121.969 200.003C121.969 199.662 121.841 199.375 121.585 199.143C121.334 198.911 120.949 198.736 120.428 198.618L118.581 198.213C117.563 197.981 116.81 197.612 116.323 197.105C115.84 196.598 115.598 195.957 115.598 195.18C115.598 194.536 115.778 193.973 116.138 193.49C116.498 193.007 116.995 192.631 117.629 192.361C118.264 192.086 118.991 191.949 119.81 191.949C120.989 191.949 121.917 192.205 122.594 192.716C123.271 193.223 123.718 193.902 123.936 194.754ZM133.176 203H130.847L136.081 188.455H138.617L143.851 203H141.521L137.409 191.097H137.296L133.176 203ZM133.567 197.304H141.124V199.151H133.567V197.304ZM145.781 207.091V192.091H147.855V193.859H148.032C148.156 193.632 148.333 193.369 148.565 193.071C148.797 192.773 149.119 192.512 149.531 192.29C149.943 192.062 150.488 191.949 151.165 191.949C152.045 191.949 152.831 192.171 153.523 192.616C154.214 193.062 154.756 193.703 155.149 194.541C155.547 195.379 155.746 196.388 155.746 197.567C155.746 198.746 155.549 199.757 155.156 200.599C154.763 201.437 154.223 202.084 153.537 202.538C152.85 202.988 152.067 203.213 151.186 203.213C150.523 203.213 149.981 203.102 149.559 202.879C149.143 202.657 148.816 202.396 148.579 202.098C148.343 201.8 148.16 201.535 148.032 201.303H147.905V207.091H145.781ZM147.862 197.545C147.862 198.312 147.973 198.985 148.196 199.562C148.418 200.14 148.74 200.592 149.162 200.919C149.583 201.241 150.099 201.402 150.71 201.402C151.345 201.402 151.875 201.234 152.301 200.898C152.727 200.557 153.049 200.095 153.267 199.513C153.489 198.93 153.601 198.275 153.601 197.545C153.601 196.826 153.492 196.179 153.274 195.607C153.061 195.034 152.739 194.581 152.308 194.25C151.882 193.919 151.349 193.753 150.71 193.753C150.095 193.753 149.574 193.911 149.148 194.229C148.726 194.546 148.407 194.989 148.189 195.557C147.971 196.125 147.862 196.788 147.862 197.545ZM158.125 207.091V192.091H160.199V193.859H160.376C160.499 193.632 160.677 193.369 160.909 193.071C161.141 192.773 161.463 192.512 161.875 192.29C162.287 192.062 162.831 191.949 163.508 191.949C164.389 191.949 165.175 192.171 165.866 192.616C166.558 193.062 167.1 193.703 167.493 194.541C167.89 195.379 168.089 196.388 168.089 197.567C168.089 198.746 167.893 199.757 167.5 200.599C167.107 201.437 166.567 202.084 165.881 202.538C165.194 202.988 164.41 203.213 163.53 203.213C162.867 203.213 162.325 203.102 161.903 202.879C161.487 202.657 161.16 202.396 160.923 202.098C160.686 201.8 160.504 201.535 160.376 201.303H160.248V207.091H158.125ZM160.206 197.545C160.206 198.312 160.317 198.985 160.54 199.562C160.762 200.14 161.084 200.592 161.506 200.919C161.927 201.241 162.443 201.402 163.054 201.402C163.688 201.402 164.219 201.234 164.645 200.898C165.071 200.557 165.393 200.095 165.611 199.513C165.833 198.93 165.944 198.275 165.944 197.545C165.944 196.826 165.836 196.179 165.618 195.607C165.405 195.034 165.083 194.581 164.652 194.25C164.226 193.919 163.693 193.753 163.054 193.753C162.438 193.753 161.917 193.911 161.491 194.229C161.07 194.546 160.75 194.989 160.532 195.557C160.315 196.125 160.206 196.788 160.206 197.545ZM175.17 203.22C174.095 203.22 173.17 202.991 172.393 202.531C171.622 202.067 171.025 201.416 170.604 200.578C170.187 199.735 169.979 198.748 169.979 197.616C169.979 196.499 170.187 195.514 170.604 194.662C171.025 193.81 171.612 193.144 172.365 192.666C173.122 192.188 174.008 191.949 175.021 191.949C175.637 191.949 176.233 192.051 176.811 192.254C177.389 192.458 177.907 192.777 178.366 193.213C178.826 193.649 179.188 194.214 179.453 194.911C179.718 195.602 179.851 196.442 179.851 197.432V198.185H171.179V196.594H177.77C177.77 196.035 177.656 195.54 177.429 195.109C177.202 194.674 176.882 194.33 176.47 194.08C176.063 193.829 175.585 193.703 175.035 193.703C174.439 193.703 173.918 193.85 173.473 194.143C173.032 194.432 172.692 194.811 172.45 195.28C172.213 195.744 172.095 196.248 172.095 196.793V198.036C172.095 198.765 172.223 199.385 172.479 199.896C172.739 200.408 173.101 200.798 173.565 201.068C174.029 201.333 174.571 201.466 175.192 201.466C175.594 201.466 175.961 201.409 176.292 201.295C176.624 201.177 176.91 201.002 177.152 200.77C177.393 200.538 177.578 200.251 177.706 199.911L179.716 200.273C179.555 200.865 179.266 201.383 178.849 201.828C178.437 202.268 177.919 202.612 177.294 202.858C176.674 203.099 175.966 203.22 175.17 203.22ZM185.382 203.241C184.69 203.241 184.065 203.114 183.507 202.858C182.948 202.598 182.505 202.221 182.178 201.729C181.856 201.236 181.695 200.633 181.695 199.918C181.695 199.302 181.814 198.795 182.051 198.398C182.287 198 182.607 197.685 183.009 197.453C183.412 197.221 183.862 197.046 184.359 196.928C184.856 196.809 185.363 196.719 185.879 196.658C186.532 196.582 187.062 196.52 187.47 196.473C187.877 196.421 188.173 196.338 188.357 196.224C188.542 196.111 188.634 195.926 188.634 195.67V195.621C188.634 195 188.459 194.52 188.109 194.179C187.763 193.838 187.247 193.668 186.561 193.668C185.846 193.668 185.282 193.826 184.87 194.143C184.463 194.456 184.181 194.804 184.025 195.188L182.029 194.733C182.266 194.07 182.612 193.535 183.066 193.128C183.526 192.716 184.053 192.418 184.65 192.233C185.247 192.044 185.874 191.949 186.532 191.949C186.968 191.949 187.429 192.001 187.917 192.105C188.41 192.205 188.869 192.389 189.295 192.659C189.726 192.929 190.079 193.315 190.353 193.817C190.628 194.314 190.765 194.96 190.765 195.756V203H188.691V201.509H188.606C188.469 201.783 188.263 202.053 187.988 202.318C187.713 202.583 187.361 202.804 186.93 202.979C186.499 203.154 185.983 203.241 185.382 203.241ZM185.843 201.537C186.43 201.537 186.932 201.421 187.349 201.189C187.77 200.957 188.09 200.654 188.308 200.28C188.53 199.901 188.642 199.496 188.642 199.065V197.659C188.566 197.735 188.419 197.806 188.201 197.872C187.988 197.934 187.744 197.988 187.47 198.036C187.195 198.078 186.927 198.118 186.667 198.156C186.407 198.189 186.189 198.218 186.014 198.241C185.602 198.294 185.225 198.381 184.884 198.504C184.548 198.627 184.278 198.805 184.075 199.037C183.876 199.264 183.776 199.567 183.776 199.946C183.776 200.472 183.971 200.869 184.359 201.139C184.747 201.404 185.242 201.537 185.843 201.537ZM193.594 203V192.091H195.646V193.824H195.76C195.959 193.237 196.309 192.775 196.811 192.439C197.318 192.098 197.89 191.928 198.53 191.928C198.662 191.928 198.818 191.932 198.998 191.942C199.183 191.951 199.327 191.963 199.432 191.977V194.009C199.346 193.985 199.195 193.959 198.977 193.93C198.759 193.897 198.541 193.881 198.324 193.881C197.822 193.881 197.374 193.987 196.981 194.2C196.593 194.409 196.285 194.7 196.058 195.074C195.831 195.443 195.717 195.865 195.717 196.338V203H193.594ZM206.733 203V188.455H208.927V194.776H216.179V188.455H218.381V203H216.179V196.658H208.927V203H206.733ZM226.108 203.22C225.033 203.22 224.107 202.991 223.331 202.531C222.559 202.067 221.962 201.416 221.541 200.578C221.124 199.735 220.916 198.748 220.916 197.616C220.916 196.499 221.124 195.514 221.541 194.662C221.962 193.81 222.55 193.144 223.302 192.666C224.06 192.188 224.945 191.949 225.959 191.949C226.574 191.949 227.171 192.051 227.748 192.254C228.326 192.458 228.845 192.777 229.304 193.213C229.763 193.649 230.125 194.214 230.39 194.911C230.656 195.602 230.788 196.442 230.788 197.432V198.185H222.116V196.594H228.707C228.707 196.035 228.594 195.54 228.366 195.109C228.139 194.674 227.819 194.33 227.407 194.08C227 193.829 226.522 193.703 225.973 193.703C225.376 193.703 224.855 193.85 224.41 194.143C223.97 194.432 223.629 194.811 223.388 195.28C223.151 195.744 223.032 196.248 223.032 196.793V198.036C223.032 198.765 223.16 199.385 223.416 199.896C223.676 200.408 224.039 200.798 224.503 201.068C224.967 201.333 225.509 201.466 226.129 201.466C226.532 201.466 226.898 201.409 227.23 201.295C227.561 201.177 227.848 201.002 228.089 200.77C228.331 200.538 228.515 200.251 228.643 199.911L230.653 200.273C230.492 200.865 230.203 201.383 229.787 201.828C229.375 202.268 228.856 202.612 228.231 202.858C227.611 203.099 226.903 203.22 226.108 203.22ZM233.144 203V192.091H235.197V193.824H235.311C235.509 193.237 235.86 192.775 236.362 192.439C236.868 192.098 237.441 191.928 238.08 191.928C238.213 191.928 238.369 191.932 238.549 191.942C238.734 191.951 238.878 191.963 238.982 191.977V194.009C238.897 193.985 238.746 193.959 238.528 193.93C238.31 193.897 238.092 193.881 237.874 193.881C237.373 193.881 236.925 193.987 236.532 194.2C236.144 194.409 235.836 194.7 235.609 195.074C235.382 195.443 235.268 195.865 235.268 196.338V203H233.144ZM245.131 203.22C244.056 203.22 243.131 202.991 242.354 202.531C241.582 202.067 240.986 201.416 240.564 200.578C240.148 199.735 239.939 198.748 239.939 197.616C239.939 196.499 240.148 195.514 240.564 194.662C240.986 193.81 241.573 193.144 242.326 192.666C243.083 192.188 243.969 191.949 244.982 191.949C245.598 191.949 246.194 192.051 246.772 192.254C247.349 192.458 247.868 192.777 248.327 193.213C248.787 193.649 249.149 194.214 249.414 194.911C249.679 195.602 249.812 196.442 249.812 197.432V198.185H241.14V196.594H247.731C247.731 196.035 247.617 195.54 247.39 195.109C247.162 194.674 246.843 194.33 246.431 194.08C246.024 193.829 245.546 193.703 244.996 193.703C244.4 193.703 243.879 193.85 243.434 194.143C242.993 194.432 242.653 194.811 242.411 195.28C242.174 195.744 242.056 196.248 242.056 196.793V198.036C242.056 198.765 242.184 199.385 242.439 199.896C242.7 200.408 243.062 200.798 243.526 201.068C243.99 201.333 244.532 201.466 245.153 201.466C245.555 201.466 245.922 201.409 246.253 201.295C246.585 201.177 246.871 201.002 247.113 200.77C247.354 200.538 247.539 200.251 247.667 199.911L249.677 200.273C249.516 200.865 249.227 201.383 248.81 201.828C248.398 202.268 247.88 202.612 247.255 202.858C246.635 203.099 245.927 203.22 245.131 203.22ZM254.845 188.455L254.661 198.817H252.693L252.509 188.455H254.845ZM253.681 203.135C253.288 203.135 252.951 202.998 252.672 202.723C252.393 202.444 252.255 202.107 252.26 201.714C252.255 201.326 252.393 200.995 252.672 200.72C252.951 200.441 253.288 200.301 253.681 200.301C254.064 200.301 254.396 200.441 254.675 200.72C254.954 200.995 255.096 201.326 255.101 201.714C255.096 201.975 255.028 202.214 254.895 202.432C254.767 202.645 254.597 202.815 254.384 202.943C254.171 203.071 253.936 203.135 253.681 203.135Z" fill="#C6C6C6"/>
<g clip-path="url(#clip0_145_1286)">
<path d="M134.918 129.387L42.9771 152.978C39.8584 153.775 36.5499 153.306 33.7775 151.675C31.0052 150.044 28.9953 147.384 28.1889 144.278L0.385072 36.6841C-0.414251 33.5765 0.0561492 30.2798 1.69307 27.5172C3.33 24.7547 5.99977 22.752 9.11669 21.9485L94.653 0.000366211L116.545 9.76604L143.65 114.651C144.449 117.758 143.979 121.055 142.342 123.818C140.705 126.58 138.035 128.583 134.918 129.387Z" fill="#F2F2F2"/>
<path d="M9.98674 25.3218C7.7671 25.894 5.86587 27.3202 4.70016 29.2874C3.53444 31.2546 3.19943 33.6023 3.76862 35.8153L31.5742 143.409C32.1484 145.621 33.5797 147.515 35.5539 148.677C37.5281 149.839 39.8842 150.172 42.1051 149.605L134.046 126.014C136.266 125.442 138.167 124.016 139.333 122.048C140.499 120.081 140.834 117.734 140.264 115.52L113.579 12.2601L94.3389 3.67743L9.98674 25.3218Z" fill="white"/>
<path d="M116.311 10.322L102.082 13.9732C101.043 14.2397 99.9405 14.0842 99.0169 13.5407C98.0932 12.9972 97.4241 12.1104 97.1566 11.0754L94.4503 0.603256C94.4385 0.557433 94.4399 0.509232 94.4543 0.464169C94.4688 0.419105 94.4956 0.378997 94.5319 0.34844C94.5681 0.317882 94.6122 0.298111 94.6592 0.291381C94.7062 0.284652 94.7542 0.291237 94.7976 0.310388L116.351 9.84794C116.399 9.86919 116.439 9.90479 116.465 9.94978C116.492 9.99477 116.504 10.0469 116.5 10.099C116.495 10.1511 116.475 10.2006 116.441 10.2406C116.407 10.2805 116.362 10.309 116.311 10.322Z" fill="#F2F2F2"/>
<path d="M108.825 102.204L66.9657 112.946C66.4474 113.075 65.8987 112.996 65.4393 112.724C64.98 112.452 64.6473 112.01 64.5141 111.494C64.3808 110.978 64.4578 110.431 64.7282 109.972C64.9986 109.512 65.4404 109.179 65.9572 109.043L107.817 98.301C108.074 98.2333 108.343 98.217 108.607 98.2532C108.871 98.2893 109.125 98.3771 109.355 98.5115C109.585 98.6458 109.786 98.8242 109.947 99.0362C110.107 99.2483 110.224 99.4898 110.29 99.747C110.357 100.004 110.372 100.272 110.334 100.535C110.296 100.798 110.207 101.051 110.07 101.279C109.934 101.507 109.754 101.707 109.54 101.865C109.327 102.024 109.084 102.139 108.825 102.204Z" fill="#CCCCCC"/>
<path d="M118.605 106.717L68.6674 119.531C68.4097 119.598 68.1411 119.615 67.877 119.579C67.613 119.542 67.3587 119.455 67.1288 119.32C66.8989 119.186 66.698 119.007 66.5375 118.795C66.377 118.583 66.2602 118.342 66.1938 118.085C66.1273 117.827 66.1125 117.56 66.1503 117.297C66.188 117.034 66.2775 116.781 66.4137 116.553C66.5499 116.324 66.73 116.125 66.9437 115.966C67.1574 115.808 67.4005 115.693 67.6589 115.628L117.597 102.814C118.115 102.684 118.664 102.764 119.123 103.036C119.582 103.308 119.915 103.75 120.048 104.266C120.181 104.781 120.104 105.329 119.834 105.788C119.564 106.247 119.122 106.581 118.605 106.717Z" fill="#CCCCCC"/>
<path d="M49.881 125.881C53.8285 125.881 57.0286 122.693 57.0286 118.759C57.0286 114.826 53.8285 111.637 49.881 111.637C45.9335 111.637 42.7334 114.826 42.7334 118.759C42.7334 122.693 45.9335 125.881 49.881 125.881Z" fill="#E9E6E6"/>
<path d="M104.374 83.565L48.7804 97.8248C47.1737 98.235 45.4693 97.9934 44.0412 97.1529C42.613 96.3125 41.5778 94.9419 41.1626 93.3419L29.5126 48.2437C29.1013 46.643 29.344 44.945 30.1874 43.5223C31.0308 42.0995 32.406 41.0682 34.0115 40.6544L89.6051 26.3947C91.2118 25.9844 92.9161 26.226 94.3443 27.0665C95.7724 27.9069 96.8076 29.2775 97.2228 30.8776L108.873 75.9757C109.284 77.5765 109.042 79.2744 108.198 80.6971C107.355 82.1199 105.98 83.1512 104.374 83.565Z" fill="white"/>
<path d="M104.374 83.565L48.7804 97.8248C47.1737 98.235 45.4693 97.9934 44.0412 97.1529C42.613 96.3125 41.5778 94.9419 41.1626 93.3419L29.5126 48.2437C29.1013 46.643 29.344 44.945 30.1874 43.5223C31.0308 42.0995 32.406 41.0682 34.0115 40.6544L89.6051 26.3947C91.2118 25.9844 92.9161 26.226 94.3443 27.0665C95.7724 27.9069 96.8076 29.2775 97.2228 30.8776L108.873 75.9757C109.284 77.5765 109.042 79.2744 108.198 80.6971C107.355 82.1199 105.98 83.1512 104.374 83.565ZM34.1948 41.3633C32.7782 41.7288 31.5649 42.6391 30.8211 43.8947C30.0772 45.1503 29.8635 46.6487 30.2268 48.0611L41.8772 93.1592C42.2439 94.5707 43.1575 95.7797 44.4176 96.5209C45.6777 97.2621 47.1814 97.4751 48.5988 97.1131L104.191 82.8547C105.608 82.4892 106.821 81.5789 107.565 80.3233C108.309 79.0677 108.523 77.5693 108.159 76.1569L96.51 31.0588C96.1433 29.6473 95.2297 28.4383 93.9696 27.6971C92.7095 26.9559 91.2058 26.7429 89.7884 27.1049L34.1948 41.3633Z" fill="#E6E6E6"/>
<path d="M86.7843 41.5572L58.7277 48.7539C58.4824 48.8221 58.2203 48.7951 57.9944 48.6781C57.7684 48.5612 57.5953 48.3632 57.5102 48.1241C57.4706 47.9991 57.457 47.8674 57.4702 47.737C57.4834 47.6066 57.5231 47.4802 57.5869 47.3656C57.6507 47.251 57.7373 47.1506 57.8414 47.0704C57.9454 46.9903 58.0648 46.9321 58.1922 46.8994L86.7527 39.5736C87.9066 40.1562 87.6028 41.3476 86.7847 41.5575L86.7843 41.5572Z" fill="#F2F2F2"/>
<path d="M88.0504 46.4596L59.9938 53.6563C59.7485 53.7245 59.4864 53.6975 59.2605 53.5805C59.0345 53.4636 58.8615 53.2656 58.7764 53.0265C58.7368 52.9015 58.7231 52.7698 58.7363 52.6394C58.7495 52.509 58.7892 52.3826 58.853 52.268C58.9168 52.1534 59.0034 52.053 59.1075 51.9728C59.2115 51.8927 59.3309 51.8345 59.4583 51.8018L88.0188 44.476C89.1727 45.0586 88.869 46.25 88.0508 46.4599L88.0504 46.4596Z" fill="#F2F2F2"/>
<path d="M54.6499 58.0056L46.0872 60.2012C45.9487 60.2368 45.8045 60.2448 45.6629 60.2248C45.5213 60.2048 45.3851 60.1573 45.2619 60.0848C45.1388 60.0123 45.0312 59.9164 44.9453 59.8025C44.8594 59.6886 44.7968 59.5589 44.7612 59.4209L42.1599 49.3543C42.1242 49.2163 42.1162 49.0727 42.1362 48.9316C42.1563 48.7905 42.204 48.6548 42.2767 48.5321C42.3495 48.4094 42.4457 48.3021 42.56 48.2165C42.6744 48.1309 42.8045 48.0686 42.943 48.0331L51.5057 45.8368C51.7854 45.7655 52.082 45.8075 52.3305 45.9538C52.5791 46.1001 52.7593 46.3386 52.8316 46.6171L55.4329 56.6861C55.4686 56.8241 55.4767 56.9677 55.4566 57.1088C55.4366 57.2499 55.3889 57.3857 55.3161 57.5084C55.2434 57.6311 55.1471 57.7383 55.0328 57.8239C54.9185 57.9095 54.7884 57.9718 54.6499 58.0073V58.0056Z" fill="#E9E6E6"/>
<path d="M90.5634 56.5231L47.7428 67.5064C47.4976 67.5746 47.2355 67.5475 47.0095 67.4306C46.7835 67.3137 46.6105 67.1157 46.5254 66.8766C46.4858 66.7516 46.4722 66.6199 46.4853 66.4895C46.4985 66.3591 46.5382 66.2327 46.6021 66.1181C46.6659 66.0035 46.7524 65.9031 46.8565 65.8229C46.9606 65.7428 47.0799 65.6846 47.2073 65.6519L90.5318 54.5391C91.6857 55.1217 91.3816 56.3131 90.5634 56.5231Z" fill="#F2F2F2"/>
<path d="M91.8317 61.4279L49.0104 72.4116C48.7651 72.4798 48.5031 72.4527 48.2771 72.3358C48.0511 72.2189 47.8781 72.0209 47.793 71.7818C47.7534 71.6568 47.7397 71.5251 47.7529 71.3947C47.7661 71.2643 47.8058 71.1379 47.8696 71.0233C47.9334 70.9087 48.02 70.8083 48.1241 70.7281C48.2281 70.648 48.3475 70.5898 48.4749 70.5571L91.7994 59.4443C92.9533 60.0269 92.6495 61.2183 91.8314 61.4283L91.8317 61.4279Z" fill="#F2F2F2"/>
<path d="M93.0971 66.3307L50.2765 77.3141C50.0313 77.3823 49.7692 77.3552 49.5432 77.2383C49.3172 77.1214 49.1442 76.9234 49.0591 76.6842C49.0195 76.5593 49.0059 76.4275 49.019 76.2971C49.0322 76.1667 49.0719 76.0404 49.1357 75.9258C49.1995 75.8112 49.2861 75.7107 49.3902 75.6306C49.4943 75.5504 49.6136 75.4923 49.741 75.4596L93.0652 64.3468C94.219 64.9294 93.9153 66.1208 93.0971 66.3307Z" fill="#F2F2F2"/>
<path d="M94.3646 71.2356L51.5436 82.2189C51.2983 82.2871 51.0363 82.2601 50.8103 82.1431C50.5843 82.0262 50.4113 81.8282 50.3262 81.5891C50.2866 81.4641 50.2729 81.3324 50.2861 81.202C50.2993 81.0716 50.339 80.9452 50.4028 80.8306C50.4666 80.716 50.5532 80.6156 50.6573 80.5354C50.7614 80.4553 50.8807 80.3971 51.0081 80.3644L94.3326 69.2516C95.4861 69.8342 95.1827 71.0256 94.3646 71.2356Z" fill="#F2F2F2"/>
<path d="M95.6308 76.138L52.8102 87.1214C52.5649 87.1896 52.3028 87.1625 52.0769 87.0456C51.8509 86.9287 51.6779 86.7307 51.5928 86.4915C51.5532 86.3666 51.5395 86.2349 51.5527 86.1045C51.5659 85.974 51.6056 85.8477 51.6694 85.7331C51.7332 85.6185 51.8198 85.518 51.9239 85.4379C52.0279 85.3577 52.1473 85.2996 52.2747 85.2669L95.5992 74.1541C96.7527 74.7367 96.449 75.9281 95.6308 76.138Z" fill="#F2F2F2"/>
<path d="M50.4082 121.256C50.2526 121.296 50.0881 121.285 49.9395 121.224L49.9303 121.22L47.9832 120.397C47.893 120.359 47.8112 120.303 47.7425 120.234C47.6739 120.164 47.6197 120.081 47.583 119.991C47.5463 119.9 47.5279 119.803 47.5288 119.706C47.5298 119.608 47.55 119.511 47.5883 119.421C47.6267 119.331 47.6825 119.25 47.7525 119.182C47.8224 119.113 47.9052 119.059 47.9962 119.023C48.0871 118.986 48.1843 118.968 48.2824 118.969C48.3804 118.97 48.4773 118.99 48.5675 119.028L49.8292 119.563L51.4824 115.687C51.5598 115.506 51.7065 115.362 51.89 115.288C52.0735 115.215 52.2789 115.217 52.461 115.294L52.4512 115.319L52.4614 115.293C52.6435 115.371 52.7873 115.517 52.8613 115.7C52.9353 115.883 52.9334 116.087 52.8561 116.269L50.9111 120.826C50.866 120.931 50.7972 121.024 50.71 121.098C50.6229 121.173 50.5197 121.226 50.4086 121.254L50.4082 121.256Z" fill="white"/>
<path d="M225.149 157.694L131.971 139.661C128.812 139.046 126.027 137.206 124.227 134.546C122.428 131.887 121.761 128.623 122.372 125.473L143.667 16.3924C144.286 13.2434 146.132 10.4669 148.801 8.67212C151.47 6.87735 154.744 6.21086 157.905 6.81887L244.591 23.5963L260.145 41.7856L239.386 148.12C238.768 151.269 236.922 154.046 234.253 155.841C231.583 157.636 228.309 158.302 225.149 157.694Z" fill="#E6E6E6"/>
<path d="M157.237 10.2391C154.986 9.80615 152.655 10.2808 150.754 11.5588C148.854 12.8369 147.539 14.8141 147.098 17.0565L125.804 126.137C125.368 128.38 125.844 130.704 127.125 132.598C128.407 134.492 130.39 135.801 132.639 136.239L225.817 154.273C228.067 154.706 230.399 154.231 232.299 152.953C234.2 151.675 235.515 149.698 235.955 147.456L256.392 42.7694L242.723 26.7842L157.237 10.2391Z" fill="white"/>
<path d="M226.099 56.4932L183.669 48.2776C183.142 48.1757 182.678 47.8694 182.378 47.426C182.078 46.9827 181.967 46.4387 182.07 45.9137C182.172 45.3887 182.48 44.9256 182.924 44.6265C183.369 44.3273 183.915 44.2165 184.441 44.3184L226.872 52.5342C227.399 52.6362 227.863 52.9425 228.163 53.3858C228.463 53.8291 228.574 54.3732 228.471 54.8982C228.369 55.4232 228.061 55.8862 227.617 56.1854C227.172 56.4846 226.626 56.5954 226.1 56.4934L226.099 56.4932Z" fill="#E9E6E6"/>
<path d="M232.985 64.7553L182.366 54.9538C181.84 54.8519 181.376 54.5456 181.076 54.1022C180.776 53.6589 180.665 53.1148 180.768 52.5898C180.87 52.0647 181.177 51.6017 181.622 51.3025C182.067 51.0033 182.612 50.8925 183.139 50.9945L233.758 60.7959C234.284 60.8979 234.748 61.2042 235.048 61.6476C235.348 62.0909 235.459 62.6349 235.356 63.16C235.254 63.685 234.947 64.1481 234.502 64.4472C234.057 64.7464 233.512 64.8572 232.985 64.7553Z" fill="#E9E6E6"/>
<path d="M221.036 82.4507L178.606 74.2353C178.08 74.1333 177.534 74.2441 177.09 74.5433C176.645 74.8424 176.338 75.3054 176.235 75.8304C176.133 76.3554 176.244 76.8993 176.544 77.3426C176.843 77.7859 177.308 78.0922 177.834 78.1941L220.263 86.4095C220.786 86.5037 221.326 86.3886 221.765 86.0891C222.204 85.7896 222.507 85.3299 222.608 84.8094C222.71 84.2889 222.602 83.7495 222.307 83.3081C222.013 82.8666 221.556 82.5586 221.036 82.4507Z" fill="#CCCCCC"/>
<path d="M227.922 90.7134L177.304 80.9121C177.042 80.8577 176.772 80.8558 176.509 80.9066C176.246 80.9573 175.995 81.0596 175.772 81.2075C175.549 81.3554 175.358 81.546 175.209 81.7683C175.061 81.9905 174.958 82.24 174.907 82.5021C174.856 82.7643 174.857 83.034 174.911 83.2955C174.965 83.557 175.071 83.8052 175.222 84.0256C175.374 84.2459 175.567 84.4342 175.792 84.5793C176.017 84.7245 176.268 84.8236 176.532 84.8711L227.149 94.6723C227.412 94.7267 227.682 94.7286 227.945 94.6778C228.208 94.6271 228.458 94.5249 228.681 94.3769C228.904 94.229 229.096 94.0384 229.244 93.8161C229.393 93.5939 229.496 93.3444 229.547 93.0823C229.598 92.8201 229.596 92.5504 229.542 92.2889C229.488 92.0274 229.382 91.7792 229.231 91.5589C229.08 91.3385 228.886 91.1502 228.662 91.0051C228.437 90.8599 228.186 90.7608 227.922 90.7134Z" fill="#CCCCCC"/>
<path d="M214.426 116.328L171.996 108.113C171.47 108.011 171.005 107.705 170.706 107.261C170.406 106.818 170.295 106.274 170.397 105.749C170.5 105.224 170.807 104.761 171.252 104.462C171.697 104.163 172.242 104.052 172.769 104.154L215.2 112.369C215.726 112.471 216.191 112.778 216.491 113.221C216.79 113.664 216.901 114.208 216.799 114.733C216.696 115.258 216.389 115.722 215.944 116.021C215.499 116.32 214.954 116.431 214.427 116.329L214.426 116.328Z" fill="#CCCCCC"/>
<path d="M221.313 124.59L170.694 114.789C170.167 114.687 169.703 114.38 169.403 113.937C169.104 113.494 168.993 112.95 169.095 112.425C169.198 111.9 169.505 111.437 169.95 111.137C170.394 110.838 170.94 110.727 171.467 110.829L222.085 120.631C222.612 120.733 223.076 121.039 223.376 121.482C223.676 121.926 223.787 122.47 223.684 122.995C223.582 123.52 223.274 123.983 222.83 124.282C222.385 124.581 221.839 124.692 221.313 124.59Z" fill="#CCCCCC"/>
<path d="M164.369 53.2051C168.243 53.9549 171.995 51.432 172.749 47.5701C173.503 43.7082 170.973 39.9696 167.099 39.2198C163.225 38.47 159.473 40.9928 158.719 44.8547C157.965 48.7167 160.494 52.4552 164.369 53.2051Z" fill="#E9E6E6"/>
<path d="M164.518 48.7452C164.36 48.7149 164.217 48.6343 164.109 48.5155L164.102 48.5081L162.699 46.9317C162.57 46.7836 162.506 46.591 162.519 46.3958C162.532 46.2006 162.622 46.0184 162.769 45.8887C162.916 45.759 163.109 45.6922 163.305 45.7027C163.501 45.7133 163.684 45.8004 163.816 45.9451L164.726 46.9682L167.889 44.1749C167.962 44.1102 168.048 44.0604 168.14 44.0286C168.233 43.9967 168.331 43.9834 168.429 43.9893C168.527 43.9952 168.622 44.0203 168.711 44.0631C168.799 44.1059 168.877 44.1655 168.942 44.2387L168.923 44.2566L168.943 44.2381C169.074 44.3859 169.141 44.5794 169.129 44.7763C169.117 44.9732 169.027 45.1572 168.879 45.2881L165.157 48.5722C165.071 48.6478 164.968 48.7026 164.858 48.7325C164.747 48.7623 164.631 48.7663 164.518 48.7442L164.518 48.7452Z" fill="white"/>
<path d="M167.634 77.6264C167.455 78.5448 167.096 79.4192 166.578 80.1996C166.06 80.98 165.393 81.6512 164.615 82.1747C163.837 82.6982 162.963 83.0638 162.044 83.2507C161.124 83.4377 160.176 83.4421 159.255 83.264C159.194 83.2535 159.134 83.2394 159.076 83.2218C157.703 82.9196 156.451 82.2206 155.475 81.2124C154.5 80.2042 153.844 78.9314 153.591 77.5535C153.338 76.1755 153.498 74.7535 154.051 73.4655C154.605 72.1774 155.527 71.0804 156.702 70.3119C157.878 69.5433 159.255 69.1373 160.66 69.1446C162.066 69.1519 163.438 69.5722 164.605 70.3529C165.771 71.1336 166.681 72.2401 167.22 73.5338C167.759 74.8275 167.903 76.2511 167.634 77.6264Z" fill="#E9E6E6"/>
<path d="M152.696 113.04C156.571 113.79 160.323 111.267 161.077 107.405C161.83 103.543 159.301 99.8045 155.427 99.0547C151.552 98.3049 147.8 100.828 147.047 104.69C146.293 108.552 148.822 112.29 152.696 113.04Z" fill="#E9E6E6"/>
<path d="M259.694 42.2066L245.273 39.4154C244.22 39.2117 243.292 38.5994 242.692 37.7132C242.093 36.8271 241.871 35.7396 242.076 34.6902L244.149 24.0729C244.158 24.0264 244.18 23.9834 244.212 23.9489C244.245 23.9143 244.286 23.8896 244.332 23.8775C244.378 23.8654 244.426 23.8664 244.472 23.8805C244.517 23.8945 244.558 23.921 244.589 23.957L259.935 41.7942C259.969 41.8339 259.99 41.8832 259.994 41.9353C259.999 41.9874 259.987 42.0396 259.961 42.0848C259.935 42.13 259.895 42.1659 259.847 42.1875C259.799 42.2092 259.746 42.2155 259.694 42.2055L259.694 42.2066Z" fill="#CCCCCC"/>
<path d="M174.202 148.341C173.758 149.066 173.043 149.586 172.214 149.786C171.385 149.987 170.51 149.85 169.782 149.408L132.261 126.603C131.533 126.16 131.011 125.448 130.81 124.622C130.609 123.796 130.746 122.924 131.19 122.199C131.634 121.473 132.349 120.953 133.178 120.753C134.007 120.553 134.882 120.689 135.61 121.131L173.131 143.936C173.859 144.379 174.381 145.092 174.582 145.918C174.782 146.744 174.646 147.615 174.202 148.341Z" fill="#C6C6C6"/>
<path d="M136.681 125.537C134.032 129.866 130.154 133.314 125.537 135.447C120.921 137.579 115.773 138.299 110.746 137.517C105.719 136.734 101.037 134.484 97.2938 131.05C93.5502 127.616 90.9125 123.153 89.7142 118.225C88.516 113.298 88.8111 108.127 90.5622 103.366C92.3132 98.606 95.4416 94.4699 99.5518 91.481C103.662 88.4922 108.569 86.785 113.653 86.5752C118.737 86.3655 123.769 87.6626 128.113 90.3026C130.998 92.0555 133.507 94.3574 135.499 97.0768C137.491 99.7962 138.925 102.88 139.721 106.152C140.516 109.424 140.657 112.82 140.136 116.146C139.614 119.472 138.441 122.663 136.681 125.537ZM98.2454 102.175C96.2583 105.421 95.2819 109.182 95.4397 112.981C95.5976 116.781 96.8826 120.448 99.1322 123.52C101.382 126.592 104.495 128.93 108.078 130.238C111.661 131.547 115.553 131.767 119.262 130.872C122.971 129.976 126.33 128.005 128.915 125.207C131.499 122.409 133.193 118.911 133.782 115.154C134.371 111.397 133.829 107.55 132.224 104.1C130.619 100.65 128.023 97.7515 124.765 95.7715C120.396 93.1163 115.148 92.2993 110.175 93.5001C105.201 94.701 100.91 97.8213 98.2454 102.175Z" fill="#C6C6C6"/>
<path d="M107.915 130.78C118.368 134.367 129.76 128.83 133.359 118.414C136.959 107.998 131.402 96.6466 120.949 93.06C110.496 89.4735 99.1041 95.0099 95.5048 105.426C91.9055 115.842 97.4616 127.193 107.915 130.78Z" fill="#E9E6E6"/>
</g>
<defs>
<clipPath id="clip0_145_1286">
<rect width="263" height="160" fill="white"/>
</clipPath>
</defs>
</svg>
