<svg width="263" height="208" viewBox="0 0 263 208" fill="none" xmlns="http://www.w3.org/2000/svg">
<path d="M9.77575 188.455H12.4391L17.0698 199.761H17.2402L21.8709 188.455H24.5343V203H22.4462V192.474H22.3113L18.0215 202.979H16.2885L11.9988 192.467H11.8638V203H9.77575V188.455ZM28.8968 207.091C28.5796 207.091 28.2908 207.065 28.0304 207.013C27.7699 206.965 27.5758 206.913 27.448 206.857L27.9593 205.116C28.3476 205.221 28.6932 205.266 28.9963 205.251C29.2993 205.237 29.5668 205.124 29.7988 204.911C30.0356 204.697 30.2439 204.349 30.4238 203.866L30.6866 203.142L26.6951 192.091H28.9679L31.7306 200.557H31.8443L34.6071 192.091H36.8869L32.3912 204.456C32.1828 205.024 31.9177 205.505 31.5957 205.898C31.2737 206.295 30.8902 206.594 30.4451 206.793C30.0001 206.991 29.484 207.091 28.8968 207.091ZM56.427 193.185H54.2111C54.1259 192.711 53.9673 192.295 53.7353 191.935C53.5033 191.575 53.2192 191.269 52.883 191.018C52.5468 190.768 52.1704 190.578 51.7537 190.45C51.3418 190.322 50.9038 190.259 50.4398 190.259C49.6017 190.259 48.8513 190.469 48.1884 190.891C47.5302 191.312 47.0094 191.93 46.6259 192.744C46.2471 193.559 46.0577 194.553 46.0577 195.727C46.0577 196.911 46.2471 197.91 46.6259 198.724C47.0094 199.539 47.5326 200.154 48.1955 200.571C48.8584 200.988 49.6041 201.196 50.4327 201.196C50.892 201.196 51.3276 201.134 51.7395 201.011C52.1562 200.884 52.5326 200.696 52.8688 200.45C53.205 200.204 53.4891 199.903 53.7211 199.548C53.9578 199.188 54.1212 198.777 54.2111 198.312L56.427 198.32C56.3087 199.035 56.079 199.693 55.7381 200.294C55.4019 200.891 54.9687 201.407 54.4384 201.842C53.9128 202.273 53.3115 202.607 52.6344 202.844C51.9573 203.08 51.2187 203.199 50.4185 203.199C49.159 203.199 48.0369 202.901 47.052 202.304C46.0672 201.703 45.2907 200.843 44.7225 199.726C44.159 198.608 43.8773 197.276 43.8773 195.727C43.8773 194.174 44.1614 192.841 44.7296 191.729C45.2978 190.611 46.0743 189.754 47.0591 189.158C48.044 188.556 49.1638 188.256 50.4185 188.256C51.1903 188.256 51.91 188.367 52.5776 188.589C53.2499 188.807 53.8536 189.129 54.3887 189.555C54.9237 189.977 55.3664 190.493 55.7168 191.104C56.0672 191.71 56.3039 192.403 56.427 193.185ZM63.4778 203.22C62.4551 203.22 61.5626 202.986 60.8002 202.517C60.0379 202.048 59.4461 201.393 59.0247 200.55C58.6033 199.707 58.3926 198.722 58.3926 197.595C58.3926 196.464 58.6033 195.474 59.0247 194.626C59.4461 193.779 60.0379 193.121 60.8002 192.652C61.5626 192.183 62.4551 191.949 63.4778 191.949C64.5005 191.949 65.3931 192.183 66.1554 192.652C66.9177 193.121 67.5095 193.779 67.9309 194.626C68.3523 195.474 68.563 196.464 68.563 197.595C68.563 198.722 68.3523 199.707 67.9309 200.55C67.5095 201.393 66.9177 202.048 66.1554 202.517C65.3931 202.986 64.5005 203.22 63.4778 203.22ZM63.4849 201.438C64.1478 201.438 64.697 201.262 65.1326 200.912C65.5682 200.562 65.8902 200.095 66.0985 199.513C66.3116 198.93 66.4181 198.289 66.4181 197.588C66.4181 196.892 66.3116 196.253 66.0985 195.67C65.8902 195.083 65.5682 194.612 65.1326 194.257C64.697 193.902 64.1478 193.724 63.4849 193.724C62.8173 193.724 62.2633 193.902 61.823 194.257C61.3874 194.612 61.063 195.083 60.85 195.67C60.6416 196.253 60.5375 196.892 60.5375 197.588C60.5375 198.289 60.6416 198.93 60.85 199.513C61.063 200.095 61.3874 200.562 61.823 200.912C62.2633 201.262 62.8173 201.438 63.4849 201.438ZM77.8439 198.476V192.091H79.9746V203H77.8865V201.111H77.7729C77.522 201.693 77.1195 202.179 76.5655 202.567C76.0163 202.95 75.3321 203.142 74.513 203.142C73.8122 203.142 73.1919 202.988 72.6522 202.68C72.1171 202.368 71.6957 201.906 71.388 201.295C71.0849 200.685 70.9334 199.929 70.9334 199.03V192.091H73.057V198.774C73.057 199.518 73.263 200.109 73.6749 200.55C74.0868 200.99 74.6219 201.21 75.28 201.21C75.6777 201.21 76.0731 201.111 76.4661 200.912C76.8638 200.713 77.1929 200.412 77.4533 200.01C77.7185 199.607 77.8487 199.096 77.8439 198.476ZM82.8279 203V192.091H84.8805V193.824H84.9941C85.193 193.237 85.5434 192.775 86.0453 192.439C86.5519 192.098 87.1248 191.928 87.764 191.928C87.8966 191.928 88.0529 191.932 88.2328 191.942C88.4174 191.951 88.5618 191.963 88.666 191.977V194.009C88.5808 193.985 88.4293 193.959 88.2115 193.93C87.9937 193.897 87.7759 193.881 87.5581 193.881C87.0562 193.881 86.6087 193.987 86.2157 194.2C85.8275 194.409 85.5197 194.7 85.2924 195.074C85.0652 195.443 84.9515 195.865 84.9515 196.338V203H82.8279ZM98.6784 194.754L96.7537 195.095C96.6732 194.849 96.5454 194.615 96.3702 194.392C96.1998 194.17 95.9677 193.987 95.6742 193.845C95.3806 193.703 95.0137 193.632 94.5733 193.632C93.972 193.632 93.4701 193.767 93.0676 194.037C92.6652 194.302 92.464 194.645 92.464 195.067C92.464 195.431 92.5989 195.725 92.8688 195.947C93.1387 196.17 93.5743 196.352 94.1756 196.494L95.9086 196.892C96.9123 197.124 97.6605 197.482 98.1529 197.964C98.6453 198.447 98.8915 199.075 98.8915 199.847C98.8915 200.5 98.7021 201.082 98.3233 201.594C97.9493 202.1 97.4261 202.498 96.7537 202.787C96.0861 203.076 95.312 203.22 94.4313 203.22C93.2097 203.22 92.213 202.96 91.4412 202.439C90.6694 201.913 90.196 201.168 90.0208 200.202L92.0733 199.889C92.2012 200.424 92.464 200.829 92.8617 201.104C93.2594 201.374 93.7779 201.509 94.4171 201.509C95.1131 201.509 95.6694 201.364 96.0861 201.075C96.5028 200.782 96.7111 200.424 96.7111 200.003C96.7111 199.662 96.5833 199.375 96.3276 199.143C96.0766 198.911 95.6908 198.736 95.1699 198.618L93.3233 198.213C92.3053 197.981 91.5525 197.612 91.0648 197.105C90.5819 196.598 90.3404 195.957 90.3404 195.18C90.3404 194.536 90.5203 193.973 90.8801 193.49C91.24 193.007 91.7372 192.631 92.3716 192.361C93.0061 192.086 93.7329 191.949 94.552 191.949C95.731 191.949 96.659 192.205 97.3361 192.716C98.0132 193.223 98.4606 193.902 98.6784 194.754ZM105.928 203.22C104.853 203.22 103.928 202.991 103.151 202.531C102.379 202.067 101.783 201.416 101.361 200.578C100.945 199.735 100.736 198.748 100.736 197.616C100.736 196.499 100.945 195.514 101.361 194.662C101.783 193.81 102.37 193.144 103.123 192.666C103.88 192.188 104.766 191.949 105.779 191.949C106.394 191.949 106.991 192.051 107.569 192.254C108.146 192.458 108.665 192.777 109.124 193.213C109.583 193.649 109.946 194.214 110.211 194.911C110.476 195.602 110.608 196.442 110.608 197.432V198.185H101.937V196.594H108.528C108.528 196.035 108.414 195.54 108.187 195.109C107.959 194.674 107.64 194.33 107.228 194.08C106.821 193.829 106.342 193.703 105.793 193.703C105.197 193.703 104.676 193.85 104.231 194.143C103.79 194.432 103.449 194.811 103.208 195.28C102.971 195.744 102.853 196.248 102.853 196.793V198.036C102.853 198.765 102.981 199.385 103.236 199.896C103.497 200.408 103.859 200.798 104.323 201.068C104.787 201.333 105.329 201.466 105.949 201.466C106.352 201.466 106.719 201.409 107.05 201.295C107.382 201.177 107.668 201.002 107.91 200.77C108.151 200.538 108.336 200.251 108.464 199.911L110.474 200.273C110.313 200.865 110.024 201.383 109.607 201.828C109.195 202.268 108.677 202.612 108.052 202.858C107.431 203.099 106.724 203.22 105.928 203.22ZM121.139 194.754L119.215 195.095C119.134 194.849 119.006 194.615 118.831 194.392C118.661 194.17 118.429 193.987 118.135 193.845C117.842 193.703 117.475 193.632 117.034 193.632C116.433 193.632 115.931 193.767 115.529 194.037C115.126 194.302 114.925 194.645 114.925 195.067C114.925 195.431 115.06 195.725 115.33 195.947C115.6 196.17 116.035 196.352 116.637 196.494L118.369 196.892C119.373 197.124 120.121 197.482 120.614 197.964C121.106 198.447 121.352 199.075 121.352 199.847C121.352 200.5 121.163 201.082 120.784 201.594C120.41 202.1 119.887 202.498 119.215 202.787C118.547 203.076 117.773 203.22 116.892 203.22C115.671 203.22 114.674 202.96 113.902 202.439C113.13 201.913 112.657 201.168 112.482 200.202L114.534 199.889C114.662 200.424 114.925 200.829 115.323 201.104C115.72 201.374 116.239 201.509 116.878 201.509C117.574 201.509 118.13 201.364 118.547 201.075C118.964 200.782 119.172 200.424 119.172 200.003C119.172 199.662 119.044 199.375 118.789 199.143C118.538 198.911 118.152 198.736 117.631 198.618L115.784 198.213C114.766 197.981 114.013 197.612 113.526 197.105C113.043 196.598 112.801 195.957 112.801 195.18C112.801 194.536 112.981 193.973 113.341 193.49C113.701 193.007 114.198 192.631 114.833 192.361C115.467 192.086 116.194 191.949 117.013 191.949C118.192 191.949 119.12 192.205 119.797 192.716C120.474 193.223 120.922 193.902 121.139 194.754ZM130.379 203H128.05L133.284 188.455H135.82L141.054 203H138.725L134.612 191.097H134.499L130.379 203ZM130.77 197.304H138.327V199.151H130.77V197.304ZM142.984 207.091V192.091H145.058V193.859H145.236C145.359 193.632 145.536 193.369 145.768 193.071C146 192.773 146.322 192.512 146.734 192.29C147.146 192.062 147.691 191.949 148.368 191.949C149.248 191.949 150.034 192.171 150.726 192.616C151.417 193.062 151.959 193.703 152.352 194.541C152.75 195.379 152.949 196.388 152.949 197.567C152.949 198.746 152.752 199.757 152.359 200.599C151.966 201.437 151.426 202.084 150.74 202.538C150.053 202.988 149.27 203.213 148.389 203.213C147.726 203.213 147.184 203.102 146.763 202.879C146.346 202.657 146.019 202.396 145.782 202.098C145.546 201.8 145.363 201.535 145.236 201.303H145.108V207.091H142.984ZM145.065 197.545C145.065 198.312 145.176 198.985 145.399 199.562C145.622 200.14 145.943 200.592 146.365 200.919C146.786 201.241 147.302 201.402 147.913 201.402C148.548 201.402 149.078 201.234 149.504 200.898C149.93 200.557 150.252 200.095 150.47 199.513C150.693 198.93 150.804 198.275 150.804 197.545C150.804 196.826 150.695 196.179 150.477 195.607C150.264 195.034 149.942 194.581 149.511 194.25C149.085 193.919 148.552 193.753 147.913 193.753C147.298 193.753 146.777 193.911 146.351 194.229C145.929 194.546 145.61 194.989 145.392 195.557C145.174 196.125 145.065 196.788 145.065 197.545ZM155.328 207.091V192.091H157.402V193.859H157.579C157.702 193.632 157.88 193.369 158.112 193.071C158.344 192.773 158.666 192.512 159.078 192.29C159.49 192.062 160.034 191.949 160.711 191.949C161.592 191.949 162.378 192.171 163.069 192.616C163.761 193.062 164.303 193.703 164.696 194.541C165.094 195.379 165.292 196.388 165.292 197.567C165.292 198.746 165.096 199.757 164.703 200.599C164.31 201.437 163.77 202.084 163.084 202.538C162.397 202.988 161.613 203.213 160.733 203.213C160.07 203.213 159.528 203.102 159.106 202.879C158.69 202.657 158.363 202.396 158.126 202.098C157.89 201.8 157.707 201.535 157.579 201.303H157.452V207.091H155.328ZM157.409 197.545C157.409 198.312 157.52 198.985 157.743 199.562C157.965 200.14 158.287 200.592 158.709 200.919C159.13 201.241 159.646 201.402 160.257 201.402C160.891 201.402 161.422 201.234 161.848 200.898C162.274 200.557 162.596 200.095 162.814 199.513C163.036 198.93 163.148 198.275 163.148 197.545C163.148 196.826 163.039 196.179 162.821 195.607C162.608 195.034 162.286 194.581 161.855 194.25C161.429 193.919 160.896 193.753 160.257 193.753C159.641 193.753 159.121 193.911 158.694 194.229C158.273 194.546 157.953 194.989 157.736 195.557C157.518 196.125 157.409 196.788 157.409 197.545ZM172.373 203.22C171.299 203.22 170.373 202.991 169.596 202.531C168.825 202.067 168.228 201.416 167.807 200.578C167.39 199.735 167.182 198.748 167.182 197.616C167.182 196.499 167.39 195.514 167.807 194.662C168.228 193.81 168.815 193.144 169.568 192.666C170.326 192.188 171.211 191.949 172.224 191.949C172.84 191.949 173.436 192.051 174.014 192.254C174.592 192.458 175.11 192.777 175.569 193.213C176.029 193.649 176.391 194.214 176.656 194.911C176.921 195.602 177.054 196.442 177.054 197.432V198.185H168.382V196.594H174.973C174.973 196.035 174.859 195.54 174.632 195.109C174.405 194.674 174.085 194.33 173.673 194.08C173.266 193.829 172.788 193.703 172.238 193.703C171.642 193.703 171.121 193.85 170.676 194.143C170.236 194.432 169.895 194.811 169.653 195.28C169.416 195.744 169.298 196.248 169.298 196.793V198.036C169.298 198.765 169.426 199.385 169.682 199.896C169.942 200.408 170.304 200.798 170.768 201.068C171.232 201.333 171.774 201.466 172.395 201.466C172.797 201.466 173.164 201.409 173.496 201.295C173.827 201.177 174.113 201.002 174.355 200.77C174.596 200.538 174.781 200.251 174.909 199.911L176.919 200.273C176.758 200.865 176.469 201.383 176.052 201.828C175.64 202.268 175.122 202.612 174.497 202.858C173.877 203.099 173.169 203.22 172.373 203.22ZM182.585 203.241C181.893 203.241 181.268 203.114 180.71 202.858C180.151 202.598 179.708 202.221 179.382 201.729C179.06 201.236 178.899 200.633 178.899 199.918C178.899 199.302 179.017 198.795 179.254 198.398C179.49 198 179.81 197.685 180.213 197.453C180.615 197.221 181.065 197.046 181.562 196.928C182.059 196.809 182.566 196.719 183.082 196.658C183.735 196.582 184.266 196.52 184.673 196.473C185.08 196.421 185.376 196.338 185.561 196.224C185.745 196.111 185.838 195.926 185.838 195.67V195.621C185.838 195 185.662 194.52 185.312 194.179C184.966 193.838 184.45 193.668 183.764 193.668C183.049 193.668 182.485 193.826 182.073 194.143C181.666 194.456 181.384 194.804 181.228 195.188L179.232 194.733C179.469 194.07 179.815 193.535 180.269 193.128C180.729 192.716 181.257 192.418 181.853 192.233C182.45 192.044 183.077 191.949 183.735 191.949C184.171 191.949 184.633 192.001 185.12 192.105C185.613 192.205 186.072 192.389 186.498 192.659C186.929 192.929 187.282 193.315 187.556 193.817C187.831 194.314 187.968 194.96 187.968 195.756V203H185.894V201.509H185.809C185.672 201.783 185.466 202.053 185.191 202.318C184.917 202.583 184.564 202.804 184.133 202.979C183.702 203.154 183.186 203.241 182.585 203.241ZM183.046 201.537C183.633 201.537 184.135 201.421 184.552 201.189C184.973 200.957 185.293 200.654 185.511 200.28C185.733 199.901 185.845 199.496 185.845 199.065V197.659C185.769 197.735 185.622 197.806 185.404 197.872C185.191 197.934 184.947 197.988 184.673 198.036C184.398 198.078 184.131 198.118 183.87 198.156C183.61 198.189 183.392 198.218 183.217 198.241C182.805 198.294 182.428 198.381 182.088 198.504C181.751 198.627 181.481 198.805 181.278 199.037C181.079 199.264 180.98 199.567 180.98 199.946C180.98 200.472 181.174 200.869 181.562 201.139C181.95 201.404 182.445 201.537 183.046 201.537ZM190.797 203V192.091H192.849V193.824H192.963C193.162 193.237 193.512 192.775 194.014 192.439C194.521 192.098 195.094 191.928 195.733 191.928C195.865 191.928 196.022 191.932 196.202 191.942C196.386 191.951 196.531 191.963 196.635 191.977V194.009C196.55 193.985 196.398 193.959 196.18 193.93C195.962 193.897 195.745 193.881 195.527 193.881C195.025 193.881 194.577 193.987 194.184 194.2C193.796 194.409 193.488 194.7 193.261 195.074C193.034 195.443 192.92 195.865 192.92 196.338V203H190.797ZM203.936 203V188.455H206.131V194.776H213.382V188.455H215.584V203H213.382V196.658H206.131V203H203.936ZM223.311 203.22C222.236 203.22 221.31 202.991 220.534 202.531C219.762 202.067 219.166 201.416 218.744 200.578C218.327 199.735 218.119 198.748 218.119 197.616C218.119 196.499 218.327 195.514 218.744 194.662C219.166 193.81 219.753 193.144 220.506 192.666C221.263 192.188 222.148 191.949 223.162 191.949C223.777 191.949 224.374 192.051 224.952 192.254C225.529 192.458 226.048 192.777 226.507 193.213C226.966 193.649 227.328 194.214 227.594 194.911C227.859 195.602 227.991 196.442 227.991 197.432V198.185H219.319V196.594H225.91C225.91 196.035 225.797 195.54 225.569 195.109C225.342 194.674 225.023 194.33 224.611 194.08C224.203 193.829 223.725 193.703 223.176 193.703C222.579 193.703 222.059 193.85 221.613 194.143C221.173 194.432 220.832 194.811 220.591 195.28C220.354 195.744 220.236 196.248 220.236 196.793V198.036C220.236 198.765 220.363 199.385 220.619 199.896C220.88 200.408 221.242 200.798 221.706 201.068C222.17 201.333 222.712 201.466 223.332 201.466C223.735 201.466 224.102 201.409 224.433 201.295C224.765 201.177 225.051 201.002 225.292 200.77C225.534 200.538 225.719 200.251 225.846 199.911L227.856 200.273C227.695 200.865 227.407 201.383 226.99 201.828C226.578 202.268 226.059 202.612 225.434 202.858C224.814 203.099 224.106 203.22 223.311 203.22ZM230.347 203V192.091H232.4V193.824H232.514C232.713 193.237 233.063 192.775 233.565 192.439C234.071 192.098 234.644 191.928 235.284 191.928C235.416 191.928 235.572 191.932 235.752 191.942C235.937 191.951 236.081 191.963 236.186 191.977V194.009C236.1 193.985 235.949 193.959 235.731 193.93C235.513 193.897 235.295 193.881 235.078 193.881C234.576 193.881 234.128 193.987 233.735 194.2C233.347 194.409 233.039 194.7 232.812 195.074C232.585 195.443 232.471 195.865 232.471 196.338V203H230.347ZM242.334 203.22C241.26 203.22 240.334 202.991 239.557 202.531C238.786 202.067 238.189 201.416 237.768 200.578C237.351 199.735 237.143 198.748 237.143 197.616C237.143 196.499 237.351 195.514 237.768 194.662C238.189 193.81 238.776 193.144 239.529 192.666C240.287 192.188 241.172 191.949 242.185 191.949C242.801 191.949 243.397 192.051 243.975 192.254C244.553 192.458 245.071 192.777 245.53 193.213C245.99 193.649 246.352 194.214 246.617 194.911C246.882 195.602 247.015 196.442 247.015 197.432V198.185H238.343V196.594H244.934C244.934 196.035 244.82 195.54 244.593 195.109C244.366 194.674 244.046 194.33 243.634 194.08C243.227 193.829 242.749 193.703 242.199 193.703C241.603 193.703 241.082 193.85 240.637 194.143C240.197 194.432 239.856 194.811 239.614 195.28C239.377 195.744 239.259 196.248 239.259 196.793V198.036C239.259 198.765 239.387 199.385 239.643 199.896C239.903 200.408 240.265 200.798 240.729 201.068C241.193 201.333 241.735 201.466 242.356 201.466C242.758 201.466 243.125 201.409 243.456 201.295C243.788 201.177 244.074 201.002 244.316 200.77C244.557 200.538 244.742 200.251 244.87 199.911L246.88 200.273C246.719 200.865 246.43 201.383 246.013 201.828C245.601 202.268 245.083 202.612 244.458 202.858C243.838 203.099 243.13 203.22 242.334 203.22ZM252.048 188.455L251.864 198.817H249.896L249.712 188.455H252.048ZM250.884 203.135C250.491 203.135 250.155 202.998 249.875 202.723C249.596 202.444 249.459 202.107 249.463 201.714C249.459 201.326 249.596 200.995 249.875 200.72C250.155 200.441 250.491 200.301 250.884 200.301C251.267 200.301 251.599 200.441 251.878 200.72C252.157 200.995 252.299 201.326 252.304 201.714C252.299 201.975 252.231 202.214 252.098 202.432C251.97 202.645 251.8 202.815 251.587 202.943C251.374 203.071 251.139 203.135 250.884 203.135Z" fill="#C6C6C6"/>
<g clip-path="url(#clip0_438_1564)">
<path d="M134.919 129.387L42.9773 152.978C39.8586 153.775 36.5501 153.306 33.7778 151.675C31.0054 150.044 28.9956 147.384 28.1891 144.278L0.385316 36.6841C-0.414007 33.5765 0.0563934 30.2798 1.69332 27.5172C3.33024 24.7547 6.00002 22.752 9.11694 21.9485L94.6532 0.000366211L116.545 9.76604L143.65 114.651C144.45 117.758 143.979 121.055 142.342 123.818C140.705 126.58 138.036 128.583 134.919 129.387Z" fill="#F2F2F2"/>
<path d="M9.98698 25.3218C7.76735 25.894 5.86612 27.3202 4.7004 29.2874C3.53468 31.2546 3.19968 33.6023 3.76887 35.8153L31.5744 143.409C32.1487 145.621 33.5799 147.515 35.5541 148.677C37.5284 149.839 39.8844 150.172 42.1053 149.605L134.047 126.014C136.266 125.442 138.167 124.016 139.333 122.048C140.499 120.081 140.834 117.734 140.265 115.52L113.579 12.2601L94.3392 3.67743L9.98698 25.3218Z" fill="white"/>
<path d="M116.311 10.322L102.082 13.9732C101.043 14.2397 99.9408 14.0842 99.0171 13.5407C98.0935 12.9972 97.4243 12.1104 97.1568 11.0754L94.4505 0.603256C94.4388 0.557433 94.4402 0.509232 94.4546 0.464169C94.469 0.419105 94.4959 0.378997 94.5321 0.34844C94.5684 0.317882 94.6125 0.298111 94.6595 0.291381C94.7065 0.284652 94.7544 0.291237 94.7978 0.310388L116.351 9.84794C116.399 9.86919 116.439 9.90479 116.466 9.94978C116.492 9.99477 116.504 10.0469 116.5 10.099C116.496 10.1511 116.475 10.2006 116.441 10.2406C116.407 10.2805 116.362 10.309 116.311 10.322Z" fill="#F2F2F2"/>
<path d="M108.825 102.204L66.9659 112.946C66.4477 113.075 65.8989 112.996 65.4396 112.724C64.9802 112.452 64.6476 112.01 64.5143 111.494C64.3811 110.978 64.4581 110.431 64.7285 109.972C64.9989 109.512 65.4407 109.179 65.9574 109.043L107.817 98.301C108.075 98.2333 108.343 98.217 108.607 98.2532C108.871 98.2893 109.126 98.3771 109.356 98.5115C109.585 98.6458 109.786 98.8242 109.947 99.0362C110.107 99.2483 110.224 99.4898 110.291 99.747C110.357 100.004 110.372 100.272 110.334 100.535C110.296 100.798 110.207 101.051 110.071 101.279C109.935 101.507 109.754 101.707 109.541 101.865C109.327 102.024 109.084 102.139 108.825 102.204Z" fill="#CCCCCC"/>
<path d="M118.605 106.717L68.6677 119.531C68.41 119.598 68.1413 119.615 67.8773 119.579C67.6132 119.542 67.359 119.455 67.1291 119.32C66.8992 119.186 66.6982 119.007 66.5378 118.795C66.3773 118.583 66.2605 118.342 66.194 118.085C66.1275 117.827 66.1128 117.56 66.1505 117.297C66.1883 117.034 66.2778 116.781 66.4139 116.553C66.5501 116.324 66.7302 116.125 66.9439 115.966C67.1576 115.808 67.4007 115.693 67.6592 115.628L117.597 102.814C118.115 102.684 118.664 102.764 119.123 103.036C119.583 103.308 119.915 103.75 120.048 104.266C120.182 104.781 120.105 105.329 119.834 105.788C119.564 106.247 119.122 106.581 118.605 106.717Z" fill="#CCCCCC"/>
<path d="M49.8812 125.881C53.8287 125.881 57.0288 122.693 57.0288 118.759C57.0288 114.826 53.8287 111.637 49.8812 111.637C45.9337 111.637 42.7336 114.826 42.7336 118.759C42.7336 122.693 45.9337 125.881 49.8812 125.881Z" fill="#E9E6E6"/>
<path d="M104.374 83.565L48.7804 97.8248C47.1737 98.235 45.4693 97.9934 44.0412 97.1529C42.613 96.3125 41.5778 94.9419 41.1626 93.3419L29.5126 48.2437C29.1013 46.643 29.344 44.945 30.1874 43.5223C31.0308 42.0995 32.406 41.0682 34.0115 40.6544L89.6051 26.3947C91.2118 25.9844 92.9161 26.226 94.3443 27.0665C95.7724 27.9069 96.8076 29.2775 97.2228 30.8776L108.873 75.9757C109.284 77.5765 109.042 79.2744 108.198 80.6971C107.355 82.1199 105.98 83.1512 104.374 83.565Z" fill="white"/>
<path d="M104.374 83.565L48.7804 97.8248C47.1737 98.235 45.4693 97.9934 44.0412 97.1529C42.613 96.3125 41.5778 94.9419 41.1626 93.3419L29.5126 48.2437C29.1013 46.643 29.344 44.945 30.1874 43.5223C31.0308 42.0995 32.406 41.0682 34.0115 40.6544L89.6051 26.3947C91.2118 25.9844 92.9161 26.226 94.3443 27.0665C95.7724 27.9069 96.8076 29.2775 97.2228 30.8776L108.873 75.9757C109.284 77.5765 109.042 79.2744 108.198 80.6971C107.355 82.1199 105.98 83.1512 104.374 83.565ZM34.1948 41.3633C32.7782 41.7288 31.5649 42.6391 30.8211 43.8947C30.0772 45.1503 29.8635 46.6487 30.2268 48.0611L41.8772 93.1592C42.2439 94.5707 43.1575 95.7797 44.4176 96.5209C45.6777 97.2621 47.1814 97.4751 48.5988 97.1131L104.191 82.8547C105.608 82.4892 106.821 81.5789 107.565 80.3233C108.309 79.0677 108.523 77.5693 108.159 76.1569L96.51 31.0588C96.1433 29.6473 95.2297 28.4383 93.9696 27.6971C92.7095 26.9559 91.2058 26.7429 89.7884 27.1049L34.1948 41.3633Z" fill="#E6E6E6"/>
<path d="M86.7848 41.5572L58.7282 48.7539C58.4829 48.8221 58.2208 48.7951 57.9948 48.6781C57.7689 48.5612 57.5958 48.3632 57.5107 48.1241C57.4711 47.9991 57.4575 47.8674 57.4707 47.737C57.4839 47.6066 57.5236 47.4802 57.5874 47.3656C57.6512 47.251 57.7378 47.1506 57.8419 47.0704C57.9459 46.9903 58.0653 46.9321 58.1927 46.8994L86.7532 39.5736C87.9071 40.1562 87.6033 41.3476 86.7852 41.5575L86.7848 41.5572Z" fill="#F2F2F2"/>
<path d="M88.0507 46.4596L59.994 53.6563C59.7488 53.7245 59.4867 53.6975 59.2607 53.5805C59.0347 53.4636 58.8617 53.2656 58.7766 53.0265C58.737 52.9015 58.7234 52.7698 58.7366 52.6394C58.7497 52.509 58.7894 52.3826 58.8533 52.268C58.9171 52.1534 59.0037 52.053 59.1077 51.9728C59.2118 51.8927 59.3311 51.8345 59.4585 51.8018L88.0191 44.476C89.1729 45.0586 88.8692 46.25 88.051 46.4599L88.0507 46.4596Z" fill="#F2F2F2"/>
<path d="M54.6501 58.0056L46.0874 60.2012C45.9489 60.2368 45.8048 60.2448 45.6632 60.2248C45.5216 60.2048 45.3853 60.1573 45.2622 60.0848C45.1391 60.0123 45.0315 59.9164 44.9455 59.8025C44.8596 59.6886 44.7971 59.5589 44.7615 59.4209L42.1602 49.3543C42.1245 49.2163 42.1164 49.0727 42.1365 48.9316C42.1565 48.7905 42.2043 48.6548 42.277 48.5321C42.3497 48.4094 42.446 48.3021 42.5603 48.2165C42.6746 48.1309 42.8047 48.0686 42.9432 48.0331L51.5059 45.8368C51.7856 45.7655 52.0822 45.8075 52.3308 45.9538C52.5793 46.1001 52.7595 46.3386 52.8319 46.6171L55.4332 56.6861C55.4689 56.8241 55.4769 56.9677 55.4569 57.1088C55.4368 57.2499 55.3891 57.3857 55.3164 57.5084C55.2437 57.6311 55.1474 57.7383 55.0331 57.8239C54.9187 57.9095 54.7886 57.9718 54.6501 58.0073V58.0056Z" fill="#E9E6E6"/>
<path d="M90.5637 56.5231L47.7431 67.5064C47.4978 67.5746 47.2357 67.5475 47.0097 67.4306C46.7838 67.3137 46.6107 67.1157 46.5256 66.8766C46.486 66.7516 46.4724 66.6199 46.4856 66.4895C46.4988 66.3591 46.5385 66.2327 46.6023 66.1181C46.6661 66.0035 46.7527 65.9031 46.8568 65.8229C46.9608 65.7428 47.0802 65.6846 47.2076 65.6519L90.5321 54.5391C91.6859 55.1217 91.3819 56.3131 90.5637 56.5231Z" fill="#F2F2F2"/>
<path d="M91.8317 61.4279L49.0104 72.4116C48.7651 72.4798 48.5031 72.4527 48.2771 72.3358C48.0511 72.2189 47.8781 72.0209 47.793 71.7818C47.7534 71.6568 47.7397 71.5251 47.7529 71.3947C47.7661 71.2643 47.8058 71.1379 47.8696 71.0233C47.9334 70.9087 48.02 70.8083 48.1241 70.7281C48.2281 70.648 48.3475 70.5898 48.4749 70.5571L91.7994 59.4443C92.9533 60.0269 92.6495 61.2183 91.8314 61.4283L91.8317 61.4279Z" fill="#F2F2F2"/>
<path d="M93.0974 66.3307L50.2767 77.3141C50.0315 77.3823 49.7694 77.3552 49.5434 77.2383C49.3174 77.1214 49.1444 76.9234 49.0593 76.6842C49.0197 76.5593 49.0061 76.4275 49.0193 76.2971C49.0325 76.1667 49.0722 76.0404 49.136 75.9258C49.1998 75.8112 49.2864 75.7107 49.3904 75.6306C49.4945 75.5504 49.6139 75.4923 49.7412 75.4596L93.0654 64.3468C94.2193 64.9294 93.9155 66.1208 93.0974 66.3307Z" fill="#F2F2F2"/>
<path d="M94.3648 71.2356L51.5438 82.2189C51.2986 82.2871 51.0365 82.2601 50.8105 82.1431C50.5845 82.0262 50.4115 81.8282 50.3264 81.5891C50.2868 81.4641 50.2732 81.3324 50.2864 81.202C50.2995 81.0716 50.3393 80.9452 50.4031 80.8306C50.4669 80.716 50.5535 80.6156 50.6575 80.5354C50.7616 80.4553 50.881 80.3971 51.0083 80.3644L94.3328 69.2516C95.4864 69.8342 95.183 71.0256 94.3648 71.2356Z" fill="#F2F2F2"/>
<path d="M95.6311 76.138L52.8104 87.1214C52.5652 87.1896 52.3031 87.1625 52.0771 87.0456C51.8511 86.9287 51.6781 86.7307 51.593 86.4915C51.5534 86.3666 51.5398 86.2349 51.553 86.1045C51.5662 85.974 51.6059 85.8477 51.6697 85.7331C51.7335 85.6185 51.8201 85.518 51.9241 85.4379C52.0282 85.3577 52.1476 85.2996 52.2749 85.2669L95.5994 74.1541C96.753 74.7367 96.4492 75.9281 95.6311 76.138Z" fill="#F2F2F2"/>
<path d="M50.4087 121.256C50.2531 121.296 50.0886 121.285 49.94 121.224L49.9308 121.22L47.9837 120.397C47.8935 120.359 47.8117 120.303 47.743 120.234C47.6744 120.164 47.6201 120.081 47.5835 119.991C47.5468 119.9 47.5284 119.803 47.5293 119.706C47.5302 119.608 47.5505 119.511 47.5888 119.421C47.6272 119.331 47.683 119.25 47.7529 119.182C47.8229 119.113 47.9057 119.059 47.9967 119.023C48.0876 118.986 48.1848 118.968 48.2829 118.969C48.3809 118.97 48.4778 118.99 48.568 119.028L49.8297 119.563L51.4829 115.687C51.5603 115.506 51.7069 115.362 51.8905 115.288C52.074 115.215 52.2794 115.217 52.4615 115.294L52.4517 115.319L52.4619 115.293C52.644 115.371 52.7878 115.517 52.8618 115.7C52.9358 115.883 52.9339 116.087 52.8566 116.269L50.9116 120.826C50.8665 120.931 50.7976 121.024 50.7105 121.098C50.6234 121.173 50.5202 121.226 50.4091 121.254L50.4087 121.256Z" fill="white"/>
<path d="M225.149 157.694L131.972 139.661C128.812 139.046 126.027 137.206 124.228 134.546C122.428 131.887 121.761 128.623 122.373 125.473L143.668 16.3924C144.286 13.2434 146.132 10.4669 148.801 8.67212C151.471 6.87735 154.745 6.21086 157.905 6.81887L244.591 23.5963L260.145 41.7856L239.387 148.12C238.768 151.269 236.922 154.046 234.253 155.841C231.584 157.636 228.31 158.302 225.149 157.694Z" fill="#E6E6E6"/>
<path d="M157.237 10.2391C154.987 9.80615 152.655 10.2808 150.755 11.5588C148.854 12.8369 147.539 14.8141 147.099 17.0565L125.804 126.137C125.369 128.38 125.844 130.704 127.125 132.598C128.407 134.492 130.39 135.801 132.64 136.239L225.817 154.273C228.067 154.706 230.399 154.231 232.3 152.953C234.2 151.675 235.515 149.698 235.955 147.456L256.392 42.7694L242.724 26.7842L157.237 10.2391Z" fill="white"/>
<path d="M226.099 56.4932L183.669 48.2776C183.142 48.1757 182.678 47.8694 182.378 47.426C182.078 46.9827 181.968 46.4387 182.07 45.9137C182.172 45.3887 182.48 44.9256 182.925 44.6265C183.369 44.3273 183.915 44.2165 184.441 44.3184L226.873 52.5342C227.399 52.6362 227.863 52.9425 228.163 53.3858C228.463 53.8291 228.574 54.3732 228.471 54.8982C228.369 55.4232 228.062 55.8862 227.617 56.1854C227.172 56.4846 226.626 56.5954 226.1 56.4934L226.099 56.4932Z" fill="#E9E6E6"/>
<path d="M232.985 64.7553L182.367 54.9538C181.84 54.8519 181.376 54.5456 181.076 54.1022C180.776 53.6589 180.665 53.1148 180.768 52.5898C180.87 52.0647 181.178 51.6017 181.622 51.3025C182.067 51.0033 182.613 50.8925 183.139 50.9945L233.758 60.7959C234.284 60.8979 234.749 61.2042 235.048 61.6476C235.348 62.0909 235.459 62.6349 235.357 63.16C235.254 63.685 234.947 64.1481 234.502 64.4472C234.057 64.7464 233.512 64.8572 232.985 64.7553Z" fill="#E9E6E6"/>
<path d="M221.036 82.4507L178.607 74.2353C178.081 74.1333 177.535 74.2441 177.09 74.5433C176.646 74.8424 176.338 75.3054 176.236 75.8304C176.133 76.3554 176.244 76.8993 176.544 77.3426C176.844 77.7859 177.308 78.0922 177.834 78.1941L220.264 86.4095C220.787 86.5037 221.326 86.3886 221.765 86.0891C222.204 85.7896 222.507 85.3299 222.609 84.8094C222.71 84.2889 222.602 83.7495 222.308 83.3081C222.014 82.8666 221.557 82.5586 221.036 82.4507Z" fill="#CCCCCC"/>
<path d="M227.922 90.7134L177.304 80.9121C177.042 80.8577 176.772 80.8558 176.509 80.9066C176.246 80.9573 175.996 81.0596 175.773 81.2075C175.55 81.3554 175.358 81.546 175.21 81.7683C175.061 81.9905 174.958 82.24 174.907 82.5021C174.856 82.7643 174.857 83.034 174.912 83.2955C174.966 83.557 175.071 83.8052 175.223 84.0256C175.374 84.2459 175.567 84.4342 175.792 84.5793C176.017 84.7245 176.268 84.8236 176.532 84.8711L227.15 94.6723C227.412 94.7267 227.682 94.7286 227.945 94.6778C228.208 94.6271 228.458 94.5249 228.681 94.3769C228.905 94.229 229.096 94.0384 229.244 93.8161C229.393 93.5939 229.496 93.3444 229.547 93.0823C229.598 92.8201 229.597 92.5504 229.543 92.2889C229.488 92.0274 229.383 91.7792 229.231 91.5589C229.08 91.3385 228.887 91.1502 228.662 91.0051C228.437 90.8599 228.186 90.7608 227.922 90.7134Z" fill="#CCCCCC"/>
<path d="M214.427 116.328L171.997 108.113C171.47 108.011 171.006 107.705 170.706 107.261C170.406 106.818 170.295 106.274 170.398 105.749C170.5 105.224 170.808 104.761 171.252 104.462C171.697 104.163 172.243 104.052 172.769 104.154L215.2 112.369C215.727 112.471 216.191 112.778 216.491 113.221C216.791 113.664 216.902 114.208 216.799 114.733C216.697 115.258 216.389 115.722 215.945 116.021C215.5 116.32 214.954 116.431 214.428 116.329L214.427 116.328Z" fill="#CCCCCC"/>
<path d="M221.313 124.59L170.694 114.789C170.168 114.687 169.704 114.38 169.404 113.937C169.104 113.494 168.993 112.95 169.096 112.425C169.198 111.9 169.505 111.437 169.95 111.137C170.395 110.838 170.941 110.727 171.467 110.829L222.086 120.631C222.612 120.733 223.076 121.039 223.376 121.482C223.676 121.926 223.787 122.47 223.685 122.995C223.582 123.52 223.275 123.983 222.83 124.282C222.385 124.581 221.84 124.692 221.313 124.59Z" fill="#CCCCCC"/>
<path d="M164.369 53.2051C168.243 53.9549 171.995 51.432 172.749 47.5701C173.503 43.7082 170.974 39.9696 167.099 39.2198C163.225 38.47 159.473 40.9928 158.719 44.8547C157.965 48.7167 160.495 52.4552 164.369 53.2051Z" fill="#E9E6E6"/>
<path d="M164.519 48.7452C164.361 48.7149 164.217 48.6343 164.109 48.5155L164.102 48.5081L162.699 46.9317C162.571 46.7836 162.506 46.591 162.52 46.3958C162.533 46.2006 162.623 46.0184 162.77 45.8887C162.917 45.759 163.109 45.6922 163.305 45.7027C163.501 45.7133 163.685 45.8004 163.817 45.9451L164.726 46.9682L167.889 44.1749C167.963 44.1102 168.048 44.0604 168.141 44.0286C168.234 43.9967 168.332 43.9834 168.429 43.9893C168.527 43.9952 168.623 44.0203 168.711 44.0631C168.799 44.1059 168.878 44.1655 168.943 44.2387L168.923 44.2566L168.944 44.2381C169.075 44.3859 169.141 44.5794 169.129 44.7763C169.117 44.9732 169.027 45.1572 168.879 45.2881L165.157 48.5722C165.071 48.6478 164.969 48.7026 164.858 48.7325C164.747 48.7623 164.631 48.7663 164.519 48.7442L164.519 48.7452Z" fill="white"/>
<path d="M167.634 77.6264C167.455 78.5448 167.097 79.4192 166.579 80.1996C166.061 80.98 165.394 81.6512 164.616 82.1747C163.837 82.6982 162.964 83.0638 162.044 83.2507C161.124 83.4377 160.176 83.4421 159.255 83.264C159.195 83.2535 159.135 83.2394 159.076 83.2218C157.703 82.9196 156.451 82.2206 155.476 81.2124C154.5 80.2042 153.845 78.9314 153.591 77.5535C153.338 76.1755 153.498 74.7535 154.052 73.4655C154.605 72.1774 155.527 71.0804 156.703 70.3119C157.878 69.5433 159.255 69.1373 160.661 69.1446C162.066 69.1519 163.438 69.5722 164.605 70.3529C165.772 71.1336 166.681 72.2401 167.22 73.5338C167.759 74.8275 167.903 76.2511 167.634 77.6264Z" fill="#E9E6E6"/>
<path d="M152.697 113.04C156.571 113.79 160.323 111.267 161.077 107.405C161.831 103.543 159.301 99.8045 155.427 99.0547C151.553 98.3049 147.801 100.828 147.047 104.69C146.293 108.552 148.823 112.29 152.697 113.04Z" fill="#E9E6E6"/>
<path d="M259.695 42.2066L245.273 39.4154C244.221 39.2117 243.292 38.5994 242.693 37.7132C242.093 36.8271 241.871 35.7396 242.076 34.6902L244.149 24.0729C244.158 24.0264 244.18 23.9834 244.213 23.9489C244.245 23.9143 244.287 23.8896 244.333 23.8775C244.379 23.8654 244.427 23.8664 244.472 23.8805C244.518 23.8945 244.558 23.921 244.589 23.957L259.935 41.7942C259.969 41.8339 259.99 41.8832 259.995 41.9353C259.999 41.9874 259.988 42.0396 259.961 42.0848C259.935 42.13 259.895 42.1659 259.847 42.1875C259.8 42.2092 259.746 42.2155 259.695 42.2055L259.695 42.2066Z" fill="#CCCCCC"/>
<path d="M174.202 148.341C173.758 149.066 173.043 149.586 172.214 149.786C171.385 149.987 170.511 149.85 169.783 149.408L132.261 126.603C131.533 126.16 131.011 125.448 130.811 124.622C130.61 123.796 130.747 122.924 131.191 122.199C131.635 121.473 132.35 120.953 133.179 120.753C134.008 120.553 134.883 120.689 135.611 121.131L173.131 143.936C173.86 144.379 174.381 145.092 174.582 145.918C174.783 146.744 174.647 147.615 174.202 148.341Z" fill="#C6C6C6"/>
<path d="M136.681 125.537C134.032 129.866 130.154 133.314 125.537 135.447C120.921 137.579 115.773 138.299 110.746 137.517C105.719 136.734 101.037 134.484 97.2938 131.05C93.5502 127.616 90.9125 123.153 89.7142 118.225C88.516 113.298 88.8111 108.127 90.5622 103.366C92.3132 98.606 95.4416 94.4699 99.5518 91.481C103.662 88.4922 108.569 86.785 113.653 86.5752C118.737 86.3655 123.769 87.6626 128.113 90.3026C130.998 92.0555 133.507 94.3574 135.499 97.0768C137.491 99.7962 138.925 102.88 139.721 106.152C140.516 109.424 140.657 112.82 140.136 116.146C139.614 119.472 138.441 122.663 136.681 125.537ZM98.2454 102.175C96.2583 105.421 95.2819 109.182 95.4397 112.981C95.5976 116.781 96.8826 120.448 99.1322 123.52C101.382 126.592 104.495 128.93 108.078 130.238C111.661 131.547 115.553 131.767 119.262 130.872C122.971 129.976 126.33 128.005 128.915 125.207C131.499 122.409 133.193 118.911 133.782 115.154C134.371 111.397 133.829 107.55 132.224 104.1C130.619 100.65 128.023 97.7515 124.765 95.7715C120.396 93.1163 115.148 92.2993 110.175 93.5001C105.201 94.701 100.91 97.8213 98.2454 102.175Z" fill="#C6C6C6"/>
<path d="M107.915 130.78C118.368 134.367 129.76 128.83 133.359 118.414C136.959 107.998 131.402 96.6466 120.949 93.06C110.496 89.4735 99.1041 95.0099 95.5048 105.426C91.9055 115.842 97.4616 127.193 107.915 130.78Z" fill="#E9E6E6"/>
</g>
<defs>
<clipPath id="clip0_438_1564">
<rect width="263" height="160" fill="white"/>
</clipPath>
</defs>
</svg>
