<svg width="21" height="21" viewBox="0 0 21 21" fill="none" xmlns="http://www.w3.org/2000/svg">
<g clip-path="url(#clip0_593_927)">
<path d="M5.25 2.625C5.25 1.17715 6.42715 0 7.875 0H14.4375V5.25C14.4375 5.97598 15.024 6.5625 15.75 6.5625H21V18.375C21 19.8229 19.8229 21 18.375 21H7.875C6.42715 21 5.25 19.8229 5.25 18.375V13.7812H12.3908L10.7912 15.3809C10.4057 15.7664 10.4057 16.3898 10.7912 16.7713C11.1768 17.1527 11.8002 17.1568 12.1816 16.7713L15.4629 13.49C15.8484 13.1045 15.8484 12.4811 15.4629 12.0996L12.1816 8.81836C11.7961 8.43281 11.1727 8.43281 10.7912 8.81836C10.4098 9.20391 10.4057 9.82734 10.7912 10.2088L12.3908 11.8084L5.25 11.8125V2.625ZM5.25 11.8125V13.7812H0.984375C0.438867 13.7812 0 13.3424 0 12.7969C0 12.2514 0.438867 11.8125 0.984375 11.8125H5.25ZM21 5.25H15.75V0L21 5.25Z" fill="#767676"/>
</g>
<defs>
<clipPath id="clip0_593_927">
<rect width="21" height="21" fill="white"/>
</clipPath>
</defs>
</svg>
