<svg width="239" height="217" viewBox="0 0 239 217" fill="none" xmlns="http://www.w3.org/2000/svg">
<path d="M19.207 209.159V207.384L25.4925 197.455H26.8917V200.068H26.0039L21.5082 207.185V207.298H30.1232V209.159H19.207ZM26.1033 212V208.619L26.1175 207.81V197.455H28.1985V212H26.1033ZM37.6623 212.241C36.5401 212.237 35.5813 211.941 34.7859 211.354C33.9904 210.767 33.382 209.912 32.9606 208.79C32.5392 207.668 32.3285 206.316 32.3285 204.734C32.3285 203.158 32.5392 201.811 32.9606 200.693C33.3867 199.576 33.9975 198.723 34.793 198.136C35.5932 197.549 36.5496 197.256 37.6623 197.256C38.775 197.256 39.729 197.552 40.5245 198.143C41.32 198.731 41.9284 199.583 42.3498 200.7C42.7759 201.813 42.989 203.158 42.989 204.734C42.989 206.321 42.7783 207.675 42.3569 208.797C41.9355 209.914 41.3271 210.769 40.5316 211.361C39.7362 211.948 38.7797 212.241 37.6623 212.241ZM37.6623 210.345C38.6471 210.345 39.4165 209.865 39.9705 208.903C40.5292 207.942 40.8086 206.553 40.8086 204.734C40.8086 203.527 40.6808 202.507 40.4251 201.673C40.1741 200.835 39.8119 200.201 39.3384 199.77C38.8697 199.334 38.311 199.116 37.6623 199.116C36.6822 199.116 35.9128 199.599 35.354 200.565C34.7953 201.531 34.5136 202.921 34.5089 204.734C34.5089 205.946 34.6344 206.972 34.8853 207.81C35.141 208.643 35.5032 209.275 35.9719 209.706C36.4407 210.132 37.0041 210.345 37.6623 210.345ZM45.2031 209.159V207.384L51.4886 197.455H52.8878V200.068H52L47.5043 207.185V207.298H56.1193V209.159H45.2031ZM52.0994 212V208.619L52.1136 207.81V197.455H54.1946V212H52.0994ZM64.0863 212V197.455H69.271C70.4026 197.455 71.3401 197.661 72.0835 198.072C72.8268 198.484 73.3832 199.048 73.7525 199.763C74.1218 200.473 74.3065 201.273 74.3065 202.163C74.3065 203.058 74.1194 203.863 73.7454 204.578C73.3761 205.288 72.8174 205.852 72.0692 206.268C71.3259 206.68 70.3907 206.886 69.2638 206.886H65.6985V205.026H69.065C69.7799 205.026 70.36 204.902 70.805 204.656C71.2501 204.405 71.5768 204.064 71.7852 203.634C71.9935 203.203 72.0977 202.713 72.0977 202.163C72.0977 201.614 71.9935 201.126 71.7852 200.7C71.5768 200.274 71.2478 199.94 70.7979 199.699C70.3529 199.457 69.7657 199.337 69.0366 199.337H66.2809V212H64.0863ZM79.7859 212.241C79.0946 212.241 78.4696 212.114 77.9109 211.858C77.3522 211.598 76.9094 211.221 76.5827 210.729C76.2608 210.236 76.0998 209.633 76.0998 208.918C76.0998 208.302 76.2182 207.795 76.4549 207.398C76.6916 207 77.0112 206.685 77.4137 206.453C77.8162 206.221 78.266 206.046 78.7631 205.928C79.2603 205.809 79.7669 205.719 80.283 205.658C80.9364 205.582 81.4667 205.52 81.8739 205.473C82.2811 205.421 82.5771 205.338 82.7617 205.224C82.9464 205.111 83.0387 204.926 83.0387 204.67V204.621C83.0387 204 82.8635 203.52 82.5131 203.179C82.1675 202.838 81.6514 202.668 80.9648 202.668C80.2499 202.668 79.6864 202.826 79.2745 203.143C78.8673 203.456 78.5856 203.804 78.4293 204.188L76.4336 203.733C76.6703 203.07 77.016 202.535 77.4705 202.128C77.9298 201.716 78.4577 201.418 79.0543 201.233C79.6509 201.044 80.2783 200.949 80.9364 200.949C81.372 200.949 81.8337 201.001 82.3214 201.105C82.8138 201.205 83.2731 201.389 83.6992 201.659C84.1301 201.929 84.4828 202.315 84.7575 202.817C85.0321 203.314 85.1694 203.96 85.1694 204.756V212H83.0955V210.509H83.0103C82.873 210.783 82.667 211.053 82.3924 211.318C82.1178 211.583 81.765 211.804 81.3342 211.979C80.9033 212.154 80.3872 212.241 79.7859 212.241ZM80.2475 210.537C80.8346 210.537 81.3365 210.421 81.7532 210.189C82.1746 209.957 82.4942 209.654 82.712 209.28C82.9345 208.901 83.0458 208.496 83.0458 208.065V206.659C82.9701 206.735 82.8233 206.806 82.6055 206.872C82.3924 206.934 82.1486 206.988 81.8739 207.036C81.5993 207.078 81.3318 207.118 81.0714 207.156C80.811 207.189 80.5932 207.218 80.418 207.241C80.006 207.294 79.6296 207.381 79.2887 207.504C78.9525 207.627 78.6826 207.805 78.479 208.037C78.2802 208.264 78.1808 208.567 78.1808 208.946C78.1808 209.472 78.3749 209.869 78.7631 210.139C79.1514 210.404 79.6462 210.537 80.2475 210.537ZM92.5717 216.318C91.7053 216.318 90.9595 216.205 90.3345 215.977C89.7143 215.75 89.2076 215.449 88.8146 215.075C88.4216 214.701 88.1281 214.292 87.9339 213.847L89.7592 213.094C89.8871 213.302 90.0575 213.522 90.2706 213.754C90.4884 213.991 90.782 214.192 91.1513 214.358C91.5253 214.524 92.0059 214.607 92.593 214.607C93.398 214.607 94.0632 214.41 94.5888 214.017C95.1143 213.629 95.3771 213.009 95.3771 212.156V210.011H95.2422C95.1143 210.243 94.9297 210.501 94.6882 210.786C94.4515 211.07 94.1248 211.316 93.7081 211.524C93.2914 211.732 92.7493 211.837 92.0817 211.837C91.2199 211.837 90.4434 211.635 89.7521 211.233C89.0656 210.826 88.5211 210.227 88.1186 209.436C87.7209 208.641 87.522 207.663 87.522 206.503C87.522 205.343 87.7185 204.348 88.1115 203.52C88.5092 202.691 89.0537 202.057 89.745 201.616C90.4363 201.171 91.2199 200.949 92.0959 200.949C92.773 200.949 93.3198 201.062 93.7365 201.29C94.1532 201.512 94.4775 201.773 94.7095 202.071C94.9463 202.369 95.1286 202.632 95.2564 202.859H95.4126V201.091H97.4936V212.241C97.4936 213.179 97.2758 213.948 96.8402 214.55C96.4046 215.151 95.8151 215.596 95.0717 215.885C94.3331 216.174 93.4998 216.318 92.5717 216.318ZM92.5504 210.075C93.1612 210.075 93.6773 209.933 94.0987 209.649C94.5249 209.36 94.8468 208.948 95.0646 208.413C95.2872 207.874 95.3984 207.227 95.3984 206.474C95.3984 205.741 95.2895 205.094 95.0717 204.536C94.8539 203.977 94.5343 203.541 94.1129 203.229C93.6915 202.911 93.1707 202.753 92.5504 202.753C91.9112 202.753 91.3786 202.919 90.9524 203.25C90.5263 203.577 90.2043 204.022 89.9865 204.585C89.7734 205.149 89.6669 205.778 89.6669 206.474C89.6669 207.189 89.7758 207.817 89.9936 208.357C90.2114 208.896 90.5334 209.318 90.9595 209.621C91.3904 209.924 91.9207 210.075 92.5504 210.075ZM105.043 212.22C103.969 212.22 103.043 211.991 102.266 211.531C101.495 211.067 100.898 210.416 100.477 209.578C100.06 208.735 99.8516 207.748 99.8516 206.616C99.8516 205.499 100.06 204.514 100.477 203.662C100.898 202.81 101.485 202.144 102.238 201.666C102.996 201.188 103.881 200.949 104.894 200.949C105.51 200.949 106.106 201.051 106.684 201.254C107.262 201.458 107.78 201.777 108.239 202.213C108.699 202.649 109.061 203.214 109.326 203.911C109.591 204.602 109.724 205.442 109.724 206.432V207.185H101.052V205.594H107.643C107.643 205.035 107.529 204.54 107.302 204.109C107.075 203.674 106.755 203.33 106.343 203.08C105.936 202.829 105.458 202.703 104.908 202.703C104.312 202.703 103.791 202.85 103.346 203.143C102.906 203.432 102.565 203.811 102.323 204.28C102.086 204.744 101.968 205.248 101.968 205.793V207.036C101.968 207.765 102.096 208.385 102.352 208.896C102.612 209.408 102.974 209.798 103.438 210.068C103.902 210.333 104.444 210.466 105.065 210.466C105.467 210.466 105.834 210.409 106.165 210.295C106.497 210.177 106.783 210.002 107.025 209.77C107.266 209.538 107.451 209.251 107.579 208.911L109.589 209.273C109.428 209.865 109.139 210.383 108.722 210.828C108.31 211.268 107.792 211.612 107.167 211.858C106.547 212.099 105.839 212.22 105.043 212.22ZM129.283 197.455V212H127.266L119.873 201.332H119.738V212H117.543V197.455H119.575L126.975 208.136H127.11V197.455H129.283ZM136.909 212.22C135.887 212.22 134.994 211.986 134.232 211.517C133.47 211.048 132.878 210.393 132.456 209.55C132.035 208.707 131.824 207.722 131.824 206.595C131.824 205.464 132.035 204.474 132.456 203.626C132.878 202.779 133.47 202.121 134.232 201.652C134.994 201.183 135.887 200.949 136.909 200.949C137.932 200.949 138.825 201.183 139.587 201.652C140.349 202.121 140.941 202.779 141.363 203.626C141.784 204.474 141.995 205.464 141.995 206.595C141.995 207.722 141.784 208.707 141.363 209.55C140.941 210.393 140.349 211.048 139.587 211.517C138.825 211.986 137.932 212.22 136.909 212.22ZM136.917 210.438C137.579 210.438 138.129 210.262 138.564 209.912C139 209.562 139.322 209.095 139.53 208.513C139.743 207.93 139.85 207.289 139.85 206.588C139.85 205.892 139.743 205.253 139.53 204.67C139.322 204.083 139 203.612 138.564 203.257C138.129 202.902 137.579 202.724 136.917 202.724C136.249 202.724 135.695 202.902 135.255 203.257C134.819 203.612 134.495 204.083 134.282 204.67C134.073 205.253 133.969 205.892 133.969 206.588C133.969 207.289 134.073 207.93 134.282 208.513C134.495 209.095 134.819 209.562 135.255 209.912C135.695 210.262 136.249 210.438 136.917 210.438ZM149.457 201.091V202.795H143.499V201.091H149.457ZM145.097 198.477H147.22V208.797C147.22 209.209 147.282 209.519 147.405 209.727C147.528 209.931 147.687 210.071 147.881 210.146C148.08 210.217 148.295 210.253 148.527 210.253C148.697 210.253 148.847 210.241 148.974 210.217C149.102 210.194 149.202 210.175 149.273 210.161L149.656 211.915C149.533 211.962 149.358 212.009 149.131 212.057C148.903 212.109 148.619 212.137 148.278 212.142C147.72 212.152 147.199 212.052 146.716 211.844C146.233 211.635 145.842 211.313 145.544 210.878C145.246 210.442 145.097 209.895 145.097 209.237V198.477ZM157.27 212V197.455H166.29V199.344H159.464V203.776H165.643V205.658H159.464V212H157.27ZM172.613 212.22C171.59 212.22 170.697 211.986 169.935 211.517C169.173 211.048 168.581 210.393 168.159 209.55C167.738 208.707 167.527 207.722 167.527 206.595C167.527 205.464 167.738 204.474 168.159 203.626C168.581 202.779 169.173 202.121 169.935 201.652C170.697 201.183 171.59 200.949 172.613 200.949C173.635 200.949 174.528 201.183 175.29 201.652C176.052 202.121 176.644 202.779 177.066 203.626C177.487 204.474 177.698 205.464 177.698 206.595C177.698 207.722 177.487 208.707 177.066 209.55C176.644 210.393 176.052 211.048 175.29 211.517C174.528 211.986 173.635 212.22 172.613 212.22ZM172.62 210.438C173.283 210.438 173.832 210.262 174.267 209.912C174.703 209.562 175.025 209.095 175.233 208.513C175.446 207.93 175.553 207.289 175.553 206.588C175.553 205.892 175.446 205.253 175.233 204.67C175.025 204.083 174.703 203.612 174.267 203.257C173.832 202.902 173.283 202.724 172.62 202.724C171.952 202.724 171.398 202.902 170.958 203.257C170.522 203.612 170.198 204.083 169.985 204.67C169.776 205.253 169.672 205.892 169.672 206.588C169.672 207.289 169.776 207.93 169.985 208.513C170.198 209.095 170.522 209.562 170.958 209.912C171.398 210.262 171.952 210.438 172.62 210.438ZM186.979 207.476V201.091H189.109V212H187.021V210.111H186.908C186.657 210.693 186.254 211.179 185.7 211.567C185.151 211.95 184.467 212.142 183.648 212.142C182.947 212.142 182.327 211.988 181.787 211.68C181.252 211.368 180.83 210.906 180.523 210.295C180.22 209.685 180.068 208.929 180.068 208.03V201.091H182.192V207.774C182.192 208.518 182.398 209.109 182.81 209.55C183.222 209.99 183.757 210.21 184.415 210.21C184.813 210.21 185.208 210.111 185.601 209.912C185.999 209.713 186.328 209.412 186.588 209.01C186.853 208.607 186.983 208.096 186.979 207.476ZM194.086 205.523V212H191.963V201.091H194.001V202.866H194.136C194.387 202.289 194.78 201.825 195.315 201.474C195.855 201.124 196.534 200.949 197.353 200.949C198.097 200.949 198.748 201.105 199.306 201.418C199.865 201.725 200.298 202.185 200.606 202.795C200.914 203.406 201.068 204.161 201.068 205.061V212H198.944V205.317C198.944 204.526 198.738 203.908 198.326 203.463C197.914 203.013 197.349 202.788 196.629 202.788C196.136 202.788 195.699 202.895 195.315 203.108C194.936 203.321 194.636 203.634 194.413 204.045C194.195 204.453 194.086 204.945 194.086 205.523ZM208 212.213C207.119 212.213 206.333 211.988 205.642 211.538C204.955 211.084 204.415 210.437 204.022 209.599C203.634 208.757 203.44 207.746 203.44 206.567C203.44 205.388 203.636 204.379 204.029 203.541C204.427 202.703 204.972 202.062 205.663 201.616C206.354 201.171 207.138 200.949 208.014 200.949C208.691 200.949 209.235 201.062 209.647 201.29C210.064 201.512 210.386 201.773 210.613 202.071C210.845 202.369 211.025 202.632 211.153 202.859H211.281V197.455H213.404V212H211.331V210.303H211.153C211.025 210.535 210.841 210.8 210.599 211.098C210.362 211.396 210.036 211.657 209.619 211.879C209.202 212.102 208.663 212.213 208 212.213ZM208.468 210.402C209.079 210.402 209.595 210.241 210.017 209.919C210.443 209.592 210.765 209.14 210.983 208.562C211.205 207.985 211.316 207.312 211.316 206.545C211.316 205.788 211.208 205.125 210.99 204.557C210.772 203.989 210.452 203.546 210.031 203.229C209.609 202.911 209.089 202.753 208.468 202.753C207.829 202.753 207.297 202.919 206.87 203.25C206.444 203.581 206.122 204.034 205.904 204.607C205.691 205.179 205.585 205.826 205.585 206.545C205.585 207.275 205.694 207.93 205.912 208.513C206.129 209.095 206.451 209.557 206.877 209.898C207.308 210.234 207.839 210.402 208.468 210.402ZM219.113 197.455L218.928 207.817H216.961L216.776 197.455H219.113ZM217.948 212.135C217.555 212.135 217.219 211.998 216.94 211.723C216.66 211.444 216.523 211.107 216.528 210.714C216.523 210.326 216.66 209.995 216.94 209.72C217.219 209.441 217.555 209.301 217.948 209.301C218.332 209.301 218.663 209.441 218.942 209.72C219.222 209.995 219.364 210.326 219.369 210.714C219.364 210.975 219.295 211.214 219.163 211.432C219.035 211.645 218.864 211.815 218.651 211.943C218.438 212.071 218.204 212.135 217.948 212.135Z" fill="#C6C6C6"/>
<g clip-path="url(#clip0_1050_97)">
<path d="M50.394 157.985C50.394 157.985 66.7192 169.782 71.5774 169.782L75.0476 168.39L79.0352 168.627L79.9626 171.464L86.152 172.564L84.0699 174.652L91.0102 176.391L95.1744 173.608L96.5625 175.347L101.421 173.608L102.583 176.391L108.361 174.304L112.178 175.695C112.178 175.695 112.872 179.869 116.342 180.217C119.812 180.565 124.671 183 124.671 183L135.503 178.356L136.816 176.043L140.633 177.087L150.697 171.521C150.697 171.521 150.473 171.552 147.809 170.493C145.144 169.434 144.797 168.042 144.797 168.042L142.908 168.627C142.908 168.627 139.933 167.8 142.018 164.269C144.103 160.737 142.463 161.228 142.463 161.228L139.245 162.129L137.51 159.346C137.51 159.346 134.04 160.39 133.346 160.737C132.652 161.085 134.387 158.998 134.387 158.998L132.999 158.303L133.346 156.563C133.346 156.563 132.305 155.868 133.693 154.476C135.081 153.085 132.652 151.693 132.652 151.693C132.652 151.693 126.301 153.743 128.609 150.283C130.917 146.823 128.903 145.433 128.903 145.433L113.502 140.562L111.831 142.997C111.831 142.997 106.336 141.504 108.042 146.077C108.042 146.077 104.259 146.389 105.616 148.519C105.616 148.519 101.074 147.945 102.115 150.689L98.4379 149.664C98.4379 149.664 95.63 148.824 97.8313 148.519C100.033 148.215 97.0225 147.345 97.0225 147.345C97.0225 147.345 98.0072 143.519 95.2027 144.649C92.3983 145.78 90.028 147.345 90.028 147.345L50.394 157.985Z" fill="#F2F2F2"/>
<path d="M51.4351 156.594C51.4351 156.594 67.7602 168.39 72.6184 168.39L76.0886 166.999L80.0762 167.235L81.0036 170.073L87.193 171.173L85.111 173.26L92.0512 174.999L96.2154 172.217L97.6035 173.956L102.462 172.217L103.624 174.999L109.402 172.912L113.219 174.304C113.219 174.304 113.913 178.478 117.383 178.826C120.853 179.174 125.712 181.609 125.712 181.609L136.544 176.964L137.857 174.652L141.674 175.695L151.738 170.129C151.738 170.129 151.514 170.16 148.85 169.101C146.185 168.042 145.838 166.651 145.838 166.651L143.949 167.235C143.949 167.235 140.974 166.409 143.059 162.877C145.144 159.346 143.504 159.837 143.504 159.837L140.286 160.737L138.551 157.955C138.551 157.955 135.081 158.998 134.387 159.346C133.693 159.694 135.428 157.607 135.428 157.607L134.04 156.911L134.387 155.172C134.387 155.172 133.346 154.476 134.734 153.085C136.122 151.693 133.693 150.302 133.693 150.302C133.693 150.302 127.342 152.352 129.65 148.892C131.958 145.432 129.944 144.042 129.944 144.042L114.543 139.171L112.872 141.605C112.872 141.605 107.377 140.113 109.083 144.685C109.083 144.685 105.3 144.997 106.657 147.128C106.657 147.128 102.115 146.553 103.156 149.297L99.4789 148.273C99.4789 148.273 96.6711 147.432 98.8723 147.128C101.074 146.823 98.0635 145.954 98.0635 145.954C98.0635 145.954 99.0482 142.127 96.2438 143.258C93.4393 144.388 91.0691 145.954 91.0691 145.954L51.4351 156.594Z" fill="#E6E6E6"/>
<path d="M168.047 117.256C168.047 117.256 181.234 114.125 179.846 101.254L182.275 101.95V97.0979C182.275 97.0979 187.105 105.081 187.119 108.212C187.133 111.342 189.215 133.953 164.23 129.778L168.047 117.256Z" fill="#E6E6E6"/>
<path d="M96.9094 9.42137L93.6128 9.5953H88.366C88.366 9.5953 84.6194 8.72567 83.3036 9.42137L85.111 10.4649C85.111 10.4649 81.9878 10.8128 80.9468 12.2042H83.8509C83.8509 12.2042 79.9057 13.2478 79.2117 16.0306C78.5177 18.8134 71.5774 25.0748 71.5774 25.0748C71.5774 25.0748 57.3498 36.5539 74.7005 52.2073C74.7005 52.2073 76.7826 58.8165 76.0886 59.8601C75.3946 60.9036 84.7639 62.295 85.805 54.9901C86.846 47.6852 88.9281 32.3797 88.9281 30.6404C88.9281 28.9011 93.4393 18.1177 93.4393 18.1177" fill="#E6E6E6"/>
<path d="M139.245 9.42137L142.542 9.5953H147.789C147.789 9.5953 151.535 8.72567 152.851 9.42137L151.044 10.4649C151.044 10.4649 154.167 10.8128 155.208 12.2042H152.304C152.304 12.2042 156.249 13.2478 156.943 16.0306C157.637 18.8134 164.577 25.0748 164.577 25.0748C164.577 25.0748 178.805 36.5539 161.454 52.2073C161.454 52.2073 159.372 58.8165 160.066 59.8601C160.76 60.9036 151.391 62.295 150.35 54.9901C149.309 47.6852 147.226 32.3797 147.226 30.6404C147.226 28.9011 142.715 18.1177 142.715 18.1177" fill="#E6E6E6"/>
<path d="M167.18 129.604C166.486 133.083 163.363 135.518 163.363 135.518C161.975 144.214 156.076 140.388 156.076 140.388C155.729 141.779 149.136 141.083 149.136 141.083L148.095 139.709V143.866C148.095 146.997 143.93 145.953 143.93 145.953C142.889 149.084 136.542 147.345 136.542 147.345C134.016 149.432 129.356 147.345 129.356 147.345C123.11 146.997 122.415 141.779 122.415 141.779L123.457 132.735L117.214 132.867C110.273 138.909 103.156 133.49 103.156 133.49C103.156 133.49 101.942 139.692 101.248 142.823C100.554 145.953 91.0869 145.077 91.0869 145.077C88.9079 147.331 84.3307 144.687 84.3307 144.687C80.5969 146.2 78.3447 142.823 78.3447 142.823C73.1395 137.953 82.7274 130.223 82.7274 130.223V112.184C78.7818 96.151 84.4174 66.5801 84.4174 66.5801C84.8824 65.2096 85.736 64.1973 86.7042 63.4564C88.9703 61.7068 91.8643 61.425 91.8643 61.425C91.8643 61.425 139.072 57.2508 146.012 57.9465C147.324 58.0786 148.376 58.9413 149.216 60.2561C152.835 65.9018 152.606 79.8612 152.606 79.8612C159.546 82.9919 161.281 98.2974 161.281 98.2974C177.244 103.863 167.874 126.126 167.18 129.604Z" fill="#E6E6E6"/>
<path d="M140.46 7.85605C140.46 7.85605 115.822 -10.928 93.6127 9.59531C93.6127 9.59531 78.1706 48.0331 84.0699 57.0772C89.9691 66.1214 107.399 73.8026 107.399 73.8026C107.399 73.8026 118.63 76.266 129.111 73.8026C139.592 71.3392 151.044 54.6423 151.044 54.6423C151.044 54.6423 151.391 10.8128 140.46 7.85605Z" fill="#E6E6E6"/>
<path d="M125.577 22.0836C127.127 25.4244 130.19 27.9713 133.74 28.9123C134.388 29.0841 134.665 28.0778 134.017 27.906C130.705 27.0281 127.919 24.6672 126.476 21.5569C126.194 20.9485 125.296 21.4779 125.577 22.0836Z" fill="#F2F2F2"/>
<path d="M107.153 21.9625C106.445 23.7836 105.31 25.4218 103.876 26.7436C103.175 27.39 102.398 27.9689 101.56 28.4253C100.672 28.9087 99.5359 29.3051 98.581 28.7834C97.9925 28.4619 97.4665 29.3626 98.0556 29.6844C100.208 30.8602 102.707 29.1412 104.308 27.7529C106.026 26.2637 107.334 24.3573 108.157 22.2399C108.4 21.6138 107.394 21.3425 107.153 21.9625Z" fill="#F2F2F2"/>
<path d="M134.04 44.2067C137.489 44.2067 140.286 41.4034 140.286 37.9453C140.286 34.4873 137.489 31.684 134.04 31.684C130.59 31.684 127.793 34.4873 127.793 37.9453C127.793 41.4034 130.59 44.2067 134.04 44.2067Z" fill="white"/>
<path d="M133.346 42.4674C136.029 42.4674 138.204 40.2871 138.204 37.5975C138.204 34.9079 136.029 32.7275 133.346 32.7275C130.663 32.7275 128.488 34.9079 128.488 37.5975C128.488 40.2871 130.663 42.4674 133.346 42.4674Z" fill="#F2F2F2"/>
<path d="M134.561 36.0322C135.136 36.0322 135.602 35.565 135.602 34.9886C135.602 34.4123 135.136 33.9451 134.561 33.9451C133.986 33.9451 133.52 34.4123 133.52 34.9886C133.52 35.565 133.986 36.0322 134.561 36.0322Z" fill="white"/>
<path d="M103.155 44.5546C106.605 44.5546 109.402 41.7513 109.402 38.2932C109.402 34.8352 106.605 32.0319 103.155 32.0319C99.7057 32.0319 96.9092 34.8352 96.9092 38.2932C96.9092 41.7513 99.7057 44.5546 103.155 44.5546Z" fill="white"/>
<path d="M102.462 42.8153C105.145 42.8153 107.32 40.635 107.32 37.9454C107.32 35.2558 105.145 33.0754 102.462 33.0754C99.7786 33.0754 97.6035 35.2558 97.6035 37.9454C97.6035 40.635 99.7786 42.8153 102.462 42.8153Z" fill="#F2F2F2"/>
<path d="M103.676 36.38C104.251 36.38 104.717 35.9128 104.717 35.3364C104.717 34.7601 104.251 34.2928 103.676 34.2928C103.101 34.2928 102.635 34.7601 102.635 35.3364C102.635 35.9128 103.101 36.38 103.676 36.38Z" fill="white"/>
<path d="M117.21 61.4254C117.21 61.4254 106.105 57.9469 108.882 51.3377C111.658 44.7285 120.333 47.1635 120.333 47.1635C120.333 47.1635 127.794 48.381 125.578 54.0753C123.977 58.1208 121.374 60.034 117.21 61.4254Z" fill="#F2F2F2"/>
<path d="M103.195 72.0799L103.116 71.3889C103.15 71.3848 106.502 70.9575 109.491 67.6281C112.192 64.62 115.721 64.317 116.865 64.3028L116.863 61.4259L117.557 61.4252L117.56 65.0257L117.191 65.0032C117.149 65.0005 112.975 64.7882 110.007 68.0935C106.832 71.6294 103.342 72.0632 103.195 72.0799Z" fill="#F2F2F2"/>
<path d="M133.243 72.4509C132.991 72.3721 127.049 70.4939 125.68 67.8157C124.673 65.8454 119.212 65.1178 117.193 65.0033L117.232 64.309C117.545 64.3266 124.905 64.7733 126.298 67.4984C127.535 69.9195 133.39 71.7681 133.449 71.7864L133.243 72.4509Z" fill="#F2F2F2"/>
<path d="M103.468 133.64L102.843 133.337C109.622 119.294 102.919 106.566 102.851 106.439L103.461 106.108C103.531 106.238 110.406 119.267 103.468 133.64Z" fill="#F2F2F2"/>
<path d="M123.11 132.756C122.592 123.939 126.032 108.293 126.067 108.136L126.744 108.287C126.71 108.443 123.291 123.995 123.802 132.715L123.11 132.756Z" fill="#F2F2F2"/>
<path d="M147.619 140.039L144.843 135.169C142.013 130.204 149.037 113.979 149.338 113.29L149.973 113.569C149.955 113.611 148.141 117.785 146.688 122.495C144.789 128.656 144.36 132.919 145.445 134.824L148.222 139.694L147.619 140.039Z" fill="#F2F2F2"/>
<path d="M156.415 140.456L155.735 140.32C156.578 136.092 156.064 132.824 156.058 132.792L156.743 132.679C156.766 132.817 157.285 136.096 156.415 140.456Z" fill="#F2F2F2"/>
<path d="M148.8 141.173C147.918 137.816 149.263 132.853 149.321 132.643L149.99 132.828C149.976 132.877 148.637 137.821 149.471 140.995L148.8 141.173Z" fill="#F2F2F2"/>
<path d="M129.693 147.426L129.018 147.265C129.863 143.706 129.533 138.204 129.529 138.149L130.222 138.105C130.236 138.335 130.562 143.765 129.693 147.426Z" fill="#F2F2F2"/>
<path d="M136.885 147.409L136.202 147.281C136.612 145.082 136.471 139.238 136.469 139.18L137.163 139.162C137.169 139.405 137.308 145.138 136.885 147.409Z" fill="#F2F2F2"/>
<path d="M144.276 145.974L143.583 145.933C143.751 143.077 142.74 140.007 142.73 139.977L143.388 139.756C143.432 139.886 144.451 142.985 144.276 145.974Z" fill="#F2F2F2"/>
<path d="M90.742 145.106C90.4665 141.9 93.1511 136.951 93.2653 136.742L93.8739 137.077C93.8468 137.126 91.1758 142.05 91.4333 145.046L90.742 145.106Z" fill="#F2F2F2"/>
<path d="M83.9866 144.738C83.5396 141.822 86.1717 136.949 86.2839 136.743L86.8932 137.076C86.8668 137.125 84.2614 141.949 84.6725 144.633L83.9866 144.738Z" fill="#F2F2F2"/>
<path d="M79.3847 144.354C78.6005 143.967 78.6093 142.618 79.4121 140.109C79.9544 138.414 80.6799 136.784 80.687 136.768L81.3207 137.052C80.0259 139.952 79.038 143.407 79.691 143.729L79.3847 144.354Z" fill="#F2F2F2"/>
<path d="M53.8831 143.606C53.8831 143.606 57.0208 146.823 61.87 146.649C61.87 146.649 59.7788 150.998 51.1035 152.041C51.1035 152.041 47.2863 149.954 44.8572 149.954C42.4281 149.954 40.7 146.823 41.0435 146.649C41.3871 146.476 46.2453 147.171 46.2453 147.171L53.8831 143.606Z" fill="#F2F2F2"/>
<path d="M53.8831 142.91C53.8831 142.91 57.0208 146.128 61.87 145.954C61.87 145.954 59.7788 150.302 51.1035 151.345C51.1035 151.345 47.2863 149.258 44.8572 149.258C42.4281 149.258 40.7 146.128 41.0435 145.954C41.3871 145.78 46.2453 146.475 46.2453 146.475L53.8831 142.91Z" fill="#E6E6E6"/>
<path d="M71.5771 155.172L92.3192 148.273L114.954 156.215L94.1331 164.912L71.5771 155.172Z" fill="#F2F2F2"/>
<path d="M111.459 147.128L112.672 145.954L128.14 151.345L127.446 152.389L111.459 147.128Z" fill="#F2F2F2"/>
<path d="M104.698 149.171L106.24 148.273L131.881 156.592V157.506L104.698 149.171Z" fill="#F2F2F2"/>
<path d="M116.689 158.302L117.828 157.506L138.204 164.216L136.841 165.31L116.689 158.302Z" fill="#F2F2F2"/>
<path d="M110.751 161.408L111.459 160.39L131.881 167.64L130.917 168.738L110.751 161.408Z" fill="#F2F2F2"/>
<path d="M105.932 163.52L106.24 162.573L126.405 170.073L125.364 170.477L105.932 163.52Z" fill="#F2F2F2"/>
<path d="M103.156 166.12L104.698 164.912L114.954 169.465L114.391 170.477L103.156 166.12Z" fill="#F2F2F2"/>
<path d="M67.7603 157.955L68.6942 157.506L87.0943 164.564L86.0833 164.912L67.7603 157.955Z" fill="#F2F2F2"/>
<path d="M63.5962 158.998L65.6783 157.955L75.7417 163.172L74.7006 163.868L63.5962 158.998Z" fill="#F2F2F2"/>
<path d="M145.555 148.736L146.185 153.085L144.99 156.06L148.126 157.479L150.697 160.924V162.799L157.116 164.37C157.116 164.37 160.76 169.434 163.189 168.738C165.618 168.042 184.685 154.281 184.685 154.281L149.401 147.345C149.401 147.345 145.271 146.475 145.555 148.736Z" fill="#F2F2F2"/>
<path d="M144.514 147.345L145.144 151.693L143.949 154.668L147.085 156.087L149.655 159.533V161.408L156.075 162.979C156.075 162.979 159.719 168.042 162.148 167.347C164.577 166.651 183.644 152.889 183.644 152.889L148.36 145.954C148.36 145.954 144.23 145.084 144.514 147.345Z" fill="#E6E6E6"/>
<path d="M147.653 152.889L148.85 151.628L165.648 156.592L165.042 157.506L147.653 152.889Z" fill="#F2F2F2"/>
<path d="M151.738 158.114L152.202 156.601L160.413 159.694L159.987 161.209L151.738 158.114Z" fill="#F2F2F2"/>
<path d="M186.472 137.007C186.472 137.007 182.914 141.953 177.389 139.518C177.389 139.518 175.373 140.91 174.66 141.258C173.946 141.606 169.301 141.779 169.301 141.779L175.873 144.127L179.846 146.475L189.215 145.084C189.215 145.084 191.297 143.345 193.379 143.345C195.461 143.345 197.306 139.518 197.306 139.518C197.306 139.518 191.327 139.171 191.139 138.301C190.95 137.431 188.241 139.366 186.472 137.007Z" fill="#F2F2F2"/>
<path d="M185.679 167.917C186.092 170.129 194.981 165.941 194.981 165.941L191.24 163.965L189.562 163.52H187.095C187.095 163.52 185.013 161.73 182.95 162.799C182.95 162.799 185.267 165.704 185.679 167.917Z" fill="#F2F2F2"/>
<path d="M187.167 135.616C187.167 135.616 183.609 140.562 178.084 138.127C178.084 138.127 176.067 139.518 175.354 139.866C174.641 140.214 169.996 140.388 169.996 140.388L176.567 142.736L180.54 145.084L189.909 143.693C189.909 143.693 191.991 141.953 194.073 141.953C196.156 141.953 198 138.127 198 138.127C198 138.127 192.022 137.779 191.833 136.909C191.644 136.04 188.936 137.975 187.167 135.616Z" fill="#E6E6E6"/>
<path d="M186.374 166.525C186.786 168.738 195.675 164.549 195.675 164.549L191.934 162.573L190.256 162.129H187.789C187.789 162.129 185.707 160.339 183.644 161.408C183.644 161.408 185.961 164.312 186.374 166.525Z" fill="#E6E6E6"/>
<path d="M72.501 155.384C72.501 155.384 88.1441 153.652 90.9932 154.779L91.9926 163.8L72.501 155.384Z" fill="white"/>
<path d="M98.3537 156.949C99.887 156.949 101.13 156.404 101.13 155.731C101.13 155.059 99.887 154.514 98.3537 154.514C96.8205 154.514 95.5776 155.059 95.5776 155.731C95.5776 156.404 96.8205 156.949 98.3537 156.949Z" fill="white"/>
</g>
<defs>
<clipPath id="clip0_1050_97">
<rect width="157" height="183" fill="white" transform="translate(41)"/>
</clipPath>
</defs>
</svg>
