<svg width="15" height="24" viewBox="0 0 15 24" fill="none" xmlns="http://www.w3.org/2000/svg">
<g clip-path="url(#clip0_438_2437)">
<path d="M6.44079 1.94061C7.02673 1.35468 7.97829 1.35468 8.56423 1.94061L14.5642 7.94061C14.9955 8.37186 15.122 9.01405 14.8877 9.57655C14.6533 10.139 14.1095 10.5047 13.5002 10.5047L1.50017 10.5C0.895481 10.5 0.347043 10.1344 0.112668 9.57186C-0.121707 9.00936 0.00954311 8.36718 0.436106 7.93593L6.43611 1.93593L6.44079 1.94061ZM6.44079 22.0641L0.440793 16.0641C0.00954311 15.6328 -0.117019 14.9906 0.117356 14.4281C0.351731 13.8656 0.89548 13.5 1.50486 13.5H13.5049C14.1095 13.5 14.658 13.8656 14.8924 14.4281C15.1267 14.9906 14.9955 15.6328 14.5689 16.0641L8.56892 22.0641C7.98298 22.65 7.03142 22.65 6.44548 22.0641H6.44079Z" fill="#767676"/>
</g>
<defs>
<clipPath id="clip0_438_2437">
<rect width="15" height="24" fill="white"/>
</clipPath>
</defs>
</svg>
