<svg xmlns="http://www.w3.org/2000/svg" fill="none" viewBox="0 0 333 333">
  <g clip-path="url(#a)">
    <rect width="333" height="333" fill="#fff" rx="91"/>
    <path fill="#fcb315" d="M142 125v136H98v-7l-16 8a60 60 0 0 1-45-4q-12-7-18-20t-7-31v-82h44v77q0 10 5 17 5 6 15 6 11 0 17-6t5-17v-77z"/>
    <path fill="#1a1851" d="M165 171q0-20 6-37 7-17 18-29 12-12 29-19 16-7 37-8 20 0 43 7v44q-15-7-31-8-15-1-28 4-12 6-19 17-8 11-8 29t8 30 19 16 28 5q16-1 31-9v45q-23 7-43 6-21 0-37-7a83 83 0 0 1-47-49q-6-16-6-37"/>
  </g>
  <defs>
    <clipPath id="a">
      <rect width="333" height="333" fill="#fff" rx="91"/>
    </clipPath>
  </defs>
</svg>
